<svg height="433.013" width="500">
<polygon points= "250,0,0,433.013,500,433.013" style="fill:red;stroke:black;stroke-width:1" />
<circle cx="60.6218" cy="398.013" r="35" stroke="black" stroke-width="1" fill="green" />
<circle cx="130.622" cy="398.013" r="35" stroke="black" stroke-width="1" fill="green" />
<circle cx="200.622" cy="398.013" r="35" stroke="black" stroke-width="1" fill="green" />
<circle cx="270.622" cy="398.013" r="35" stroke="black" stroke-width="1" fill="green" />
<circle cx="340.622" cy="398.013" r="35" stroke="black" stroke-width="1" fill="green" />
<circle cx="410.622" cy="398.013" r="35" stroke="black" stroke-width="1" fill="green" />
<circle cx="95.6218" cy="337.391" r="35" stroke="black" stroke-width="1" fill="green" />
<circle cx="165.622" cy="337.391" r="35" stroke="black" stroke-width="1" fill="green" />
<circle cx="235.622" cy="337.391" r="35" stroke="black" stroke-width="1" fill="green" />
<circle cx="305.622" cy="337.391" r="35" stroke="black" stroke-width="1" fill="green" />
<circle cx="375.622" cy="337.391" r="35" stroke="black" stroke-width="1" fill="green" />
<circle cx="130.622" cy="276.769" r="35" stroke="black" stroke-width="1" fill="green" />
<circle cx="200.622" cy="276.769" r="35" stroke="black" stroke-width="1" fill="green" />
<circle cx="270.622" cy="276.769" r="35" stroke="black" stroke-width="1" fill="green" />
<circle cx="340.622" cy="276.769" r="35" stroke="black" stroke-width="1" fill="green" />
<circle cx="165.622" cy="216.147" r="35" stroke="black" stroke-width="1" fill="green" />
<circle cx="235.622" cy="216.147" r="35" stroke="black" stroke-width="1" fill="green" />
<circle cx="305.622" cy="216.147" r="35" stroke="black" stroke-width="1" fill="green" />
<circle cx="200.622" cy="155.526" r="35" stroke="black" stroke-width="1" fill="green" />
<circle cx="270.622" cy="155.526" r="35" stroke="black" stroke-width="1" fill="green" />
<circle cx="235.622" cy="94.9038" r="35" stroke="black" stroke-width="1" fill="green" />
</svg>