<svg height="200" width="200">
<circle cx="100" cy="100" r="100" stroke="black" stroke-width="1" fill="red" />
<polygon points= "36.7895,29.2895,29.2895,42.2799,44.2895,42.2799" style="fill:green;stroke:black;stroke-width:1" />
<polygon points= "44.2895,42.2799,36.7895,29.2895,51.7895,29.2895" style="fill:green;stroke:black;stroke-width:1" />
<polygon points= "51.7895,29.2895,44.2895,42.2799,59.2895,42.2799" style="fill:green;stroke:black;stroke-width:1" />
<polygon points= "59.2895,42.2799,51.7895,29.2895,66.7895,29.2895" style="fill:green;stroke:black;stroke-width:1" />
<polygon points= "66.7895,29.2895,59.2895,42.2799,74.2895,42.2799" style="fill:green;stroke:black;stroke-width:1" />
<polygon points= "74.2895,42.2799,66.7895,29.2895,81.7895,29.2895" style="fill:green;stroke:black;stroke-width:1" />
<polygon points= "81.7895,29.2895,74.2895,42.2799,89.2895,42.2799" style="fill:green;stroke:black;stroke-width:1" />
<polygon points= "89.2895,42.2799,81.7895,29.2895,96.7895,29.2895" style="fill:green;stroke:black;stroke-width:1" />
<polygon points= "96.7895,29.2895,89.2895,42.2799,104.29,42.2799" style="fill:green;stroke:black;stroke-width:1" />
<polygon points= "104.29,42.2799,96.7895,29.2895,111.79,29.2895" style="fill:green;stroke:black;stroke-width:1" />
<polygon points= "111.79,29.2895,104.29,42.2799,119.29,42.2799" style="fill:green;stroke:black;stroke-width:1" />
<polygon points= "119.29,42.2799,111.79,29.2895,126.79,29.2895" style="fill:green;stroke:black;stroke-width:1" />
<polygon points= "126.79,29.2895,119.29,42.2799,134.29,42.2799" style="fill:green;stroke:black;stroke-width:1" />
<polygon points= "134.29,42.2799,126.79,29.2895,141.79,29.2895" style="fill:green;stroke:black;stroke-width:1" />
<polygon points= "141.79,29.2895,134.29,42.2799,149.29,42.2799" style="fill:green;stroke:black;stroke-width:1" />
<polygon points= "149.29,42.2799,141.79,29.2895,156.79,29.2895" style="fill:green;stroke:black;stroke-width:1" />
<polygon points= "156.79,29.2895,149.29,42.2799,164.29,42.2799" style="fill:green;stroke:black;stroke-width:1" />
<polygon points= "36.7895,42.2799,29.2895,55.2703,44.2895,55.2703" style="fill:green;stroke:black;stroke-width:1" />
<polygon points= "44.2895,55.2703,36.7895,42.2799,51.7895,42.2799" style="fill:green;stroke:black;stroke-width:1" />
<polygon points= "51.7895,42.2799,44.2895,55.2703,59.2895,55.2703" style="fill:green;stroke:black;stroke-width:1" />
<polygon points= "59.2895,55.2703,51.7895,42.2799,66.7895,42.2799" style="fill:green;stroke:black;stroke-width:1" />
<polygon points= "66.7895,42.2799,59.2895,55.2703,74.2895,55.2703" style="fill:green;stroke:black;stroke-width:1" />
<polygon points= "74.2895,55.2703,66.7895,42.2799,81.7895,42.2799" style="fill:green;stroke:black;stroke-width:1" />
<polygon points= "81.7895,42.2799,74.2895,55.2703,89.2895,55.2703" style="fill:green;stroke:black;stroke-width:1" />
<polygon points= "89.2895,55.2703,81.7895,42.2799,96.7895,42.2799" style="fill:green;stroke:black;stroke-width:1" />
<polygon points= "96.7895,42.2799,89.2895,55.2703,104.29,55.2703" style="fill:green;stroke:black;stroke-width:1" />
<polygon points= "104.29,55.2703,96.7895,42.2799,111.79,42.2799" style="fill:green;stroke:black;stroke-width:1" />
<polygon points= "111.79,42.2799,104.29,55.2703,119.29,55.2703" style="fill:green;stroke:black;stroke-width:1" />
<polygon points= "119.29,55.2703,111.79,42.2799,126.79,42.2799" style="fill:green;stroke:black;stroke-width:1" />
<polygon points= "126.79,42.2799,119.29,55.2703,134.29,55.2703" style="fill:green;stroke:black;stroke-width:1" />
<polygon points= "134.29,55.2703,126.79,42.2799,141.79,42.2799" style="fill:green;stroke:black;stroke-width:1" />
<polygon points= "141.79,42.2799,134.29,55.2703,149.29,55.2703" style="fill:green;stroke:black;stroke-width:1" />
<polygon points= "149.29,55.2703,141.79,42.2799,156.79,42.2799" style="fill:green;stroke:black;stroke-width:1" />
<polygon points= "156.79,42.2799,149.29,55.2703,164.29,55.2703" style="fill:green;stroke:black;stroke-width:1" />
<polygon points= "36.7895,55.2703,29.2895,68.2606,44.2895,68.2606" style="fill:green;stroke:black;stroke-width:1" />
<polygon points= "44.2895,68.2606,36.7895,55.2703,51.7895,55.2703" style="fill:green;stroke:black;stroke-width:1" />
<polygon points= "51.7895,55.2703,44.2895,68.2606,59.2895,68.2606" style="fill:green;stroke:black;stroke-width:1" />
<polygon points= "59.2895,68.2606,51.7895,55.2703,66.7895,55.2703" style="fill:green;stroke:black;stroke-width:1" />
<polygon points= "66.7895,55.2703,59.2895,68.2606,74.2895,68.2606" style="fill:green;stroke:black;stroke-width:1" />
<polygon points= "74.2895,68.2606,66.7895,55.2703,81.7895,55.2703" style="fill:green;stroke:black;stroke-width:1" />
<polygon points= "81.7895,55.2703,74.2895,68.2606,89.2895,68.2606" style="fill:green;stroke:black;stroke-width:1" />
<polygon points= "89.2895,68.2606,81.7895,55.2703,96.7895,55.2703" style="fill:green;stroke:black;stroke-width:1" />
<polygon points= "96.7895,55.2703,89.2895,68.2606,104.29,68.2606" style="fill:green;stroke:black;stroke-width:1" />
<polygon points= "104.29,68.2606,96.7895,55.2703,111.79,55.2703" style="fill:green;stroke:black;stroke-width:1" />
<polygon points= "111.79,55.2703,104.29,68.2606,119.29,68.2606" style="fill:green;stroke:black;stroke-width:1" />
<polygon points= "119.29,68.2606,111.79,55.2703,126.79,55.2703" style="fill:green;stroke:black;stroke-width:1" />
<polygon points= "126.79,55.2703,119.29,68.2606,134.29,68.2606" style="fill:green;stroke:black;stroke-width:1" />
<polygon points= "134.29,68.2606,126.79,55.2703,141.79,55.2703" style="fill:green;stroke:black;stroke-width:1" />
<polygon points= "141.79,55.2703,134.29,68.2606,149.29,68.2606" style="fill:green;stroke:black;stroke-width:1" />
<polygon points= "149.29,68.2606,141.79,55.2703,156.79,55.2703" style="fill:green;stroke:black;stroke-width:1" />
<polygon points= "156.79,55.2703,149.29,68.2606,164.29,68.2606" style="fill:green;stroke:black;stroke-width:1" />
<polygon points= "36.7895,68.2606,29.2895,81.251,44.2895,81.251" style="fill:green;stroke:black;stroke-width:1" />
<polygon points= "44.2895,81.251,36.7895,68.2606,51.7895,68.2606" style="fill:green;stroke:black;stroke-width:1" />
<polygon points= "51.7895,68.2606,44.2895,81.251,59.2895,81.251" style="fill:green;stroke:black;stroke-width:1" />
<polygon points= "59.2895,81.251,51.7895,68.2606,66.7895,68.2606" style="fill:green;stroke:black;stroke-width:1" />
<polygon points= "66.7895,68.2606,59.2895,81.251,74.2895,81.251" style="fill:green;stroke:black;stroke-width:1" />
<polygon points= "74.2895,81.251,66.7895,68.2606,81.7895,68.2606" style="fill:green;stroke:black;stroke-width:1" />
<polygon points= "81.7895,68.2606,74.2895,81.251,89.2895,81.251" style="fill:green;stroke:black;stroke-width:1" />
<polygon points= "89.2895,81.251,81.7895,68.2606,96.7895,68.2606" style="fill:green;stroke:black;stroke-width:1" />
<polygon points= "96.7895,68.2606,89.2895,81.251,104.29,81.251" style="fill:green;stroke:black;stroke-width:1" />
<polygon points= "104.29,81.251,96.7895,68.2606,111.79,68.2606" style="fill:green;stroke:black;stroke-width:1" />
<polygon points= "111.79,68.2606,104.29,81.251,119.29,81.251" style="fill:green;stroke:black;stroke-width:1" />
<polygon points= "119.29,81.251,111.79,68.2606,126.79,68.2606" style="fill:green;stroke:black;stroke-width:1" />
<polygon points= "126.79,68.2606,119.29,81.251,134.29,81.251" style="fill:green;stroke:black;stroke-width:1" />
<polygon points= "134.29,81.251,126.79,68.2606,141.79,68.2606" style="fill:green;stroke:black;stroke-width:1" />
<polygon points= "141.79,68.2606,134.29,81.251,149.29,81.251" style="fill:green;stroke:black;stroke-width:1" />
<polygon points= "149.29,81.251,141.79,68.2606,156.79,68.2606" style="fill:green;stroke:black;stroke-width:1" />
<polygon points= "156.79,68.2606,149.29,81.251,164.29,81.251" style="fill:green;stroke:black;stroke-width:1" />
<polygon points= "36.7895,81.251,29.2895,94.2414,44.2895,94.2414" style="fill:green;stroke:black;stroke-width:1" />
<polygon points= "44.2895,94.2414,36.7895,81.251,51.7895,81.251" style="fill:green;stroke:black;stroke-width:1" />
<polygon points= "51.7895,81.251,44.2895,94.2414,59.2895,94.2414" style="fill:green;stroke:black;stroke-width:1" />
<polygon points= "59.2895,94.2414,51.7895,81.251,66.7895,81.251" style="fill:green;stroke:black;stroke-width:1" />
<polygon points= "66.7895,81.251,59.2895,94.2414,74.2895,94.2414" style="fill:green;stroke:black;stroke-width:1" />
<polygon points= "74.2895,94.2414,66.7895,81.251,81.7895,81.251" style="fill:green;stroke:black;stroke-width:1" />
<polygon points= "81.7895,81.251,74.2895,94.2414,89.2895,94.2414" style="fill:green;stroke:black;stroke-width:1" />
<polygon points= "89.2895,94.2414,81.7895,81.251,96.7895,81.251" style="fill:green;stroke:black;stroke-width:1" />
<polygon points= "96.7895,81.251,89.2895,94.2414,104.29,94.2414" style="fill:green;stroke:black;stroke-width:1" />
<polygon points= "104.29,94.2414,96.7895,81.251,111.79,81.251" style="fill:green;stroke:black;stroke-width:1" />
<polygon points= "111.79,81.251,104.29,94.2414,119.29,94.2414" style="fill:green;stroke:black;stroke-width:1" />
<polygon points= "119.29,94.2414,111.79,81.251,126.79,81.251" style="fill:green;stroke:black;stroke-width:1" />
<polygon points= "126.79,81.251,119.29,94.2414,134.29,94.2414" style="fill:green;stroke:black;stroke-width:1" />
<polygon points= "134.29,94.2414,126.79,81.251,141.79,81.251" style="fill:green;stroke:black;stroke-width:1" />
<polygon points= "141.79,81.251,134.29,94.2414,149.29,94.2414" style="fill:green;stroke:black;stroke-width:1" />
<polygon points= "149.29,94.2414,141.79,81.251,156.79,81.251" style="fill:green;stroke:black;stroke-width:1" />
<polygon points= "156.79,81.251,149.29,94.2414,164.29,94.2414" style="fill:green;stroke:black;stroke-width:1" />
<polygon points= "36.7895,94.2414,29.2895,107.232,44.2895,107.232" style="fill:green;stroke:black;stroke-width:1" />
<polygon points= "44.2895,107.232,36.7895,94.2414,51.7895,94.2414" style="fill:green;stroke:black;stroke-width:1" />
<polygon points= "51.7895,94.2414,44.2895,107.232,59.2895,107.232" style="fill:green;stroke:black;stroke-width:1" />
<polygon points= "59.2895,107.232,51.7895,94.2414,66.7895,94.2414" style="fill:green;stroke:black;stroke-width:1" />
<polygon points= "66.7895,94.2414,59.2895,107.232,74.2895,107.232" style="fill:green;stroke:black;stroke-width:1" />
<polygon points= "74.2895,107.232,66.7895,94.2414,81.7895,94.2414" style="fill:green;stroke:black;stroke-width:1" />
<polygon points= "81.7895,94.2414,74.2895,107.232,89.2895,107.232" style="fill:green;stroke:black;stroke-width:1" />
<polygon points= "89.2895,107.232,81.7895,94.2414,96.7895,94.2414" style="fill:green;stroke:black;stroke-width:1" />
<polygon points= "96.7895,94.2414,89.2895,107.232,104.29,107.232" style="fill:green;stroke:black;stroke-width:1" />
<polygon points= "104.29,107.232,96.7895,94.2414,111.79,94.2414" style="fill:green;stroke:black;stroke-width:1" />
<polygon points= "111.79,94.2414,104.29,107.232,119.29,107.232" style="fill:green;stroke:black;stroke-width:1" />
<polygon points= "119.29,107.232,111.79,94.2414,126.79,94.2414" style="fill:green;stroke:black;stroke-width:1" />
<polygon points= "126.79,94.2414,119.29,107.232,134.29,107.232" style="fill:green;stroke:black;stroke-width:1" />
<polygon points= "134.29,107.232,126.79,94.2414,141.79,94.2414" style="fill:green;stroke:black;stroke-width:1" />
<polygon points= "141.79,94.2414,134.29,107.232,149.29,107.232" style="fill:green;stroke:black;stroke-width:1" />
<polygon points= "149.29,107.232,141.79,94.2414,156.79,94.2414" style="fill:green;stroke:black;stroke-width:1" />
<polygon points= "156.79,94.2414,149.29,107.232,164.29,107.232" style="fill:green;stroke:black;stroke-width:1" />
<polygon points= "36.7895,107.232,29.2895,120.222,44.2895,120.222" style="fill:green;stroke:black;stroke-width:1" />
<polygon points= "44.2895,120.222,36.7895,107.232,51.7895,107.232" style="fill:green;stroke:black;stroke-width:1" />
<polygon points= "51.7895,107.232,44.2895,120.222,59.2895,120.222" style="fill:green;stroke:black;stroke-width:1" />
<polygon points= "59.2895,120.222,51.7895,107.232,66.7895,107.232" style="fill:green;stroke:black;stroke-width:1" />
<polygon points= "66.7895,107.232,59.2895,120.222,74.2895,120.222" style="fill:green;stroke:black;stroke-width:1" />
<polygon points= "74.2895,120.222,66.7895,107.232,81.7895,107.232" style="fill:green;stroke:black;stroke-width:1" />
<polygon points= "81.7895,107.232,74.2895,120.222,89.2895,120.222" style="fill:green;stroke:black;stroke-width:1" />
<polygon points= "89.2895,120.222,81.7895,107.232,96.7895,107.232" style="fill:green;stroke:black;stroke-width:1" />
<polygon points= "96.7895,107.232,89.2895,120.222,104.29,120.222" style="fill:green;stroke:black;stroke-width:1" />
<polygon points= "104.29,120.222,96.7895,107.232,111.79,107.232" style="fill:green;stroke:black;stroke-width:1" />
<polygon points= "111.79,107.232,104.29,120.222,119.29,120.222" style="fill:green;stroke:black;stroke-width:1" />
<polygon points= "119.29,120.222,111.79,107.232,126.79,107.232" style="fill:green;stroke:black;stroke-width:1" />
<polygon points= "126.79,107.232,119.29,120.222,134.29,120.222" style="fill:green;stroke:black;stroke-width:1" />
<polygon points= "134.29,120.222,126.79,107.232,141.79,107.232" style="fill:green;stroke:black;stroke-width:1" />
<polygon points= "141.79,107.232,134.29,120.222,149.29,120.222" style="fill:green;stroke:black;stroke-width:1" />
<polygon points= "149.29,120.222,141.79,107.232,156.79,107.232" style="fill:green;stroke:black;stroke-width:1" />
<polygon points= "156.79,107.232,149.29,120.222,164.29,120.222" style="fill:green;stroke:black;stroke-width:1" />
<polygon points= "36.7895,120.222,29.2895,133.213,44.2895,133.213" style="fill:green;stroke:black;stroke-width:1" />
<polygon points= "44.2895,133.213,36.7895,120.222,51.7895,120.222" style="fill:green;stroke:black;stroke-width:1" />
<polygon points= "51.7895,120.222,44.2895,133.213,59.2895,133.213" style="fill:green;stroke:black;stroke-width:1" />
<polygon points= "59.2895,133.213,51.7895,120.222,66.7895,120.222" style="fill:green;stroke:black;stroke-width:1" />
<polygon points= "66.7895,120.222,59.2895,133.213,74.2895,133.213" style="fill:green;stroke:black;stroke-width:1" />
<polygon points= "74.2895,133.213,66.7895,120.222,81.7895,120.222" style="fill:green;stroke:black;stroke-width:1" />
<polygon points= "81.7895,120.222,74.2895,133.213,89.2895,133.213" style="fill:green;stroke:black;stroke-width:1" />
<polygon points= "89.2895,133.213,81.7895,120.222,96.7895,120.222" style="fill:green;stroke:black;stroke-width:1" />
<polygon points= "96.7895,120.222,89.2895,133.213,104.29,133.213" style="fill:green;stroke:black;stroke-width:1" />
<polygon points= "104.29,133.213,96.7895,120.222,111.79,120.222" style="fill:green;stroke:black;stroke-width:1" />
<polygon points= "111.79,120.222,104.29,133.213,119.29,133.213" style="fill:green;stroke:black;stroke-width:1" />
<polygon points= "119.29,133.213,111.79,120.222,126.79,120.222" style="fill:green;stroke:black;stroke-width:1" />
<polygon points= "126.79,120.222,119.29,133.213,134.29,133.213" style="fill:green;stroke:black;stroke-width:1" />
<polygon points= "134.29,133.213,126.79,120.222,141.79,120.222" style="fill:green;stroke:black;stroke-width:1" />
<polygon points= "141.79,120.222,134.29,133.213,149.29,133.213" style="fill:green;stroke:black;stroke-width:1" />
<polygon points= "149.29,133.213,141.79,120.222,156.79,120.222" style="fill:green;stroke:black;stroke-width:1" />
<polygon points= "156.79,120.222,149.29,133.213,164.29,133.213" style="fill:green;stroke:black;stroke-width:1" />
<polygon points= "36.7895,133.213,29.2895,146.203,44.2895,146.203" style="fill:green;stroke:black;stroke-width:1" />
<polygon points= "44.2895,146.203,36.7895,133.213,51.7895,133.213" style="fill:green;stroke:black;stroke-width:1" />
<polygon points= "51.7895,133.213,44.2895,146.203,59.2895,146.203" style="fill:green;stroke:black;stroke-width:1" />
<polygon points= "59.2895,146.203,51.7895,133.213,66.7895,133.213" style="fill:green;stroke:black;stroke-width:1" />
<polygon points= "66.7895,133.213,59.2895,146.203,74.2895,146.203" style="fill:green;stroke:black;stroke-width:1" />
<polygon points= "74.2895,146.203,66.7895,133.213,81.7895,133.213" style="fill:green;stroke:black;stroke-width:1" />
<polygon points= "81.7895,133.213,74.2895,146.203,89.2895,146.203" style="fill:green;stroke:black;stroke-width:1" />
<polygon points= "89.2895,146.203,81.7895,133.213,96.7895,133.213" style="fill:green;stroke:black;stroke-width:1" />
<polygon points= "96.7895,133.213,89.2895,146.203,104.29,146.203" style="fill:green;stroke:black;stroke-width:1" />
<polygon points= "104.29,146.203,96.7895,133.213,111.79,133.213" style="fill:green;stroke:black;stroke-width:1" />
<polygon points= "111.79,133.213,104.29,146.203,119.29,146.203" style="fill:green;stroke:black;stroke-width:1" />
<polygon points= "119.29,146.203,111.79,133.213,126.79,133.213" style="fill:green;stroke:black;stroke-width:1" />
<polygon points= "126.79,133.213,119.29,146.203,134.29,146.203" style="fill:green;stroke:black;stroke-width:1" />
<polygon points= "134.29,146.203,126.79,133.213,141.79,133.213" style="fill:green;stroke:black;stroke-width:1" />
<polygon points= "141.79,133.213,134.29,146.203,149.29,146.203" style="fill:green;stroke:black;stroke-width:1" />
<polygon points= "149.29,146.203,141.79,133.213,156.79,133.213" style="fill:green;stroke:black;stroke-width:1" />
<polygon points= "156.79,133.213,149.29,146.203,164.29,146.203" style="fill:green;stroke:black;stroke-width:1" />
<polygon points= "36.7895,146.203,29.2895,159.193,44.2895,159.193" style="fill:green;stroke:black;stroke-width:1" />
<polygon points= "44.2895,159.193,36.7895,146.203,51.7895,146.203" style="fill:green;stroke:black;stroke-width:1" />
<polygon points= "51.7895,146.203,44.2895,159.193,59.2895,159.193" style="fill:green;stroke:black;stroke-width:1" />
<polygon points= "59.2895,159.193,51.7895,146.203,66.7895,146.203" style="fill:green;stroke:black;stroke-width:1" />
<polygon points= "66.7895,146.203,59.2895,159.193,74.2895,159.193" style="fill:green;stroke:black;stroke-width:1" />
<polygon points= "74.2895,159.193,66.7895,146.203,81.7895,146.203" style="fill:green;stroke:black;stroke-width:1" />
<polygon points= "81.7895,146.203,74.2895,159.193,89.2895,159.193" style="fill:green;stroke:black;stroke-width:1" />
<polygon points= "89.2895,159.193,81.7895,146.203,96.7895,146.203" style="fill:green;stroke:black;stroke-width:1" />
<polygon points= "96.7895,146.203,89.2895,159.193,104.29,159.193" style="fill:green;stroke:black;stroke-width:1" />
<polygon points= "104.29,159.193,96.7895,146.203,111.79,146.203" style="fill:green;stroke:black;stroke-width:1" />
<polygon points= "111.79,146.203,104.29,159.193,119.29,159.193" style="fill:green;stroke:black;stroke-width:1" />
<polygon points= "119.29,159.193,111.79,146.203,126.79,146.203" style="fill:green;stroke:black;stroke-width:1" />
<polygon points= "126.79,146.203,119.29,159.193,134.29,159.193" style="fill:green;stroke:black;stroke-width:1" />
<polygon points= "134.29,159.193,126.79,146.203,141.79,146.203" style="fill:green;stroke:black;stroke-width:1" />
<polygon points= "141.79,146.203,134.29,159.193,149.29,159.193" style="fill:green;stroke:black;stroke-width:1" />
<polygon points= "149.29,159.193,141.79,146.203,156.79,146.203" style="fill:green;stroke:black;stroke-width:1" />
<polygon points= "156.79,146.203,149.29,159.193,164.29,159.193" style="fill:green;stroke:black;stroke-width:1" />
</svg>