<svg height="400" width="300">
<rect x="0" y="0" width="300" height="400"
style="fill:red;stroke:black;stroke-width:1;fill-opacity:1;stroke-opacity:0.9" />
<polygon points= "33.5,0,0,58.0237,67,58.0237" style="fill:green;stroke:black;stroke-width:1" />
<polygon points= "67,58.0237,33.5,0,100.5,0" style="fill:green;stroke:black;stroke-width:1" />
<polygon points= "100.5,0,67,58.0237,134,58.0237" style="fill:green;stroke:black;stroke-width:1" />
<polygon points= "134,58.0237,100.5,0,167.5,0" style="fill:green;stroke:black;stroke-width:1" />
<polygon points= "167.5,0,134,58.0237,201,58.0237" style="fill:green;stroke:black;stroke-width:1" />
<polygon points= "201,58.0237,167.5,0,234.5,0" style="fill:green;stroke:black;stroke-width:1" />
<polygon points= "234.5,0,201,58.0237,268,58.0237" style="fill:green;stroke:black;stroke-width:1" />
<polygon points= "33.5,58.0237,0,116.047,67,116.047" style="fill:green;stroke:black;stroke-width:1" />
<polygon points= "67,116.047,33.5,58.0237,100.5,58.0237" style="fill:green;stroke:black;stroke-width:1" />
<polygon points= "100.5,58.0237,67,116.047,134,116.047" style="fill:green;stroke:black;stroke-width:1" />
<polygon points= "134,116.047,100.5,58.0237,167.5,58.0237" style="fill:green;stroke:black;stroke-width:1" />
<polygon points= "167.5,58.0237,134,116.047,201,116.047" style="fill:green;stroke:black;stroke-width:1" />
<polygon points= "201,116.047,167.5,58.0237,234.5,58.0237" style="fill:green;stroke:black;stroke-width:1" />
<polygon points= "234.5,58.0237,201,116.047,268,116.047" style="fill:green;stroke:black;stroke-width:1" />
<polygon points= "33.5,116.047,0,174.071,67,174.071" style="fill:green;stroke:black;stroke-width:1" />
<polygon points= "67,174.071,33.5,116.047,100.5,116.047" style="fill:green;stroke:black;stroke-width:1" />
<polygon points= "100.5,116.047,67,174.071,134,174.071" style="fill:green;stroke:black;stroke-width:1" />
<polygon points= "134,174.071,100.5,116.047,167.5,116.047" style="fill:green;stroke:black;stroke-width:1" />
<polygon points= "167.5,116.047,134,174.071,201,174.071" style="fill:green;stroke:black;stroke-width:1" />
<polygon points= "201,174.071,167.5,116.047,234.5,116.047" style="fill:green;stroke:black;stroke-width:1" />
<polygon points= "234.5,116.047,201,174.071,268,174.071" style="fill:green;stroke:black;stroke-width:1" />
<polygon points= "33.5,174.071,0,232.095,67,232.095" style="fill:green;stroke:black;stroke-width:1" />
<polygon points= "67,232.095,33.5,174.071,100.5,174.071" style="fill:green;stroke:black;stroke-width:1" />
<polygon points= "100.5,174.071,67,232.095,134,232.095" style="fill:green;stroke:black;stroke-width:1" />
<polygon points= "134,232.095,100.5,174.071,167.5,174.071" style="fill:green;stroke:black;stroke-width:1" />
<polygon points= "167.5,174.071,134,232.095,201,232.095" style="fill:green;stroke:black;stroke-width:1" />
<polygon points= "201,232.095,167.5,174.071,234.5,174.071" style="fill:green;stroke:black;stroke-width:1" />
<polygon points= "234.5,174.071,201,232.095,268,232.095" style="fill:green;stroke:black;stroke-width:1" />
<polygon points= "33.5,232.095,0,290.119,67,290.119" style="fill:green;stroke:black;stroke-width:1" />
<polygon points= "67,290.119,33.5,232.095,100.5,232.095" style="fill:green;stroke:black;stroke-width:1" />
<polygon points= "100.5,232.095,67,290.119,134,290.119" style="fill:green;stroke:black;stroke-width:1" />
<polygon points= "134,290.119,100.5,232.095,167.5,232.095" style="fill:green;stroke:black;stroke-width:1" />
<polygon points= "167.5,232.095,134,290.119,201,290.119" style="fill:green;stroke:black;stroke-width:1" />
<polygon points= "201,290.119,167.5,232.095,234.5,232.095" style="fill:green;stroke:black;stroke-width:1" />
<polygon points= "234.5,232.095,201,290.119,268,290.119" style="fill:green;stroke:black;stroke-width:1" />
<polygon points= "33.5,290.119,0,348.142,67,348.142" style="fill:green;stroke:black;stroke-width:1" />
<polygon points= "67,348.142,33.5,290.119,100.5,290.119" style="fill:green;stroke:black;stroke-width:1" />
<polygon points= "100.5,290.119,67,348.142,134,348.142" style="fill:green;stroke:black;stroke-width:1" />
<polygon points= "134,348.142,100.5,290.119,167.5,290.119" style="fill:green;stroke:black;stroke-width:1" />
<polygon points= "167.5,290.119,134,348.142,201,348.142" style="fill:green;stroke:black;stroke-width:1" />
<polygon points= "201,348.142,167.5,290.119,234.5,290.119" style="fill:green;stroke:black;stroke-width:1" />
<polygon points= "234.5,290.119,201,348.142,268,348.142" style="fill:green;stroke:black;stroke-width:1" />
</svg>