<svg>
<polygon points="0,0 200,0 200,200 0,200 " style="fill:green;stroke:yellow;stroke-width:1;fill-rule:nonzero;" />
<polygon points="100,2.30908e-310 100,2.30908e-310 100,6.95271e-310 100,6.95271e-310 " style="fill:green;stroke:yellow;stroke-width:1;fill-rule:nonzero;" />
<polygon points="100,2.30908e-310 100,2.30908e-310 100,6.95271e-310 100,6.95271e-310 " style="fill:green;stroke:yellow;stroke-width:1;fill-rule:nonzero;" />
<polygon points="100,2.30908e-310 100,2.30908e-310 100,6.95271e-310 100,6.95271e-310 " style="fill:green;stroke:yellow;stroke-width:1;fill-rule:nonzero;" />
<polygon points="100,2.30908e-310 100,2.30908e-310 100,6.95271e-310 100,6.95271e-310 " style="fill:green;stroke:yellow;stroke-width:1;fill-rule:nonzero;" />
<polygon points="100,2.30908e-310 100,2.30908e-310 100,6.95271e-310 100,6.95271e-310 " style="fill:green;stroke:yellow;stroke-width:1;fill-rule:nonzero;" />
<polygon points="100,2.30908e-310 100,2.30908e-310 100,6.95271e-310 100,6.95271e-310 " style="fill:green;stroke:yellow;stroke-width:1;fill-rule:nonzero;" />
<polygon points="100,2.30908e-310 100,2.30908e-310 100,6.95271e-310 100,6.95271e-310 " style="fill:green;stroke:yellow;stroke-width:1;fill-rule:nonzero;" />
<polygon points="100,2.30908e-310 100,2.30908e-310 100,6.95271e-310 100,6.95271e-310 " style="fill:green;stroke:yellow;stroke-width:1;fill-rule:nonzero;" />
<polygon points="100,2.30908e-310 100,2.30908e-310 100,6.95271e-310 100,6.95271e-310 " style="fill:green;stroke:yellow;stroke-width:1;fill-rule:nonzero;" />
<polygon points="100,2.30908e-310 100,2.30908e-310 100,6.95271e-310 100,6.95271e-310 " style="fill:green;stroke:yellow;stroke-width:1;fill-rule:nonzero;" />
<polygon points="100,2.30908e-310 100,2.30908e-310 100,6.95271e-310 100,6.95271e-310 " style="fill:green;stroke:yellow;stroke-width:1;fill-rule:nonzero;" />
<polygon points="100,2.30908e-310 100,2.30908e-310 100,6.95271e-310 100,6.95271e-310 " style="fill:green;stroke:yellow;stroke-width:1;fill-rule:nonzero;" />
<polygon points="100,2.30908e-310 100,2.30908e-310 100,6.95271e-310 100,6.95271e-310 " style="fill:green;stroke:yellow;stroke-width:1;fill-rule:nonzero;" />
<polygon points="100,2.30908e-310 100,2.30908e-310 100,6.95271e-310 100,6.95271e-310 " style="fill:green;stroke:yellow;stroke-width:1;fill-rule:nonzero;" />
<polygon points="100,2.30908e-310 100,2.30908e-310 100,6.95271e-310 100,6.95271e-310 " style="fill:green;stroke:yellow;stroke-width:1;fill-rule:nonzero;" />
<polygon points="100,2.30908e-310 100,2.30908e-310 100,6.95271e-310 100,6.95271e-310 " style="fill:green;stroke:yellow;stroke-width:1;fill-rule:nonzero;" />
</svg>