<svg>
<polygon points="0,0 200,0 200,300 0,300 " style="fill:green;stroke:yellow;stroke-width:1;fill-rule:nonzero;" />
<polygon points="0,20.7846 12,0 24,20.7846 " style="fill:green;stroke:yellow;stroke-width:1;fill-rule:nonzero;" />
<polygon points="12,0 24,20.7846 36,0 " style="fill:green;stroke:yellow;stroke-width:1;fill-rule:nonzero;" />
<polygon points="24,20.7846 36,0 48,20.7846 " style="fill:green;stroke:yellow;stroke-width:1;fill-rule:nonzero;" />
<polygon points="36,0 48,20.7846 60,0 " style="fill:green;stroke:yellow;stroke-width:1;fill-rule:nonzero;" />
<polygon points="48,20.7846 60,0 72,20.7846 " style="fill:green;stroke:yellow;stroke-width:1;fill-rule:nonzero;" />
<polygon points="60,0 72,20.7846 84,0 " style="fill:green;stroke:yellow;stroke-width:1;fill-rule:nonzero;" />
<polygon points="72,20.7846 84,0 96,20.7846 " style="fill:green;stroke:yellow;stroke-width:1;fill-rule:nonzero;" />
<polygon points="84,0 96,20.7846 108,0 " style="fill:green;stroke:yellow;stroke-width:1;fill-rule:nonzero;" />
<polygon points="96,20.7846 108,0 120,20.7846 " style="fill:green;stroke:yellow;stroke-width:1;fill-rule:nonzero;" />
<polygon points="108,0 120,20.7846 132,0 " style="fill:green;stroke:yellow;stroke-width:1;fill-rule:nonzero;" />
<polygon points="120,20.7846 132,0 144,20.7846 " style="fill:green;stroke:yellow;stroke-width:1;fill-rule:nonzero;" />
<polygon points="132,0 144,20.7846 156,0 " style="fill:green;stroke:yellow;stroke-width:1;fill-rule:nonzero;" />
<polygon points="144,20.7846 156,0 168,20.7846 " style="fill:green;stroke:yellow;stroke-width:1;fill-rule:nonzero;" />
<polygon points="156,0 168,20.7846 180,0 " style="fill:green;stroke:yellow;stroke-width:1;fill-rule:nonzero;" />
<polygon points="168,20.7846 180,0 192,20.7846 " style="fill:green;stroke:yellow;stroke-width:1;fill-rule:nonzero;" />
<polygon points="0,41.5692 12,20.7846 24,41.5692 " style="fill:green;stroke:yellow;stroke-width:1;fill-rule:nonzero;" />
<polygon points="12,20.7846 24,41.5692 36,20.7846 " style="fill:green;stroke:yellow;stroke-width:1;fill-rule:nonzero;" />
<polygon points="24,41.5692 36,20.7846 48,41.5692 " style="fill:green;stroke:yellow;stroke-width:1;fill-rule:nonzero;" />
<polygon points="36,20.7846 48,41.5692 60,20.7846 " style="fill:green;stroke:yellow;stroke-width:1;fill-rule:nonzero;" />
<polygon points="48,41.5692 60,20.7846 72,41.5692 " style="fill:green;stroke:yellow;stroke-width:1;fill-rule:nonzero;" />
<polygon points="60,20.7846 72,41.5692 84,20.7846 " style="fill:green;stroke:yellow;stroke-width:1;fill-rule:nonzero;" />
<polygon points="72,41.5692 84,20.7846 96,41.5692 " style="fill:green;stroke:yellow;stroke-width:1;fill-rule:nonzero;" />
<polygon points="84,20.7846 96,41.5692 108,20.7846 " style="fill:green;stroke:yellow;stroke-width:1;fill-rule:nonzero;" />
<polygon points="96,41.5692 108,20.7846 120,41.5692 " style="fill:green;stroke:yellow;stroke-width:1;fill-rule:nonzero;" />
<polygon points="108,20.7846 120,41.5692 132,20.7846 " style="fill:green;stroke:yellow;stroke-width:1;fill-rule:nonzero;" />
<polygon points="120,41.5692 132,20.7846 144,41.5692 " style="fill:green;stroke:yellow;stroke-width:1;fill-rule:nonzero;" />
<polygon points="132,20.7846 144,41.5692 156,20.7846 " style="fill:green;stroke:yellow;stroke-width:1;fill-rule:nonzero;" />
<polygon points="144,41.5692 156,20.7846 168,41.5692 " style="fill:green;stroke:yellow;stroke-width:1;fill-rule:nonzero;" />
<polygon points="156,20.7846 168,41.5692 180,20.7846 " style="fill:green;stroke:yellow;stroke-width:1;fill-rule:nonzero;" />
<polygon points="168,41.5692 180,20.7846 192,41.5692 " style="fill:green;stroke:yellow;stroke-width:1;fill-rule:nonzero;" />
<polygon points="0,62.3538 12,41.5692 24,62.3538 " style="fill:green;stroke:yellow;stroke-width:1;fill-rule:nonzero;" />
<polygon points="12,41.5692 24,62.3538 36,41.5692 " style="fill:green;stroke:yellow;stroke-width:1;fill-rule:nonzero;" />
<polygon points="24,62.3538 36,41.5692 48,62.3538 " style="fill:green;stroke:yellow;stroke-width:1;fill-rule:nonzero;" />
<polygon points="36,41.5692 48,62.3538 60,41.5692 " style="fill:green;stroke:yellow;stroke-width:1;fill-rule:nonzero;" />
<polygon points="48,62.3538 60,41.5692 72,62.3538 " style="fill:green;stroke:yellow;stroke-width:1;fill-rule:nonzero;" />
<polygon points="60,41.5692 72,62.3538 84,41.5692 " style="fill:green;stroke:yellow;stroke-width:1;fill-rule:nonzero;" />
<polygon points="72,62.3538 84,41.5692 96,62.3538 " style="fill:green;stroke:yellow;stroke-width:1;fill-rule:nonzero;" />
<polygon points="84,41.5692 96,62.3538 108,41.5692 " style="fill:green;stroke:yellow;stroke-width:1;fill-rule:nonzero;" />
<polygon points="96,62.3538 108,41.5692 120,62.3538 " style="fill:green;stroke:yellow;stroke-width:1;fill-rule:nonzero;" />
<polygon points="108,41.5692 120,62.3538 132,41.5692 " style="fill:green;stroke:yellow;stroke-width:1;fill-rule:nonzero;" />
<polygon points="120,62.3538 132,41.5692 144,62.3538 " style="fill:green;stroke:yellow;stroke-width:1;fill-rule:nonzero;" />
<polygon points="132,41.5692 144,62.3538 156,41.5692 " style="fill:green;stroke:yellow;stroke-width:1;fill-rule:nonzero;" />
<polygon points="144,62.3538 156,41.5692 168,62.3538 " style="fill:green;stroke:yellow;stroke-width:1;fill-rule:nonzero;" />
<polygon points="156,41.5692 168,62.3538 180,41.5692 " style="fill:green;stroke:yellow;stroke-width:1;fill-rule:nonzero;" />
<polygon points="168,62.3538 180,41.5692 192,62.3538 " style="fill:green;stroke:yellow;stroke-width:1;fill-rule:nonzero;" />
<polygon points="0,83.1384 12,62.3538 24,83.1384 " style="fill:green;stroke:yellow;stroke-width:1;fill-rule:nonzero;" />
<polygon points="12,62.3538 24,83.1384 36,62.3538 " style="fill:green;stroke:yellow;stroke-width:1;fill-rule:nonzero;" />
<polygon points="24,83.1384 36,62.3538 48,83.1384 " style="fill:green;stroke:yellow;stroke-width:1;fill-rule:nonzero;" />
<polygon points="36,62.3538 48,83.1384 60,62.3538 " style="fill:green;stroke:yellow;stroke-width:1;fill-rule:nonzero;" />
<polygon points="48,83.1384 60,62.3538 72,83.1384 " style="fill:green;stroke:yellow;stroke-width:1;fill-rule:nonzero;" />
<polygon points="60,62.3538 72,83.1384 84,62.3538 " style="fill:green;stroke:yellow;stroke-width:1;fill-rule:nonzero;" />
<polygon points="72,83.1384 84,62.3538 96,83.1384 " style="fill:green;stroke:yellow;stroke-width:1;fill-rule:nonzero;" />
<polygon points="84,62.3538 96,83.1384 108,62.3538 " style="fill:green;stroke:yellow;stroke-width:1;fill-rule:nonzero;" />
<polygon points="96,83.1384 108,62.3538 120,83.1384 " style="fill:green;stroke:yellow;stroke-width:1;fill-rule:nonzero;" />
<polygon points="108,62.3538 120,83.1384 132,62.3538 " style="fill:green;stroke:yellow;stroke-width:1;fill-rule:nonzero;" />
<polygon points="120,83.1384 132,62.3538 144,83.1384 " style="fill:green;stroke:yellow;stroke-width:1;fill-rule:nonzero;" />
<polygon points="132,62.3538 144,83.1384 156,62.3538 " style="fill:green;stroke:yellow;stroke-width:1;fill-rule:nonzero;" />
<polygon points="144,83.1384 156,62.3538 168,83.1384 " style="fill:green;stroke:yellow;stroke-width:1;fill-rule:nonzero;" />
<polygon points="156,62.3538 168,83.1384 180,62.3538 " style="fill:green;stroke:yellow;stroke-width:1;fill-rule:nonzero;" />
<polygon points="168,83.1384 180,62.3538 192,83.1384 " style="fill:green;stroke:yellow;stroke-width:1;fill-rule:nonzero;" />
<polygon points="0,103.923 12,83.1384 24,103.923 " style="fill:green;stroke:yellow;stroke-width:1;fill-rule:nonzero;" />
<polygon points="12,83.1384 24,103.923 36,83.1384 " style="fill:green;stroke:yellow;stroke-width:1;fill-rule:nonzero;" />
<polygon points="24,103.923 36,83.1384 48,103.923 " style="fill:green;stroke:yellow;stroke-width:1;fill-rule:nonzero;" />
<polygon points="36,83.1384 48,103.923 60,83.1384 " style="fill:green;stroke:yellow;stroke-width:1;fill-rule:nonzero;" />
<polygon points="48,103.923 60,83.1384 72,103.923 " style="fill:green;stroke:yellow;stroke-width:1;fill-rule:nonzero;" />
<polygon points="60,83.1384 72,103.923 84,83.1384 " style="fill:green;stroke:yellow;stroke-width:1;fill-rule:nonzero;" />
<polygon points="72,103.923 84,83.1384 96,103.923 " style="fill:green;stroke:yellow;stroke-width:1;fill-rule:nonzero;" />
<polygon points="84,83.1384 96,103.923 108,83.1384 " style="fill:green;stroke:yellow;stroke-width:1;fill-rule:nonzero;" />
<polygon points="96,103.923 108,83.1384 120,103.923 " style="fill:green;stroke:yellow;stroke-width:1;fill-rule:nonzero;" />
<polygon points="108,83.1384 120,103.923 132,83.1384 " style="fill:green;stroke:yellow;stroke-width:1;fill-rule:nonzero;" />
<polygon points="120,103.923 132,83.1384 144,103.923 " style="fill:green;stroke:yellow;stroke-width:1;fill-rule:nonzero;" />
<polygon points="132,83.1384 144,103.923 156,83.1384 " style="fill:green;stroke:yellow;stroke-width:1;fill-rule:nonzero;" />
<polygon points="144,103.923 156,83.1384 168,103.923 " style="fill:green;stroke:yellow;stroke-width:1;fill-rule:nonzero;" />
<polygon points="156,83.1384 168,103.923 180,83.1384 " style="fill:green;stroke:yellow;stroke-width:1;fill-rule:nonzero;" />
<polygon points="168,103.923 180,83.1384 192,103.923 " style="fill:green;stroke:yellow;stroke-width:1;fill-rule:nonzero;" />
<polygon points="0,124.708 12,103.923 24,124.708 " style="fill:green;stroke:yellow;stroke-width:1;fill-rule:nonzero;" />
<polygon points="12,103.923 24,124.708 36,103.923 " style="fill:green;stroke:yellow;stroke-width:1;fill-rule:nonzero;" />
<polygon points="24,124.708 36,103.923 48,124.708 " style="fill:green;stroke:yellow;stroke-width:1;fill-rule:nonzero;" />
<polygon points="36,103.923 48,124.708 60,103.923 " style="fill:green;stroke:yellow;stroke-width:1;fill-rule:nonzero;" />
<polygon points="48,124.708 60,103.923 72,124.708 " style="fill:green;stroke:yellow;stroke-width:1;fill-rule:nonzero;" />
<polygon points="60,103.923 72,124.708 84,103.923 " style="fill:green;stroke:yellow;stroke-width:1;fill-rule:nonzero;" />
<polygon points="72,124.708 84,103.923 96,124.708 " style="fill:green;stroke:yellow;stroke-width:1;fill-rule:nonzero;" />
<polygon points="84,103.923 96,124.708 108,103.923 " style="fill:green;stroke:yellow;stroke-width:1;fill-rule:nonzero;" />
<polygon points="96,124.708 108,103.923 120,124.708 " style="fill:green;stroke:yellow;stroke-width:1;fill-rule:nonzero;" />
<polygon points="108,103.923 120,124.708 132,103.923 " style="fill:green;stroke:yellow;stroke-width:1;fill-rule:nonzero;" />
<polygon points="120,124.708 132,103.923 144,124.708 " style="fill:green;stroke:yellow;stroke-width:1;fill-rule:nonzero;" />
<polygon points="132,103.923 144,124.708 156,103.923 " style="fill:green;stroke:yellow;stroke-width:1;fill-rule:nonzero;" />
<polygon points="144,124.708 156,103.923 168,124.708 " style="fill:green;stroke:yellow;stroke-width:1;fill-rule:nonzero;" />
<polygon points="156,103.923 168,124.708 180,103.923 " style="fill:green;stroke:yellow;stroke-width:1;fill-rule:nonzero;" />
<polygon points="168,124.708 180,103.923 192,124.708 " style="fill:green;stroke:yellow;stroke-width:1;fill-rule:nonzero;" />
<polygon points="0,145.492 12,124.708 24,145.492 " style="fill:green;stroke:yellow;stroke-width:1;fill-rule:nonzero;" />
<polygon points="12,124.708 24,145.492 36,124.708 " style="fill:green;stroke:yellow;stroke-width:1;fill-rule:nonzero;" />
<polygon points="24,145.492 36,124.708 48,145.492 " style="fill:green;stroke:yellow;stroke-width:1;fill-rule:nonzero;" />
<polygon points="36,124.708 48,145.492 60,124.708 " style="fill:green;stroke:yellow;stroke-width:1;fill-rule:nonzero;" />
<polygon points="48,145.492 60,124.708 72,145.492 " style="fill:green;stroke:yellow;stroke-width:1;fill-rule:nonzero;" />
<polygon points="60,124.708 72,145.492 84,124.708 " style="fill:green;stroke:yellow;stroke-width:1;fill-rule:nonzero;" />
<polygon points="72,145.492 84,124.708 96,145.492 " style="fill:green;stroke:yellow;stroke-width:1;fill-rule:nonzero;" />
<polygon points="84,124.708 96,145.492 108,124.708 " style="fill:green;stroke:yellow;stroke-width:1;fill-rule:nonzero;" />
<polygon points="96,145.492 108,124.708 120,145.492 " style="fill:green;stroke:yellow;stroke-width:1;fill-rule:nonzero;" />
<polygon points="108,124.708 120,145.492 132,124.708 " style="fill:green;stroke:yellow;stroke-width:1;fill-rule:nonzero;" />
<polygon points="120,145.492 132,124.708 144,145.492 " style="fill:green;stroke:yellow;stroke-width:1;fill-rule:nonzero;" />
<polygon points="132,124.708 144,145.492 156,124.708 " style="fill:green;stroke:yellow;stroke-width:1;fill-rule:nonzero;" />
<polygon points="144,145.492 156,124.708 168,145.492 " style="fill:green;stroke:yellow;stroke-width:1;fill-rule:nonzero;" />
<polygon points="156,124.708 168,145.492 180,124.708 " style="fill:green;stroke:yellow;stroke-width:1;fill-rule:nonzero;" />
<polygon points="168,145.492 180,124.708 192,145.492 " style="fill:green;stroke:yellow;stroke-width:1;fill-rule:nonzero;" />
<polygon points="0,166.277 12,145.492 24,166.277 " style="fill:green;stroke:yellow;stroke-width:1;fill-rule:nonzero;" />
<polygon points="12,145.492 24,166.277 36,145.492 " style="fill:green;stroke:yellow;stroke-width:1;fill-rule:nonzero;" />
<polygon points="24,166.277 36,145.492 48,166.277 " style="fill:green;stroke:yellow;stroke-width:1;fill-rule:nonzero;" />
<polygon points="36,145.492 48,166.277 60,145.492 " style="fill:green;stroke:yellow;stroke-width:1;fill-rule:nonzero;" />
<polygon points="48,166.277 60,145.492 72,166.277 " style="fill:green;stroke:yellow;stroke-width:1;fill-rule:nonzero;" />
<polygon points="60,145.492 72,166.277 84,145.492 " style="fill:green;stroke:yellow;stroke-width:1;fill-rule:nonzero;" />
<polygon points="72,166.277 84,145.492 96,166.277 " style="fill:green;stroke:yellow;stroke-width:1;fill-rule:nonzero;" />
<polygon points="84,145.492 96,166.277 108,145.492 " style="fill:green;stroke:yellow;stroke-width:1;fill-rule:nonzero;" />
<polygon points="96,166.277 108,145.492 120,166.277 " style="fill:green;stroke:yellow;stroke-width:1;fill-rule:nonzero;" />
<polygon points="108,145.492 120,166.277 132,145.492 " style="fill:green;stroke:yellow;stroke-width:1;fill-rule:nonzero;" />
<polygon points="120,166.277 132,145.492 144,166.277 " style="fill:green;stroke:yellow;stroke-width:1;fill-rule:nonzero;" />
<polygon points="132,145.492 144,166.277 156,145.492 " style="fill:green;stroke:yellow;stroke-width:1;fill-rule:nonzero;" />
<polygon points="144,166.277 156,145.492 168,166.277 " style="fill:green;stroke:yellow;stroke-width:1;fill-rule:nonzero;" />
<polygon points="156,145.492 168,166.277 180,145.492 " style="fill:green;stroke:yellow;stroke-width:1;fill-rule:nonzero;" />
<polygon points="168,166.277 180,145.492 192,166.277 " style="fill:green;stroke:yellow;stroke-width:1;fill-rule:nonzero;" />
<polygon points="0,187.061 12,166.277 24,187.061 " style="fill:green;stroke:yellow;stroke-width:1;fill-rule:nonzero;" />
<polygon points="12,166.277 24,187.061 36,166.277 " style="fill:green;stroke:yellow;stroke-width:1;fill-rule:nonzero;" />
<polygon points="24,187.061 36,166.277 48,187.061 " style="fill:green;stroke:yellow;stroke-width:1;fill-rule:nonzero;" />
<polygon points="36,166.277 48,187.061 60,166.277 " style="fill:green;stroke:yellow;stroke-width:1;fill-rule:nonzero;" />
<polygon points="48,187.061 60,166.277 72,187.061 " style="fill:green;stroke:yellow;stroke-width:1;fill-rule:nonzero;" />
<polygon points="60,166.277 72,187.061 84,166.277 " style="fill:green;stroke:yellow;stroke-width:1;fill-rule:nonzero;" />
<polygon points="72,187.061 84,166.277 96,187.061 " style="fill:green;stroke:yellow;stroke-width:1;fill-rule:nonzero;" />
<polygon points="84,166.277 96,187.061 108,166.277 " style="fill:green;stroke:yellow;stroke-width:1;fill-rule:nonzero;" />
<polygon points="96,187.061 108,166.277 120,187.061 " style="fill:green;stroke:yellow;stroke-width:1;fill-rule:nonzero;" />
<polygon points="108,166.277 120,187.061 132,166.277 " style="fill:green;stroke:yellow;stroke-width:1;fill-rule:nonzero;" />
<polygon points="120,187.061 132,166.277 144,187.061 " style="fill:green;stroke:yellow;stroke-width:1;fill-rule:nonzero;" />
<polygon points="132,166.277 144,187.061 156,166.277 " style="fill:green;stroke:yellow;stroke-width:1;fill-rule:nonzero;" />
<polygon points="144,187.061 156,166.277 168,187.061 " style="fill:green;stroke:yellow;stroke-width:1;fill-rule:nonzero;" />
<polygon points="156,166.277 168,187.061 180,166.277 " style="fill:green;stroke:yellow;stroke-width:1;fill-rule:nonzero;" />
<polygon points="168,187.061 180,166.277 192,187.061 " style="fill:green;stroke:yellow;stroke-width:1;fill-rule:nonzero;" />
<polygon points="0,207.846 12,187.061 24,207.846 " style="fill:green;stroke:yellow;stroke-width:1;fill-rule:nonzero;" />
<polygon points="12,187.061 24,207.846 36,187.061 " style="fill:green;stroke:yellow;stroke-width:1;fill-rule:nonzero;" />
<polygon points="24,207.846 36,187.061 48,207.846 " style="fill:green;stroke:yellow;stroke-width:1;fill-rule:nonzero;" />
<polygon points="36,187.061 48,207.846 60,187.061 " style="fill:green;stroke:yellow;stroke-width:1;fill-rule:nonzero;" />
<polygon points="48,207.846 60,187.061 72,207.846 " style="fill:green;stroke:yellow;stroke-width:1;fill-rule:nonzero;" />
<polygon points="60,187.061 72,207.846 84,187.061 " style="fill:green;stroke:yellow;stroke-width:1;fill-rule:nonzero;" />
<polygon points="72,207.846 84,187.061 96,207.846 " style="fill:green;stroke:yellow;stroke-width:1;fill-rule:nonzero;" />
<polygon points="84,187.061 96,207.846 108,187.061 " style="fill:green;stroke:yellow;stroke-width:1;fill-rule:nonzero;" />
<polygon points="96,207.846 108,187.061 120,207.846 " style="fill:green;stroke:yellow;stroke-width:1;fill-rule:nonzero;" />
<polygon points="108,187.061 120,207.846 132,187.061 " style="fill:green;stroke:yellow;stroke-width:1;fill-rule:nonzero;" />
<polygon points="120,207.846 132,187.061 144,207.846 " style="fill:green;stroke:yellow;stroke-width:1;fill-rule:nonzero;" />
<polygon points="132,187.061 144,207.846 156,187.061 " style="fill:green;stroke:yellow;stroke-width:1;fill-rule:nonzero;" />
<polygon points="144,207.846 156,187.061 168,207.846 " style="fill:green;stroke:yellow;stroke-width:1;fill-rule:nonzero;" />
<polygon points="156,187.061 168,207.846 180,187.061 " style="fill:green;stroke:yellow;stroke-width:1;fill-rule:nonzero;" />
<polygon points="168,207.846 180,187.061 192,207.846 " style="fill:green;stroke:yellow;stroke-width:1;fill-rule:nonzero;" />
<polygon points="0,228.631 12,207.846 24,228.631 " style="fill:green;stroke:yellow;stroke-width:1;fill-rule:nonzero;" />
<polygon points="12,207.846 24,228.631 36,207.846 " style="fill:green;stroke:yellow;stroke-width:1;fill-rule:nonzero;" />
<polygon points="24,228.631 36,207.846 48,228.631 " style="fill:green;stroke:yellow;stroke-width:1;fill-rule:nonzero;" />
<polygon points="36,207.846 48,228.631 60,207.846 " style="fill:green;stroke:yellow;stroke-width:1;fill-rule:nonzero;" />
<polygon points="48,228.631 60,207.846 72,228.631 " style="fill:green;stroke:yellow;stroke-width:1;fill-rule:nonzero;" />
<polygon points="60,207.846 72,228.631 84,207.846 " style="fill:green;stroke:yellow;stroke-width:1;fill-rule:nonzero;" />
<polygon points="72,228.631 84,207.846 96,228.631 " style="fill:green;stroke:yellow;stroke-width:1;fill-rule:nonzero;" />
<polygon points="84,207.846 96,228.631 108,207.846 " style="fill:green;stroke:yellow;stroke-width:1;fill-rule:nonzero;" />
<polygon points="96,228.631 108,207.846 120,228.631 " style="fill:green;stroke:yellow;stroke-width:1;fill-rule:nonzero;" />
<polygon points="108,207.846 120,228.631 132,207.846 " style="fill:green;stroke:yellow;stroke-width:1;fill-rule:nonzero;" />
<polygon points="120,228.631 132,207.846 144,228.631 " style="fill:green;stroke:yellow;stroke-width:1;fill-rule:nonzero;" />
<polygon points="132,207.846 144,228.631 156,207.846 " style="fill:green;stroke:yellow;stroke-width:1;fill-rule:nonzero;" />
<polygon points="144,228.631 156,207.846 168,228.631 " style="fill:green;stroke:yellow;stroke-width:1;fill-rule:nonzero;" />
<polygon points="156,207.846 168,228.631 180,207.846 " style="fill:green;stroke:yellow;stroke-width:1;fill-rule:nonzero;" />
<polygon points="168,228.631 180,207.846 192,228.631 " style="fill:green;stroke:yellow;stroke-width:1;fill-rule:nonzero;" />
<polygon points="0,249.415 12,228.631 24,249.415 " style="fill:green;stroke:yellow;stroke-width:1;fill-rule:nonzero;" />
<polygon points="12,228.631 24,249.415 36,228.631 " style="fill:green;stroke:yellow;stroke-width:1;fill-rule:nonzero;" />
<polygon points="24,249.415 36,228.631 48,249.415 " style="fill:green;stroke:yellow;stroke-width:1;fill-rule:nonzero;" />
<polygon points="36,228.631 48,249.415 60,228.631 " style="fill:green;stroke:yellow;stroke-width:1;fill-rule:nonzero;" />
<polygon points="48,249.415 60,228.631 72,249.415 " style="fill:green;stroke:yellow;stroke-width:1;fill-rule:nonzero;" />
<polygon points="60,228.631 72,249.415 84,228.631 " style="fill:green;stroke:yellow;stroke-width:1;fill-rule:nonzero;" />
<polygon points="72,249.415 84,228.631 96,249.415 " style="fill:green;stroke:yellow;stroke-width:1;fill-rule:nonzero;" />
<polygon points="84,228.631 96,249.415 108,228.631 " style="fill:green;stroke:yellow;stroke-width:1;fill-rule:nonzero;" />
<polygon points="96,249.415 108,228.631 120,249.415 " style="fill:green;stroke:yellow;stroke-width:1;fill-rule:nonzero;" />
<polygon points="108,228.631 120,249.415 132,228.631 " style="fill:green;stroke:yellow;stroke-width:1;fill-rule:nonzero;" />
<polygon points="120,249.415 132,228.631 144,249.415 " style="fill:green;stroke:yellow;stroke-width:1;fill-rule:nonzero;" />
<polygon points="132,228.631 144,249.415 156,228.631 " style="fill:green;stroke:yellow;stroke-width:1;fill-rule:nonzero;" />
<polygon points="144,249.415 156,228.631 168,249.415 " style="fill:green;stroke:yellow;stroke-width:1;fill-rule:nonzero;" />
<polygon points="156,228.631 168,249.415 180,228.631 " style="fill:green;stroke:yellow;stroke-width:1;fill-rule:nonzero;" />
<polygon points="168,249.415 180,228.631 192,249.415 " style="fill:green;stroke:yellow;stroke-width:1;fill-rule:nonzero;" />
<polygon points="0,270.2 12,249.415 24,270.2 " style="fill:green;stroke:yellow;stroke-width:1;fill-rule:nonzero;" />
<polygon points="12,249.415 24,270.2 36,249.415 " style="fill:green;stroke:yellow;stroke-width:1;fill-rule:nonzero;" />
<polygon points="24,270.2 36,249.415 48,270.2 " style="fill:green;stroke:yellow;stroke-width:1;fill-rule:nonzero;" />
<polygon points="36,249.415 48,270.2 60,249.415 " style="fill:green;stroke:yellow;stroke-width:1;fill-rule:nonzero;" />
<polygon points="48,270.2 60,249.415 72,270.2 " style="fill:green;stroke:yellow;stroke-width:1;fill-rule:nonzero;" />
<polygon points="60,249.415 72,270.2 84,249.415 " style="fill:green;stroke:yellow;stroke-width:1;fill-rule:nonzero;" />
<polygon points="72,270.2 84,249.415 96,270.2 " style="fill:green;stroke:yellow;stroke-width:1;fill-rule:nonzero;" />
<polygon points="84,249.415 96,270.2 108,249.415 " style="fill:green;stroke:yellow;stroke-width:1;fill-rule:nonzero;" />
<polygon points="96,270.2 108,249.415 120,270.2 " style="fill:green;stroke:yellow;stroke-width:1;fill-rule:nonzero;" />
<polygon points="108,249.415 120,270.2 132,249.415 " style="fill:green;stroke:yellow;stroke-width:1;fill-rule:nonzero;" />
<polygon points="120,270.2 132,249.415 144,270.2 " style="fill:green;stroke:yellow;stroke-width:1;fill-rule:nonzero;" />
<polygon points="132,249.415 144,270.2 156,249.415 " style="fill:green;stroke:yellow;stroke-width:1;fill-rule:nonzero;" />
<polygon points="144,270.2 156,249.415 168,270.2 " style="fill:green;stroke:yellow;stroke-width:1;fill-rule:nonzero;" />
<polygon points="156,249.415 168,270.2 180,249.415 " style="fill:green;stroke:yellow;stroke-width:1;fill-rule:nonzero;" />
<polygon points="168,270.2 180,249.415 192,270.2 " style="fill:green;stroke:yellow;stroke-width:1;fill-rule:nonzero;" />
<polygon points="0,290.985 12,270.2 24,290.985 " style="fill:green;stroke:yellow;stroke-width:1;fill-rule:nonzero;" />
<polygon points="12,270.2 24,290.985 36,270.2 " style="fill:green;stroke:yellow;stroke-width:1;fill-rule:nonzero;" />
<polygon points="24,290.985 36,270.2 48,290.985 " style="fill:green;stroke:yellow;stroke-width:1;fill-rule:nonzero;" />
<polygon points="36,270.2 48,290.985 60,270.2 " style="fill:green;stroke:yellow;stroke-width:1;fill-rule:nonzero;" />
<polygon points="48,290.985 60,270.2 72,290.985 " style="fill:green;stroke:yellow;stroke-width:1;fill-rule:nonzero;" />
<polygon points="60,270.2 72,290.985 84,270.2 " style="fill:green;stroke:yellow;stroke-width:1;fill-rule:nonzero;" />
<polygon points="72,290.985 84,270.2 96,290.985 " style="fill:green;stroke:yellow;stroke-width:1;fill-rule:nonzero;" />
<polygon points="84,270.2 96,290.985 108,270.2 " style="fill:green;stroke:yellow;stroke-width:1;fill-rule:nonzero;" />
<polygon points="96,290.985 108,270.2 120,290.985 " style="fill:green;stroke:yellow;stroke-width:1;fill-rule:nonzero;" />
<polygon points="108,270.2 120,290.985 132,270.2 " style="fill:green;stroke:yellow;stroke-width:1;fill-rule:nonzero;" />
<polygon points="120,290.985 132,270.2 144,290.985 " style="fill:green;stroke:yellow;stroke-width:1;fill-rule:nonzero;" />
<polygon points="132,270.2 144,290.985 156,270.2 " style="fill:green;stroke:yellow;stroke-width:1;fill-rule:nonzero;" />
<polygon points="144,290.985 156,270.2 168,290.985 " style="fill:green;stroke:yellow;stroke-width:1;fill-rule:nonzero;" />
<polygon points="156,270.2 168,290.985 180,270.2 " style="fill:green;stroke:yellow;stroke-width:1;fill-rule:nonzero;" />
<polygon points="168,290.985 180,270.2 192,290.985 " style="fill:green;stroke:yellow;stroke-width:1;fill-rule:nonzero;" />
</svg>