<svg>
<polygon points="0,200 0.394654,187.442 1.57706,174.933 3.54255,162.524 6.28337,150.262 9.7887,138.197 14.0447,126.375 19.0346,114.844 24.7387,103.649 31.1344,92.8346 38.1966,82.4429 45.8974,72.5152 54.2063,63.0906 63.0906,54.2063 72.5152,45.8974 82.4429,38.1966 92.8346,31.1344 103.649,24.7387 114.844,19.0346 126.375,14.0447 138.197,9.7887 150.262,6.28337 162.524,3.54255 174.933,1.57706 187.442,0.394654 200,0 212.558,0.394654 225.067,1.57706 237.476,3.54255 249.738,6.28337 261.803,9.7887 273.625,14.0447 285.156,19.0346 296.351,24.7387 307.165,31.1344 317.557,38.1966 327.485,45.8974 336.909,54.2063 345.794,63.0906 354.103,72.5152 361.803,82.4429 368.866,92.8346 375.261,103.649 380.965,114.844 385.955,126.375 390.211,138.197 393.717,150.262 396.457,162.524 398.423,174.933 399.605,187.442 400,200 399.605,212.558 398.423,225.067 396.457,237.476 393.717,249.738 390.211,261.803 385.955,273.625 380.965,285.156 375.261,296.351 368.866,307.165 361.803,317.557 354.103,327.485 345.794,336.909 336.909,345.794 327.485,354.103 317.557,361.803 307.165,368.866 296.351,375.261 285.156,380.965 273.625,385.955 261.803,390.211 249.738,393.717 237.476,396.457 225.067,398.423 212.558,399.605 200,400 187.442,399.605 174.933,398.423 162.524,396.457 150.262,393.717 138.197,390.211 126.375,385.955 114.844,380.965 103.649,375.261 92.8346,368.866 82.4429,361.803 72.5152,354.103 63.0906,345.794 54.2063,336.909 45.8974,327.485 38.1966,317.557 31.1344,307.165 24.7387,296.351 19.0346,285.156 14.0447,273.625 9.7887,261.803 6.28337,249.738 3.54255,237.476 1.57706,225.067 0.394654,212.558 " style="fill:green;stroke:yellow;stroke-width:1;fill-rule:nonzero;" />
<polygon points="58.5783,58.5783 82.5783,58.5783 82.5783,75.5783 58.5783,75.5783 " style="fill:green;stroke:yellow;stroke-width:1;fill-rule:nonzero;" />
<polygon points="82.5783,58.5783 106.578,58.5783 106.578,75.5783 82.5783,75.5783 " style="fill:green;stroke:yellow;stroke-width:1;fill-rule:nonzero;" />
<polygon points="106.578,58.5783 130.578,58.5783 130.578,75.5783 106.578,75.5783 " style="fill:green;stroke:yellow;stroke-width:1;fill-rule:nonzero;" />
<polygon points="130.578,58.5783 154.578,58.5783 154.578,75.5783 130.578,75.5783 " style="fill:green;stroke:yellow;stroke-width:1;fill-rule:nonzero;" />
<polygon points="154.578,58.5783 178.578,58.5783 178.578,75.5783 154.578,75.5783 " style="fill:green;stroke:yellow;stroke-width:1;fill-rule:nonzero;" />
<polygon points="178.578,58.5783 202.578,58.5783 202.578,75.5783 178.578,75.5783 " style="fill:green;stroke:yellow;stroke-width:1;fill-rule:nonzero;" />
<polygon points="202.578,58.5783 226.578,58.5783 226.578,75.5783 202.578,75.5783 " style="fill:green;stroke:yellow;stroke-width:1;fill-rule:nonzero;" />
<polygon points="226.578,58.5783 250.578,58.5783 250.578,75.5783 226.578,75.5783 " style="fill:green;stroke:yellow;stroke-width:1;fill-rule:nonzero;" />
<polygon points="250.578,58.5783 274.578,58.5783 274.578,75.5783 250.578,75.5783 " style="fill:green;stroke:yellow;stroke-width:1;fill-rule:nonzero;" />
<polygon points="274.578,58.5783 298.578,58.5783 298.578,75.5783 274.578,75.5783 " style="fill:green;stroke:yellow;stroke-width:1;fill-rule:nonzero;" />
<polygon points="298.578,58.5783 322.578,58.5783 322.578,75.5783 298.578,75.5783 " style="fill:green;stroke:yellow;stroke-width:1;fill-rule:nonzero;" />
<polygon points="58.5783,75.5783 82.5783,75.5783 82.5783,92.5783 58.5783,92.5783 " style="fill:green;stroke:yellow;stroke-width:1;fill-rule:nonzero;" />
<polygon points="82.5783,75.5783 106.578,75.5783 106.578,92.5783 82.5783,92.5783 " style="fill:green;stroke:yellow;stroke-width:1;fill-rule:nonzero;" />
<polygon points="106.578,75.5783 130.578,75.5783 130.578,92.5783 106.578,92.5783 " style="fill:green;stroke:yellow;stroke-width:1;fill-rule:nonzero;" />
<polygon points="130.578,75.5783 154.578,75.5783 154.578,92.5783 130.578,92.5783 " style="fill:green;stroke:yellow;stroke-width:1;fill-rule:nonzero;" />
<polygon points="154.578,75.5783 178.578,75.5783 178.578,92.5783 154.578,92.5783 " style="fill:green;stroke:yellow;stroke-width:1;fill-rule:nonzero;" />
<polygon points="178.578,75.5783 202.578,75.5783 202.578,92.5783 178.578,92.5783 " style="fill:green;stroke:yellow;stroke-width:1;fill-rule:nonzero;" />
<polygon points="202.578,75.5783 226.578,75.5783 226.578,92.5783 202.578,92.5783 " style="fill:green;stroke:yellow;stroke-width:1;fill-rule:nonzero;" />
<polygon points="226.578,75.5783 250.578,75.5783 250.578,92.5783 226.578,92.5783 " style="fill:green;stroke:yellow;stroke-width:1;fill-rule:nonzero;" />
<polygon points="250.578,75.5783 274.578,75.5783 274.578,92.5783 250.578,92.5783 " style="fill:green;stroke:yellow;stroke-width:1;fill-rule:nonzero;" />
<polygon points="274.578,75.5783 298.578,75.5783 298.578,92.5783 274.578,92.5783 " style="fill:green;stroke:yellow;stroke-width:1;fill-rule:nonzero;" />
<polygon points="298.578,75.5783 322.578,75.5783 322.578,92.5783 298.578,92.5783 " style="fill:green;stroke:yellow;stroke-width:1;fill-rule:nonzero;" />
<polygon points="58.5783,92.5783 82.5783,92.5783 82.5783,109.578 58.5783,109.578 " style="fill:green;stroke:yellow;stroke-width:1;fill-rule:nonzero;" />
<polygon points="82.5783,92.5783 106.578,92.5783 106.578,109.578 82.5783,109.578 " style="fill:green;stroke:yellow;stroke-width:1;fill-rule:nonzero;" />
<polygon points="106.578,92.5783 130.578,92.5783 130.578,109.578 106.578,109.578 " style="fill:green;stroke:yellow;stroke-width:1;fill-rule:nonzero;" />
<polygon points="130.578,92.5783 154.578,92.5783 154.578,109.578 130.578,109.578 " style="fill:green;stroke:yellow;stroke-width:1;fill-rule:nonzero;" />
<polygon points="154.578,92.5783 178.578,92.5783 178.578,109.578 154.578,109.578 " style="fill:green;stroke:yellow;stroke-width:1;fill-rule:nonzero;" />
<polygon points="178.578,92.5783 202.578,92.5783 202.578,109.578 178.578,109.578 " style="fill:green;stroke:yellow;stroke-width:1;fill-rule:nonzero;" />
<polygon points="202.578,92.5783 226.578,92.5783 226.578,109.578 202.578,109.578 " style="fill:green;stroke:yellow;stroke-width:1;fill-rule:nonzero;" />
<polygon points="226.578,92.5783 250.578,92.5783 250.578,109.578 226.578,109.578 " style="fill:green;stroke:yellow;stroke-width:1;fill-rule:nonzero;" />
<polygon points="250.578,92.5783 274.578,92.5783 274.578,109.578 250.578,109.578 " style="fill:green;stroke:yellow;stroke-width:1;fill-rule:nonzero;" />
<polygon points="274.578,92.5783 298.578,92.5783 298.578,109.578 274.578,109.578 " style="fill:green;stroke:yellow;stroke-width:1;fill-rule:nonzero;" />
<polygon points="298.578,92.5783 322.578,92.5783 322.578,109.578 298.578,109.578 " style="fill:green;stroke:yellow;stroke-width:1;fill-rule:nonzero;" />
<polygon points="58.5783,109.578 82.5783,109.578 82.5783,126.578 58.5783,126.578 " style="fill:green;stroke:yellow;stroke-width:1;fill-rule:nonzero;" />
<polygon points="82.5783,109.578 106.578,109.578 106.578,126.578 82.5783,126.578 " style="fill:green;stroke:yellow;stroke-width:1;fill-rule:nonzero;" />
<polygon points="106.578,109.578 130.578,109.578 130.578,126.578 106.578,126.578 " style="fill:green;stroke:yellow;stroke-width:1;fill-rule:nonzero;" />
<polygon points="130.578,109.578 154.578,109.578 154.578,126.578 130.578,126.578 " style="fill:green;stroke:yellow;stroke-width:1;fill-rule:nonzero;" />
<polygon points="154.578,109.578 178.578,109.578 178.578,126.578 154.578,126.578 " style="fill:green;stroke:yellow;stroke-width:1;fill-rule:nonzero;" />
<polygon points="178.578,109.578 202.578,109.578 202.578,126.578 178.578,126.578 " style="fill:green;stroke:yellow;stroke-width:1;fill-rule:nonzero;" />
<polygon points="202.578,109.578 226.578,109.578 226.578,126.578 202.578,126.578 " style="fill:green;stroke:yellow;stroke-width:1;fill-rule:nonzero;" />
<polygon points="226.578,109.578 250.578,109.578 250.578,126.578 226.578,126.578 " style="fill:green;stroke:yellow;stroke-width:1;fill-rule:nonzero;" />
<polygon points="250.578,109.578 274.578,109.578 274.578,126.578 250.578,126.578 " style="fill:green;stroke:yellow;stroke-width:1;fill-rule:nonzero;" />
<polygon points="274.578,109.578 298.578,109.578 298.578,126.578 274.578,126.578 " style="fill:green;stroke:yellow;stroke-width:1;fill-rule:nonzero;" />
<polygon points="298.578,109.578 322.578,109.578 322.578,126.578 298.578,126.578 " style="fill:green;stroke:yellow;stroke-width:1;fill-rule:nonzero;" />
<polygon points="58.5783,126.578 82.5783,126.578 82.5783,143.578 58.5783,143.578 " style="fill:green;stroke:yellow;stroke-width:1;fill-rule:nonzero;" />
<polygon points="82.5783,126.578 106.578,126.578 106.578,143.578 82.5783,143.578 " style="fill:green;stroke:yellow;stroke-width:1;fill-rule:nonzero;" />
<polygon points="106.578,126.578 130.578,126.578 130.578,143.578 106.578,143.578 " style="fill:green;stroke:yellow;stroke-width:1;fill-rule:nonzero;" />
<polygon points="130.578,126.578 154.578,126.578 154.578,143.578 130.578,143.578 " style="fill:green;stroke:yellow;stroke-width:1;fill-rule:nonzero;" />
<polygon points="154.578,126.578 178.578,126.578 178.578,143.578 154.578,143.578 " style="fill:green;stroke:yellow;stroke-width:1;fill-rule:nonzero;" />
<polygon points="178.578,126.578 202.578,126.578 202.578,143.578 178.578,143.578 " style="fill:green;stroke:yellow;stroke-width:1;fill-rule:nonzero;" />
<polygon points="202.578,126.578 226.578,126.578 226.578,143.578 202.578,143.578 " style="fill:green;stroke:yellow;stroke-width:1;fill-rule:nonzero;" />
<polygon points="226.578,126.578 250.578,126.578 250.578,143.578 226.578,143.578 " style="fill:green;stroke:yellow;stroke-width:1;fill-rule:nonzero;" />
<polygon points="250.578,126.578 274.578,126.578 274.578,143.578 250.578,143.578 " style="fill:green;stroke:yellow;stroke-width:1;fill-rule:nonzero;" />
<polygon points="274.578,126.578 298.578,126.578 298.578,143.578 274.578,143.578 " style="fill:green;stroke:yellow;stroke-width:1;fill-rule:nonzero;" />
<polygon points="298.578,126.578 322.578,126.578 322.578,143.578 298.578,143.578 " style="fill:green;stroke:yellow;stroke-width:1;fill-rule:nonzero;" />
<polygon points="58.5783,143.578 82.5783,143.578 82.5783,160.578 58.5783,160.578 " style="fill:green;stroke:yellow;stroke-width:1;fill-rule:nonzero;" />
<polygon points="82.5783,143.578 106.578,143.578 106.578,160.578 82.5783,160.578 " style="fill:green;stroke:yellow;stroke-width:1;fill-rule:nonzero;" />
<polygon points="106.578,143.578 130.578,143.578 130.578,160.578 106.578,160.578 " style="fill:green;stroke:yellow;stroke-width:1;fill-rule:nonzero;" />
<polygon points="130.578,143.578 154.578,143.578 154.578,160.578 130.578,160.578 " style="fill:green;stroke:yellow;stroke-width:1;fill-rule:nonzero;" />
<polygon points="154.578,143.578 178.578,143.578 178.578,160.578 154.578,160.578 " style="fill:green;stroke:yellow;stroke-width:1;fill-rule:nonzero;" />
<polygon points="178.578,143.578 202.578,143.578 202.578,160.578 178.578,160.578 " style="fill:green;stroke:yellow;stroke-width:1;fill-rule:nonzero;" />
<polygon points="202.578,143.578 226.578,143.578 226.578,160.578 202.578,160.578 " style="fill:green;stroke:yellow;stroke-width:1;fill-rule:nonzero;" />
<polygon points="226.578,143.578 250.578,143.578 250.578,160.578 226.578,160.578 " style="fill:green;stroke:yellow;stroke-width:1;fill-rule:nonzero;" />
<polygon points="250.578,143.578 274.578,143.578 274.578,160.578 250.578,160.578 " style="fill:green;stroke:yellow;stroke-width:1;fill-rule:nonzero;" />
<polygon points="274.578,143.578 298.578,143.578 298.578,160.578 274.578,160.578 " style="fill:green;stroke:yellow;stroke-width:1;fill-rule:nonzero;" />
<polygon points="298.578,143.578 322.578,143.578 322.578,160.578 298.578,160.578 " style="fill:green;stroke:yellow;stroke-width:1;fill-rule:nonzero;" />
<polygon points="58.5783,160.578 82.5783,160.578 82.5783,177.578 58.5783,177.578 " style="fill:green;stroke:yellow;stroke-width:1;fill-rule:nonzero;" />
<polygon points="82.5783,160.578 106.578,160.578 106.578,177.578 82.5783,177.578 " style="fill:green;stroke:yellow;stroke-width:1;fill-rule:nonzero;" />
<polygon points="106.578,160.578 130.578,160.578 130.578,177.578 106.578,177.578 " style="fill:green;stroke:yellow;stroke-width:1;fill-rule:nonzero;" />
<polygon points="130.578,160.578 154.578,160.578 154.578,177.578 130.578,177.578 " style="fill:green;stroke:yellow;stroke-width:1;fill-rule:nonzero;" />
<polygon points="154.578,160.578 178.578,160.578 178.578,177.578 154.578,177.578 " style="fill:green;stroke:yellow;stroke-width:1;fill-rule:nonzero;" />
<polygon points="178.578,160.578 202.578,160.578 202.578,177.578 178.578,177.578 " style="fill:green;stroke:yellow;stroke-width:1;fill-rule:nonzero;" />
<polygon points="202.578,160.578 226.578,160.578 226.578,177.578 202.578,177.578 " style="fill:green;stroke:yellow;stroke-width:1;fill-rule:nonzero;" />
<polygon points="226.578,160.578 250.578,160.578 250.578,177.578 226.578,177.578 " style="fill:green;stroke:yellow;stroke-width:1;fill-rule:nonzero;" />
<polygon points="250.578,160.578 274.578,160.578 274.578,177.578 250.578,177.578 " style="fill:green;stroke:yellow;stroke-width:1;fill-rule:nonzero;" />
<polygon points="274.578,160.578 298.578,160.578 298.578,177.578 274.578,177.578 " style="fill:green;stroke:yellow;stroke-width:1;fill-rule:nonzero;" />
<polygon points="298.578,160.578 322.578,160.578 322.578,177.578 298.578,177.578 " style="fill:green;stroke:yellow;stroke-width:1;fill-rule:nonzero;" />
<polygon points="58.5783,177.578 82.5783,177.578 82.5783,194.578 58.5783,194.578 " style="fill:green;stroke:yellow;stroke-width:1;fill-rule:nonzero;" />
<polygon points="82.5783,177.578 106.578,177.578 106.578,194.578 82.5783,194.578 " style="fill:green;stroke:yellow;stroke-width:1;fill-rule:nonzero;" />
<polygon points="106.578,177.578 130.578,177.578 130.578,194.578 106.578,194.578 " style="fill:green;stroke:yellow;stroke-width:1;fill-rule:nonzero;" />
<polygon points="130.578,177.578 154.578,177.578 154.578,194.578 130.578,194.578 " style="fill:green;stroke:yellow;stroke-width:1;fill-rule:nonzero;" />
<polygon points="154.578,177.578 178.578,177.578 178.578,194.578 154.578,194.578 " style="fill:green;stroke:yellow;stroke-width:1;fill-rule:nonzero;" />
<polygon points="178.578,177.578 202.578,177.578 202.578,194.578 178.578,194.578 " style="fill:green;stroke:yellow;stroke-width:1;fill-rule:nonzero;" />
<polygon points="202.578,177.578 226.578,177.578 226.578,194.578 202.578,194.578 " style="fill:green;stroke:yellow;stroke-width:1;fill-rule:nonzero;" />
<polygon points="226.578,177.578 250.578,177.578 250.578,194.578 226.578,194.578 " style="fill:green;stroke:yellow;stroke-width:1;fill-rule:nonzero;" />
<polygon points="250.578,177.578 274.578,177.578 274.578,194.578 250.578,194.578 " style="fill:green;stroke:yellow;stroke-width:1;fill-rule:nonzero;" />
<polygon points="274.578,177.578 298.578,177.578 298.578,194.578 274.578,194.578 " style="fill:green;stroke:yellow;stroke-width:1;fill-rule:nonzero;" />
<polygon points="298.578,177.578 322.578,177.578 322.578,194.578 298.578,194.578 " style="fill:green;stroke:yellow;stroke-width:1;fill-rule:nonzero;" />
<polygon points="58.5783,194.578 82.5783,194.578 82.5783,211.578 58.5783,211.578 " style="fill:green;stroke:yellow;stroke-width:1;fill-rule:nonzero;" />
<polygon points="82.5783,194.578 106.578,194.578 106.578,211.578 82.5783,211.578 " style="fill:green;stroke:yellow;stroke-width:1;fill-rule:nonzero;" />
<polygon points="106.578,194.578 130.578,194.578 130.578,211.578 106.578,211.578 " style="fill:green;stroke:yellow;stroke-width:1;fill-rule:nonzero;" />
<polygon points="130.578,194.578 154.578,194.578 154.578,211.578 130.578,211.578 " style="fill:green;stroke:yellow;stroke-width:1;fill-rule:nonzero;" />
<polygon points="154.578,194.578 178.578,194.578 178.578,211.578 154.578,211.578 " style="fill:green;stroke:yellow;stroke-width:1;fill-rule:nonzero;" />
<polygon points="178.578,194.578 202.578,194.578 202.578,211.578 178.578,211.578 " style="fill:green;stroke:yellow;stroke-width:1;fill-rule:nonzero;" />
<polygon points="202.578,194.578 226.578,194.578 226.578,211.578 202.578,211.578 " style="fill:green;stroke:yellow;stroke-width:1;fill-rule:nonzero;" />
<polygon points="226.578,194.578 250.578,194.578 250.578,211.578 226.578,211.578 " style="fill:green;stroke:yellow;stroke-width:1;fill-rule:nonzero;" />
<polygon points="250.578,194.578 274.578,194.578 274.578,211.578 250.578,211.578 " style="fill:green;stroke:yellow;stroke-width:1;fill-rule:nonzero;" />
<polygon points="274.578,194.578 298.578,194.578 298.578,211.578 274.578,211.578 " style="fill:green;stroke:yellow;stroke-width:1;fill-rule:nonzero;" />
<polygon points="298.578,194.578 322.578,194.578 322.578,211.578 298.578,211.578 " style="fill:green;stroke:yellow;stroke-width:1;fill-rule:nonzero;" />
<polygon points="58.5783,211.578 82.5783,211.578 82.5783,228.578 58.5783,228.578 " style="fill:green;stroke:yellow;stroke-width:1;fill-rule:nonzero;" />
<polygon points="82.5783,211.578 106.578,211.578 106.578,228.578 82.5783,228.578 " style="fill:green;stroke:yellow;stroke-width:1;fill-rule:nonzero;" />
<polygon points="106.578,211.578 130.578,211.578 130.578,228.578 106.578,228.578 " style="fill:green;stroke:yellow;stroke-width:1;fill-rule:nonzero;" />
<polygon points="130.578,211.578 154.578,211.578 154.578,228.578 130.578,228.578 " style="fill:green;stroke:yellow;stroke-width:1;fill-rule:nonzero;" />
<polygon points="154.578,211.578 178.578,211.578 178.578,228.578 154.578,228.578 " style="fill:green;stroke:yellow;stroke-width:1;fill-rule:nonzero;" />
<polygon points="178.578,211.578 202.578,211.578 202.578,228.578 178.578,228.578 " style="fill:green;stroke:yellow;stroke-width:1;fill-rule:nonzero;" />
<polygon points="202.578,211.578 226.578,211.578 226.578,228.578 202.578,228.578 " style="fill:green;stroke:yellow;stroke-width:1;fill-rule:nonzero;" />
<polygon points="226.578,211.578 250.578,211.578 250.578,228.578 226.578,228.578 " style="fill:green;stroke:yellow;stroke-width:1;fill-rule:nonzero;" />
<polygon points="250.578,211.578 274.578,211.578 274.578,228.578 250.578,228.578 " style="fill:green;stroke:yellow;stroke-width:1;fill-rule:nonzero;" />
<polygon points="274.578,211.578 298.578,211.578 298.578,228.578 274.578,228.578 " style="fill:green;stroke:yellow;stroke-width:1;fill-rule:nonzero;" />
<polygon points="298.578,211.578 322.578,211.578 322.578,228.578 298.578,228.578 " style="fill:green;stroke:yellow;stroke-width:1;fill-rule:nonzero;" />
<polygon points="58.5783,228.578 82.5783,228.578 82.5783,245.578 58.5783,245.578 " style="fill:green;stroke:yellow;stroke-width:1;fill-rule:nonzero;" />
<polygon points="82.5783,228.578 106.578,228.578 106.578,245.578 82.5783,245.578 " style="fill:green;stroke:yellow;stroke-width:1;fill-rule:nonzero;" />
<polygon points="106.578,228.578 130.578,228.578 130.578,245.578 106.578,245.578 " style="fill:green;stroke:yellow;stroke-width:1;fill-rule:nonzero;" />
<polygon points="130.578,228.578 154.578,228.578 154.578,245.578 130.578,245.578 " style="fill:green;stroke:yellow;stroke-width:1;fill-rule:nonzero;" />
<polygon points="154.578,228.578 178.578,228.578 178.578,245.578 154.578,245.578 " style="fill:green;stroke:yellow;stroke-width:1;fill-rule:nonzero;" />
<polygon points="178.578,228.578 202.578,228.578 202.578,245.578 178.578,245.578 " style="fill:green;stroke:yellow;stroke-width:1;fill-rule:nonzero;" />
<polygon points="202.578,228.578 226.578,228.578 226.578,245.578 202.578,245.578 " style="fill:green;stroke:yellow;stroke-width:1;fill-rule:nonzero;" />
<polygon points="226.578,228.578 250.578,228.578 250.578,245.578 226.578,245.578 " style="fill:green;stroke:yellow;stroke-width:1;fill-rule:nonzero;" />
<polygon points="250.578,228.578 274.578,228.578 274.578,245.578 250.578,245.578 " style="fill:green;stroke:yellow;stroke-width:1;fill-rule:nonzero;" />
<polygon points="274.578,228.578 298.578,228.578 298.578,245.578 274.578,245.578 " style="fill:green;stroke:yellow;stroke-width:1;fill-rule:nonzero;" />
<polygon points="298.578,228.578 322.578,228.578 322.578,245.578 298.578,245.578 " style="fill:green;stroke:yellow;stroke-width:1;fill-rule:nonzero;" />
<polygon points="58.5783,245.578 82.5783,245.578 82.5783,262.578 58.5783,262.578 " style="fill:green;stroke:yellow;stroke-width:1;fill-rule:nonzero;" />
<polygon points="82.5783,245.578 106.578,245.578 106.578,262.578 82.5783,262.578 " style="fill:green;stroke:yellow;stroke-width:1;fill-rule:nonzero;" />
<polygon points="106.578,245.578 130.578,245.578 130.578,262.578 106.578,262.578 " style="fill:green;stroke:yellow;stroke-width:1;fill-rule:nonzero;" />
<polygon points="130.578,245.578 154.578,245.578 154.578,262.578 130.578,262.578 " style="fill:green;stroke:yellow;stroke-width:1;fill-rule:nonzero;" />
<polygon points="154.578,245.578 178.578,245.578 178.578,262.578 154.578,262.578 " style="fill:green;stroke:yellow;stroke-width:1;fill-rule:nonzero;" />
<polygon points="178.578,245.578 202.578,245.578 202.578,262.578 178.578,262.578 " style="fill:green;stroke:yellow;stroke-width:1;fill-rule:nonzero;" />
<polygon points="202.578,245.578 226.578,245.578 226.578,262.578 202.578,262.578 " style="fill:green;stroke:yellow;stroke-width:1;fill-rule:nonzero;" />
<polygon points="226.578,245.578 250.578,245.578 250.578,262.578 226.578,262.578 " style="fill:green;stroke:yellow;stroke-width:1;fill-rule:nonzero;" />
<polygon points="250.578,245.578 274.578,245.578 274.578,262.578 250.578,262.578 " style="fill:green;stroke:yellow;stroke-width:1;fill-rule:nonzero;" />
<polygon points="274.578,245.578 298.578,245.578 298.578,262.578 274.578,262.578 " style="fill:green;stroke:yellow;stroke-width:1;fill-rule:nonzero;" />
<polygon points="298.578,245.578 322.578,245.578 322.578,262.578 298.578,262.578 " style="fill:green;stroke:yellow;stroke-width:1;fill-rule:nonzero;" />
<polygon points="58.5783,262.578 82.5783,262.578 82.5783,279.578 58.5783,279.578 " style="fill:green;stroke:yellow;stroke-width:1;fill-rule:nonzero;" />
<polygon points="82.5783,262.578 106.578,262.578 106.578,279.578 82.5783,279.578 " style="fill:green;stroke:yellow;stroke-width:1;fill-rule:nonzero;" />
<polygon points="106.578,262.578 130.578,262.578 130.578,279.578 106.578,279.578 " style="fill:green;stroke:yellow;stroke-width:1;fill-rule:nonzero;" />
<polygon points="130.578,262.578 154.578,262.578 154.578,279.578 130.578,279.578 " style="fill:green;stroke:yellow;stroke-width:1;fill-rule:nonzero;" />
<polygon points="154.578,262.578 178.578,262.578 178.578,279.578 154.578,279.578 " style="fill:green;stroke:yellow;stroke-width:1;fill-rule:nonzero;" />
<polygon points="178.578,262.578 202.578,262.578 202.578,279.578 178.578,279.578 " style="fill:green;stroke:yellow;stroke-width:1;fill-rule:nonzero;" />
<polygon points="202.578,262.578 226.578,262.578 226.578,279.578 202.578,279.578 " style="fill:green;stroke:yellow;stroke-width:1;fill-rule:nonzero;" />
<polygon points="226.578,262.578 250.578,262.578 250.578,279.578 226.578,279.578 " style="fill:green;stroke:yellow;stroke-width:1;fill-rule:nonzero;" />
<polygon points="250.578,262.578 274.578,262.578 274.578,279.578 250.578,279.578 " style="fill:green;stroke:yellow;stroke-width:1;fill-rule:nonzero;" />
<polygon points="274.578,262.578 298.578,262.578 298.578,279.578 274.578,279.578 " style="fill:green;stroke:yellow;stroke-width:1;fill-rule:nonzero;" />
<polygon points="298.578,262.578 322.578,262.578 322.578,279.578 298.578,279.578 " style="fill:green;stroke:yellow;stroke-width:1;fill-rule:nonzero;" />
<polygon points="58.5783,279.578 82.5783,279.578 82.5783,296.578 58.5783,296.578 " style="fill:green;stroke:yellow;stroke-width:1;fill-rule:nonzero;" />
<polygon points="82.5783,279.578 106.578,279.578 106.578,296.578 82.5783,296.578 " style="fill:green;stroke:yellow;stroke-width:1;fill-rule:nonzero;" />
<polygon points="106.578,279.578 130.578,279.578 130.578,296.578 106.578,296.578 " style="fill:green;stroke:yellow;stroke-width:1;fill-rule:nonzero;" />
<polygon points="130.578,279.578 154.578,279.578 154.578,296.578 130.578,296.578 " style="fill:green;stroke:yellow;stroke-width:1;fill-rule:nonzero;" />
<polygon points="154.578,279.578 178.578,279.578 178.578,296.578 154.578,296.578 " style="fill:green;stroke:yellow;stroke-width:1;fill-rule:nonzero;" />
<polygon points="178.578,279.578 202.578,279.578 202.578,296.578 178.578,296.578 " style="fill:green;stroke:yellow;stroke-width:1;fill-rule:nonzero;" />
<polygon points="202.578,279.578 226.578,279.578 226.578,296.578 202.578,296.578 " style="fill:green;stroke:yellow;stroke-width:1;fill-rule:nonzero;" />
<polygon points="226.578,279.578 250.578,279.578 250.578,296.578 226.578,296.578 " style="fill:green;stroke:yellow;stroke-width:1;fill-rule:nonzero;" />
<polygon points="250.578,279.578 274.578,279.578 274.578,296.578 250.578,296.578 " style="fill:green;stroke:yellow;stroke-width:1;fill-rule:nonzero;" />
<polygon points="274.578,279.578 298.578,279.578 298.578,296.578 274.578,296.578 " style="fill:green;stroke:yellow;stroke-width:1;fill-rule:nonzero;" />
<polygon points="298.578,279.578 322.578,279.578 322.578,296.578 298.578,296.578 " style="fill:green;stroke:yellow;stroke-width:1;fill-rule:nonzero;" />
<polygon points="58.5783,296.578 82.5783,296.578 82.5783,313.578 58.5783,313.578 " style="fill:green;stroke:yellow;stroke-width:1;fill-rule:nonzero;" />
<polygon points="82.5783,296.578 106.578,296.578 106.578,313.578 82.5783,313.578 " style="fill:green;stroke:yellow;stroke-width:1;fill-rule:nonzero;" />
<polygon points="106.578,296.578 130.578,296.578 130.578,313.578 106.578,313.578 " style="fill:green;stroke:yellow;stroke-width:1;fill-rule:nonzero;" />
<polygon points="130.578,296.578 154.578,296.578 154.578,313.578 130.578,313.578 " style="fill:green;stroke:yellow;stroke-width:1;fill-rule:nonzero;" />
<polygon points="154.578,296.578 178.578,296.578 178.578,313.578 154.578,313.578 " style="fill:green;stroke:yellow;stroke-width:1;fill-rule:nonzero;" />
<polygon points="178.578,296.578 202.578,296.578 202.578,313.578 178.578,313.578 " style="fill:green;stroke:yellow;stroke-width:1;fill-rule:nonzero;" />
<polygon points="202.578,296.578 226.578,296.578 226.578,313.578 202.578,313.578 " style="fill:green;stroke:yellow;stroke-width:1;fill-rule:nonzero;" />
<polygon points="226.578,296.578 250.578,296.578 250.578,313.578 226.578,313.578 " style="fill:green;stroke:yellow;stroke-width:1;fill-rule:nonzero;" />
<polygon points="250.578,296.578 274.578,296.578 274.578,313.578 250.578,313.578 " style="fill:green;stroke:yellow;stroke-width:1;fill-rule:nonzero;" />
<polygon points="274.578,296.578 298.578,296.578 298.578,313.578 274.578,313.578 " style="fill:green;stroke:yellow;stroke-width:1;fill-rule:nonzero;" />
<polygon points="298.578,296.578 322.578,296.578 322.578,313.578 298.578,313.578 " style="fill:green;stroke:yellow;stroke-width:1;fill-rule:nonzero;" />
<polygon points="58.5783,313.578 82.5783,313.578 82.5783,330.578 58.5783,330.578 " style="fill:green;stroke:yellow;stroke-width:1;fill-rule:nonzero;" />
<polygon points="82.5783,313.578 106.578,313.578 106.578,330.578 82.5783,330.578 " style="fill:green;stroke:yellow;stroke-width:1;fill-rule:nonzero;" />
<polygon points="106.578,313.578 130.578,313.578 130.578,330.578 106.578,330.578 " style="fill:green;stroke:yellow;stroke-width:1;fill-rule:nonzero;" />
<polygon points="130.578,313.578 154.578,313.578 154.578,330.578 130.578,330.578 " style="fill:green;stroke:yellow;stroke-width:1;fill-rule:nonzero;" />
<polygon points="154.578,313.578 178.578,313.578 178.578,330.578 154.578,330.578 " style="fill:green;stroke:yellow;stroke-width:1;fill-rule:nonzero;" />
<polygon points="178.578,313.578 202.578,313.578 202.578,330.578 178.578,330.578 " style="fill:green;stroke:yellow;stroke-width:1;fill-rule:nonzero;" />
<polygon points="202.578,313.578 226.578,313.578 226.578,330.578 202.578,330.578 " style="fill:green;stroke:yellow;stroke-width:1;fill-rule:nonzero;" />
<polygon points="226.578,313.578 250.578,313.578 250.578,330.578 226.578,330.578 " style="fill:green;stroke:yellow;stroke-width:1;fill-rule:nonzero;" />
<polygon points="250.578,313.578 274.578,313.578 274.578,330.578 250.578,330.578 " style="fill:green;stroke:yellow;stroke-width:1;fill-rule:nonzero;" />
<polygon points="274.578,313.578 298.578,313.578 298.578,330.578 274.578,330.578 " style="fill:green;stroke:yellow;stroke-width:1;fill-rule:nonzero;" />
<polygon points="298.578,313.578 322.578,313.578 322.578,330.578 298.578,330.578 " style="fill:green;stroke:yellow;stroke-width:1;fill-rule:nonzero;" />
<polygon points="322.578,58.5783 339.578,58.5783 339.578,82.5783 322.578,82.5783 " style="fill:green;stroke:yellow;stroke-width:1;fill-rule:nonzero;" />
<polygon points="322.578,82.5783 339.578,82.5783 339.578,106.578 322.578,106.578 " style="fill:green;stroke:yellow;stroke-width:1;fill-rule:nonzero;" />
<polygon points="322.578,106.578 339.578,106.578 339.578,130.578 322.578,130.578 " style="fill:green;stroke:yellow;stroke-width:1;fill-rule:nonzero;" />
<polygon points="322.578,130.578 339.578,130.578 339.578,154.578 322.578,154.578 " style="fill:green;stroke:yellow;stroke-width:1;fill-rule:nonzero;" />
<polygon points="322.578,154.578 339.578,154.578 339.578,178.578 322.578,178.578 " style="fill:green;stroke:yellow;stroke-width:1;fill-rule:nonzero;" />
<polygon points="322.578,178.578 339.578,178.578 339.578,202.578 322.578,202.578 " style="fill:green;stroke:yellow;stroke-width:1;fill-rule:nonzero;" />
<polygon points="322.578,202.578 339.578,202.578 339.578,226.578 322.578,226.578 " style="fill:green;stroke:yellow;stroke-width:1;fill-rule:nonzero;" />
<polygon points="322.578,226.578 339.578,226.578 339.578,250.578 322.578,250.578 " style="fill:green;stroke:yellow;stroke-width:1;fill-rule:nonzero;" />
<polygon points="322.578,250.578 339.578,250.578 339.578,274.578 322.578,274.578 " style="fill:green;stroke:yellow;stroke-width:1;fill-rule:nonzero;" />
<polygon points="322.578,274.578 339.578,274.578 339.578,298.578 322.578,298.578 " style="fill:green;stroke:yellow;stroke-width:1;fill-rule:nonzero;" />
<polygon points="322.578,298.578 339.578,298.578 339.578,322.578 322.578,322.578 " style="fill:green;stroke:yellow;stroke-width:1;fill-rule:nonzero;" />
</svg>