<svg>
<polygon points="0,200 0.394654,187.442 1.57706,174.933 3.54255,162.524 6.28337,150.262 9.7887,138.197 14.0447,126.375 19.0346,114.844 24.7387,103.649 31.1344,92.8346 38.1966,82.4429 45.8974,72.5152 54.2063,63.0906 63.0906,54.2063 72.5152,45.8974 82.4429,38.1966 92.8346,31.1344 103.649,24.7387 114.844,19.0346 126.375,14.0447 138.197,9.7887 150.262,6.28337 162.524,3.54255 174.933,1.57706 187.442,0.394654 200,0 212.558,0.394654 225.067,1.57706 237.476,3.54255 249.738,6.28337 261.803,9.7887 273.625,14.0447 285.156,19.0346 296.351,24.7387 307.165,31.1344 317.557,38.1966 327.485,45.8974 336.909,54.2063 345.794,63.0906 354.103,72.5152 361.803,82.4429 368.866,92.8346 375.261,103.649 380.965,114.844 385.955,126.375 390.211,138.197 393.717,150.262 396.457,162.524 398.423,174.933 399.605,187.442 400,200 399.605,212.558 398.423,225.067 396.457,237.476 393.717,249.738 390.211,261.803 385.955,273.625 380.965,285.156 375.261,296.351 368.866,307.165 361.803,317.557 354.103,327.485 345.794,336.909 336.909,345.794 327.485,354.103 317.557,361.803 307.165,368.866 296.351,375.261 285.156,380.965 273.625,385.955 261.803,390.211 249.738,393.717 237.476,396.457 225.067,398.423 212.558,399.605 200,400 187.442,399.605 174.933,398.423 162.524,396.457 150.262,393.717 138.197,390.211 126.375,385.955 114.844,380.965 103.649,375.261 92.8346,368.866 82.4429,361.803 72.5152,354.103 63.0906,345.794 54.2063,336.909 45.8974,327.485 38.1966,317.557 31.1344,307.165 24.7387,296.351 19.0346,285.156 14.0447,273.625 9.7887,261.803 6.28337,249.738 3.54255,237.476 1.57706,225.067 0.394654,212.558 " style="fill:green;stroke:yellow;stroke-width:1;fill-rule:nonzero;" />
<polygon points="72,65.5692 72.0474,64.0622 72.1892,62.5612 72.4251,61.0721 72.754,59.6007 73.1746,58.1528 73.6854,56.7342 74.2842,55.3505 74.9686,54.0071 75.7361,52.7094 76.5836,51.4624 77.5077,50.271 78.5048,49.1401 79.5709,48.074 80.7018,47.0769 81.8932,46.1528 83.1402,45.3053 84.4379,44.5379 85.7813,43.8534 87.165,43.2546 88.5836,42.7439 90.0314,42.3232 91.5028,41.9943 92.992,41.7585 94.493,41.6166 96,41.5692 97.507,41.6166 99.008,41.7585 100.497,41.9943 101.969,42.3232 103.416,42.7439 104.835,43.2546 106.219,43.8534 107.562,44.5379 108.86,45.3053 110.107,46.1528 111.298,47.0769 112.429,48.074 113.495,49.1401 114.492,50.271 115.416,51.4624 116.264,52.7094 117.031,54.0071 117.716,55.3505 118.315,56.7342 118.825,58.1528 119.246,59.6007 119.575,61.0721 119.811,62.5612 119.953,64.0622 120,65.5692 119.953,67.0762 119.811,68.5772 119.575,70.0664 119.246,71.5378 118.825,72.9856 118.315,74.4042 117.716,75.7879 117.031,77.1313 116.264,78.4291 115.416,79.6761 114.492,80.8674 113.495,81.9983 112.429,83.0645 111.298,84.0615 110.107,84.9856 108.86,85.8331 107.562,86.6006 106.219,87.2851 104.835,87.8839 103.416,88.3946 101.969,88.8152 100.497,89.1441 99.008,89.38 97.507,89.5219 96,89.5692 94.493,89.5219 92.992,89.38 91.5028,89.1441 90.0314,88.8152 88.5836,88.3946 87.165,87.8839 85.7813,87.2851 84.4379,86.6006 83.1402,85.8331 81.8932,84.9856 80.7018,84.0615 79.5709,83.0645 78.5048,81.9983 77.5077,80.8674 76.5836,79.6761 75.7361,78.4291 74.9686,77.1313 74.2842,75.7879 73.6854,74.4042 73.1746,72.9856 72.754,71.5378 72.4251,70.0664 72.1892,68.5772 72.0474,67.0762 " style="fill:green;stroke:yellow;stroke-width:1;fill-rule:nonzero;" />
<polygon points="120,65.5692 120.047,64.0622 120.189,62.5612 120.425,61.0721 120.754,59.6007 121.175,58.1528 121.685,56.7342 122.284,55.3505 122.969,54.0071 123.736,52.7094 124.584,51.4624 125.508,50.271 126.505,49.1401 127.571,48.074 128.702,47.0769 129.893,46.1528 131.14,45.3053 132.438,44.5379 133.781,43.8534 135.165,43.2546 136.584,42.7439 138.031,42.3232 139.503,41.9943 140.992,41.7585 142.493,41.6166 144,41.5692 145.507,41.6166 147.008,41.7585 148.497,41.9943 149.969,42.3232 151.416,42.7439 152.835,43.2546 154.219,43.8534 155.562,44.5379 156.86,45.3053 158.107,46.1528 159.298,47.0769 160.429,48.074 161.495,49.1401 162.492,50.271 163.416,51.4624 164.264,52.7094 165.031,54.0071 165.716,55.3505 166.315,56.7342 166.825,58.1528 167.246,59.6007 167.575,61.0721 167.811,62.5612 167.953,64.0622 168,65.5692 167.953,67.0762 167.811,68.5772 167.575,70.0664 167.246,71.5378 166.825,72.9856 166.315,74.4042 165.716,75.7879 165.031,77.1313 164.264,78.4291 163.416,79.6761 162.492,80.8674 161.495,81.9983 160.429,83.0645 159.298,84.0615 158.107,84.9856 156.86,85.8331 155.562,86.6006 154.219,87.2851 152.835,87.8839 151.416,88.3946 149.969,88.8152 148.497,89.1441 147.008,89.38 145.507,89.5219 144,89.5692 142.493,89.5219 140.992,89.38 139.503,89.1441 138.031,88.8152 136.584,88.3946 135.165,87.8839 133.781,87.2851 132.438,86.6006 131.14,85.8331 129.893,84.9856 128.702,84.0615 127.571,83.0645 126.505,81.9983 125.508,80.8674 124.584,79.6761 123.736,78.4291 122.969,77.1313 122.284,75.7879 121.685,74.4042 121.175,72.9856 120.754,71.5378 120.425,70.0664 120.189,68.5772 120.047,67.0762 " style="fill:green;stroke:yellow;stroke-width:1;fill-rule:nonzero;" />
<polygon points="168,65.5692 168.047,64.0622 168.189,62.5612 168.425,61.0721 168.754,59.6007 169.175,58.1528 169.685,56.7342 170.284,55.3505 170.969,54.0071 171.736,52.7094 172.584,51.4624 173.508,50.271 174.505,49.1401 175.571,48.074 176.702,47.0769 177.893,46.1528 179.14,45.3053 180.438,44.5379 181.781,43.8534 183.165,43.2546 184.584,42.7439 186.031,42.3232 187.503,41.9943 188.992,41.7585 190.493,41.6166 192,41.5692 193.507,41.6166 195.008,41.7585 196.497,41.9943 197.969,42.3232 199.416,42.7439 200.835,43.2546 202.219,43.8534 203.562,44.5379 204.86,45.3053 206.107,46.1528 207.298,47.0769 208.429,48.074 209.495,49.1401 210.492,50.271 211.416,51.4624 212.264,52.7094 213.031,54.0071 213.716,55.3505 214.315,56.7342 214.825,58.1528 215.246,59.6007 215.575,61.0721 215.811,62.5612 215.953,64.0622 216,65.5692 215.953,67.0762 215.811,68.5772 215.575,70.0664 215.246,71.5378 214.825,72.9856 214.315,74.4042 213.716,75.7879 213.031,77.1313 212.264,78.4291 211.416,79.6761 210.492,80.8674 209.495,81.9983 208.429,83.0645 207.298,84.0615 206.107,84.9856 204.86,85.8331 203.562,86.6006 202.219,87.2851 200.835,87.8839 199.416,88.3946 197.969,88.8152 196.497,89.1441 195.008,89.38 193.507,89.5219 192,89.5692 190.493,89.5219 188.992,89.38 187.503,89.1441 186.031,88.8152 184.584,88.3946 183.165,87.8839 181.781,87.2851 180.438,86.6006 179.14,85.8331 177.893,84.9856 176.702,84.0615 175.571,83.0645 174.505,81.9983 173.508,80.8674 172.584,79.6761 171.736,78.4291 170.969,77.1313 170.284,75.7879 169.685,74.4042 169.175,72.9856 168.754,71.5378 168.425,70.0664 168.189,68.5772 168.047,67.0762 " style="fill:green;stroke:yellow;stroke-width:1;fill-rule:nonzero;" />
<polygon points="216,65.5692 216.047,64.0622 216.189,62.5612 216.425,61.0721 216.754,59.6007 217.175,58.1528 217.685,56.7342 218.284,55.3505 218.969,54.0071 219.736,52.7094 220.584,51.4624 221.508,50.271 222.505,49.1401 223.571,48.074 224.702,47.0769 225.893,46.1528 227.14,45.3053 228.438,44.5379 229.781,43.8534 231.165,43.2546 232.584,42.7439 234.031,42.3232 235.503,41.9943 236.992,41.7585 238.493,41.6166 240,41.5692 241.507,41.6166 243.008,41.7585 244.497,41.9943 245.969,42.3232 247.416,42.7439 248.835,43.2546 250.219,43.8534 251.562,44.5379 252.86,45.3053 254.107,46.1528 255.298,47.0769 256.429,48.074 257.495,49.1401 258.492,50.271 259.416,51.4624 260.264,52.7094 261.031,54.0071 261.716,55.3505 262.315,56.7342 262.825,58.1528 263.246,59.6007 263.575,61.0721 263.811,62.5612 263.953,64.0622 264,65.5692 263.953,67.0762 263.811,68.5772 263.575,70.0664 263.246,71.5378 262.825,72.9856 262.315,74.4042 261.716,75.7879 261.031,77.1313 260.264,78.4291 259.416,79.6761 258.492,80.8674 257.495,81.9983 256.429,83.0645 255.298,84.0615 254.107,84.9856 252.86,85.8331 251.562,86.6006 250.219,87.2851 248.835,87.8839 247.416,88.3946 245.969,88.8152 244.497,89.1441 243.008,89.38 241.507,89.5219 240,89.5692 238.493,89.5219 236.992,89.38 235.503,89.1441 234.031,88.8152 232.584,88.3946 231.165,87.8839 229.781,87.2851 228.438,86.6006 227.14,85.8331 225.893,84.9856 224.702,84.0615 223.571,83.0645 222.505,81.9983 221.508,80.8674 220.584,79.6761 219.736,78.4291 218.969,77.1313 218.284,75.7879 217.685,74.4042 217.175,72.9856 216.754,71.5378 216.425,70.0664 216.189,68.5772 216.047,67.0762 " style="fill:green;stroke:yellow;stroke-width:1;fill-rule:nonzero;" />
<polygon points="264,65.5692 264.047,64.0622 264.189,62.5612 264.425,61.0721 264.754,59.6007 265.175,58.1528 265.685,56.7342 266.284,55.3505 266.969,54.0071 267.736,52.7094 268.584,51.4624 269.508,50.271 270.505,49.1401 271.571,48.074 272.702,47.0769 273.893,46.1528 275.14,45.3053 276.438,44.5379 277.781,43.8534 279.165,43.2546 280.584,42.7439 282.031,42.3232 283.503,41.9943 284.992,41.7585 286.493,41.6166 288,41.5692 289.507,41.6166 291.008,41.7585 292.497,41.9943 293.969,42.3232 295.416,42.7439 296.835,43.2546 298.219,43.8534 299.562,44.5379 300.86,45.3053 302.107,46.1528 303.298,47.0769 304.429,48.074 305.495,49.1401 306.492,50.271 307.416,51.4624 308.264,52.7094 309.031,54.0071 309.716,55.3505 310.315,56.7342 310.825,58.1528 311.246,59.6007 311.575,61.0721 311.811,62.5612 311.953,64.0622 312,65.5692 311.953,67.0762 311.811,68.5772 311.575,70.0664 311.246,71.5378 310.825,72.9856 310.315,74.4042 309.716,75.7879 309.031,77.1313 308.264,78.4291 307.416,79.6761 306.492,80.8674 305.495,81.9983 304.429,83.0645 303.298,84.0615 302.107,84.9856 300.86,85.8331 299.562,86.6006 298.219,87.2851 296.835,87.8839 295.416,88.3946 293.969,88.8152 292.497,89.1441 291.008,89.38 289.507,89.5219 288,89.5692 286.493,89.5219 284.992,89.38 283.503,89.1441 282.031,88.8152 280.584,88.3946 279.165,87.8839 277.781,87.2851 276.438,86.6006 275.14,85.8331 273.893,84.9856 272.702,84.0615 271.571,83.0645 270.505,81.9983 269.508,80.8674 268.584,79.6761 267.736,78.4291 266.969,77.1313 266.284,75.7879 265.685,74.4042 265.175,72.9856 264.754,71.5378 264.425,70.0664 264.189,68.5772 264.047,67.0762 " style="fill:green;stroke:yellow;stroke-width:1;fill-rule:nonzero;" />
<polygon points="48,107.138 48.0474,105.631 48.1892,104.13 48.4251,102.641 48.754,101.17 49.1746,99.722 49.6854,98.3034 50.2842,96.9197 50.9686,95.5764 51.7361,94.2786 52.5836,93.0316 53.5077,91.8403 54.5048,90.7093 55.5709,89.6432 56.7018,88.6461 57.8932,87.722 59.1402,86.8746 60.4379,86.1071 61.7813,85.4226 63.165,84.8238 64.5836,84.3131 66.0314,83.8924 67.5028,83.5635 68.992,83.3277 70.493,83.1858 72,83.1384 73.507,83.1858 75.008,83.3277 76.4972,83.5635 77.9686,83.8924 79.4164,84.3131 80.835,84.8238 82.2187,85.4226 83.5621,86.1071 84.8598,86.8746 86.1068,87.722 87.2982,88.6461 88.4291,89.6432 89.4952,90.7093 90.4923,91.8403 91.4164,93.0316 92.2639,94.2786 93.0314,95.5764 93.7158,96.9197 94.3146,98.3034 94.8254,99.722 95.246,101.17 95.5749,102.641 95.8108,104.13 95.9526,105.631 96,107.138 95.9526,108.645 95.8108,110.146 95.5749,111.636 95.246,113.107 94.8254,114.555 94.3146,115.973 93.7158,117.357 93.0314,118.701 92.2639,119.998 91.4164,121.245 90.4923,122.437 89.4952,123.568 88.4291,124.634 87.2982,125.631 86.1068,126.555 84.8598,127.402 83.5621,128.17 82.2187,128.854 80.835,129.453 79.4164,129.964 77.9686,130.384 76.4972,130.713 75.008,130.949 73.507,131.091 72,131.138 70.493,131.091 68.992,130.949 67.5028,130.713 66.0314,130.384 64.5836,129.964 63.165,129.453 61.7813,128.854 60.4379,128.17 59.1402,127.402 57.8932,126.555 56.7018,125.631 55.5709,124.634 54.5048,123.568 53.5077,122.437 52.5836,121.245 51.7361,119.998 50.9686,118.701 50.2842,117.357 49.6854,115.973 49.1746,114.555 48.754,113.107 48.4251,111.636 48.1892,110.146 48.0474,108.645 " style="fill:green;stroke:yellow;stroke-width:1;fill-rule:nonzero;" />
<polygon points="96,107.138 96.0474,105.631 96.1892,104.13 96.4251,102.641 96.754,101.17 97.1746,99.722 97.6854,98.3034 98.2842,96.9197 98.9686,95.5764 99.7361,94.2786 100.584,93.0316 101.508,91.8403 102.505,90.7093 103.571,89.6432 104.702,88.6461 105.893,87.722 107.14,86.8746 108.438,86.1071 109.781,85.4226 111.165,84.8238 112.584,84.3131 114.031,83.8924 115.503,83.5635 116.992,83.3277 118.493,83.1858 120,83.1384 121.507,83.1858 123.008,83.3277 124.497,83.5635 125.969,83.8924 127.416,84.3131 128.835,84.8238 130.219,85.4226 131.562,86.1071 132.86,86.8746 134.107,87.722 135.298,88.6461 136.429,89.6432 137.495,90.7093 138.492,91.8403 139.416,93.0316 140.264,94.2786 141.031,95.5764 141.716,96.9197 142.315,98.3034 142.825,99.722 143.246,101.17 143.575,102.641 143.811,104.13 143.953,105.631 144,107.138 143.953,108.645 143.811,110.146 143.575,111.636 143.246,113.107 142.825,114.555 142.315,115.973 141.716,117.357 141.031,118.701 140.264,119.998 139.416,121.245 138.492,122.437 137.495,123.568 136.429,124.634 135.298,125.631 134.107,126.555 132.86,127.402 131.562,128.17 130.219,128.854 128.835,129.453 127.416,129.964 125.969,130.384 124.497,130.713 123.008,130.949 121.507,131.091 120,131.138 118.493,131.091 116.992,130.949 115.503,130.713 114.031,130.384 112.584,129.964 111.165,129.453 109.781,128.854 108.438,128.17 107.14,127.402 105.893,126.555 104.702,125.631 103.571,124.634 102.505,123.568 101.508,122.437 100.584,121.245 99.7361,119.998 98.9686,118.701 98.2842,117.357 97.6854,115.973 97.1746,114.555 96.754,113.107 96.4251,111.636 96.1892,110.146 96.0474,108.645 " style="fill:green;stroke:yellow;stroke-width:1;fill-rule:nonzero;" />
<polygon points="144,107.138 144.047,105.631 144.189,104.13 144.425,102.641 144.754,101.17 145.175,99.722 145.685,98.3034 146.284,96.9197 146.969,95.5764 147.736,94.2786 148.584,93.0316 149.508,91.8403 150.505,90.7093 151.571,89.6432 152.702,88.6461 153.893,87.722 155.14,86.8746 156.438,86.1071 157.781,85.4226 159.165,84.8238 160.584,84.3131 162.031,83.8924 163.503,83.5635 164.992,83.3277 166.493,83.1858 168,83.1384 169.507,83.1858 171.008,83.3277 172.497,83.5635 173.969,83.8924 175.416,84.3131 176.835,84.8238 178.219,85.4226 179.562,86.1071 180.86,86.8746 182.107,87.722 183.298,88.6461 184.429,89.6432 185.495,90.7093 186.492,91.8403 187.416,93.0316 188.264,94.2786 189.031,95.5764 189.716,96.9197 190.315,98.3034 190.825,99.722 191.246,101.17 191.575,102.641 191.811,104.13 191.953,105.631 192,107.138 191.953,108.645 191.811,110.146 191.575,111.636 191.246,113.107 190.825,114.555 190.315,115.973 189.716,117.357 189.031,118.701 188.264,119.998 187.416,121.245 186.492,122.437 185.495,123.568 184.429,124.634 183.298,125.631 182.107,126.555 180.86,127.402 179.562,128.17 178.219,128.854 176.835,129.453 175.416,129.964 173.969,130.384 172.497,130.713 171.008,130.949 169.507,131.091 168,131.138 166.493,131.091 164.992,130.949 163.503,130.713 162.031,130.384 160.584,129.964 159.165,129.453 157.781,128.854 156.438,128.17 155.14,127.402 153.893,126.555 152.702,125.631 151.571,124.634 150.505,123.568 149.508,122.437 148.584,121.245 147.736,119.998 146.969,118.701 146.284,117.357 145.685,115.973 145.175,114.555 144.754,113.107 144.425,111.636 144.189,110.146 144.047,108.645 " style="fill:green;stroke:yellow;stroke-width:1;fill-rule:nonzero;" />
<polygon points="192,107.138 192.047,105.631 192.189,104.13 192.425,102.641 192.754,101.17 193.175,99.722 193.685,98.3034 194.284,96.9197 194.969,95.5764 195.736,94.2786 196.584,93.0316 197.508,91.8403 198.505,90.7093 199.571,89.6432 200.702,88.6461 201.893,87.722 203.14,86.8746 204.438,86.1071 205.781,85.4226 207.165,84.8238 208.584,84.3131 210.031,83.8924 211.503,83.5635 212.992,83.3277 214.493,83.1858 216,83.1384 217.507,83.1858 219.008,83.3277 220.497,83.5635 221.969,83.8924 223.416,84.3131 224.835,84.8238 226.219,85.4226 227.562,86.1071 228.86,86.8746 230.107,87.722 231.298,88.6461 232.429,89.6432 233.495,90.7093 234.492,91.8403 235.416,93.0316 236.264,94.2786 237.031,95.5764 237.716,96.9197 238.315,98.3034 238.825,99.722 239.246,101.17 239.575,102.641 239.811,104.13 239.953,105.631 240,107.138 239.953,108.645 239.811,110.146 239.575,111.636 239.246,113.107 238.825,114.555 238.315,115.973 237.716,117.357 237.031,118.701 236.264,119.998 235.416,121.245 234.492,122.437 233.495,123.568 232.429,124.634 231.298,125.631 230.107,126.555 228.86,127.402 227.562,128.17 226.219,128.854 224.835,129.453 223.416,129.964 221.969,130.384 220.497,130.713 219.008,130.949 217.507,131.091 216,131.138 214.493,131.091 212.992,130.949 211.503,130.713 210.031,130.384 208.584,129.964 207.165,129.453 205.781,128.854 204.438,128.17 203.14,127.402 201.893,126.555 200.702,125.631 199.571,124.634 198.505,123.568 197.508,122.437 196.584,121.245 195.736,119.998 194.969,118.701 194.284,117.357 193.685,115.973 193.175,114.555 192.754,113.107 192.425,111.636 192.189,110.146 192.047,108.645 " style="fill:green;stroke:yellow;stroke-width:1;fill-rule:nonzero;" />
<polygon points="240,107.138 240.047,105.631 240.189,104.13 240.425,102.641 240.754,101.17 241.175,99.722 241.685,98.3034 242.284,96.9197 242.969,95.5764 243.736,94.2786 244.584,93.0316 245.508,91.8403 246.505,90.7093 247.571,89.6432 248.702,88.6461 249.893,87.722 251.14,86.8746 252.438,86.1071 253.781,85.4226 255.165,84.8238 256.584,84.3131 258.031,83.8924 259.503,83.5635 260.992,83.3277 262.493,83.1858 264,83.1384 265.507,83.1858 267.008,83.3277 268.497,83.5635 269.969,83.8924 271.416,84.3131 272.835,84.8238 274.219,85.4226 275.562,86.1071 276.86,86.8746 278.107,87.722 279.298,88.6461 280.429,89.6432 281.495,90.7093 282.492,91.8403 283.416,93.0316 284.264,94.2786 285.031,95.5764 285.716,96.9197 286.315,98.3034 286.825,99.722 287.246,101.17 287.575,102.641 287.811,104.13 287.953,105.631 288,107.138 287.953,108.645 287.811,110.146 287.575,111.636 287.246,113.107 286.825,114.555 286.315,115.973 285.716,117.357 285.031,118.701 284.264,119.998 283.416,121.245 282.492,122.437 281.495,123.568 280.429,124.634 279.298,125.631 278.107,126.555 276.86,127.402 275.562,128.17 274.219,128.854 272.835,129.453 271.416,129.964 269.969,130.384 268.497,130.713 267.008,130.949 265.507,131.091 264,131.138 262.493,131.091 260.992,130.949 259.503,130.713 258.031,130.384 256.584,129.964 255.165,129.453 253.781,128.854 252.438,128.17 251.14,127.402 249.893,126.555 248.702,125.631 247.571,124.634 246.505,123.568 245.508,122.437 244.584,121.245 243.736,119.998 242.969,118.701 242.284,117.357 241.685,115.973 241.175,114.555 240.754,113.107 240.425,111.636 240.189,110.146 240.047,108.645 " style="fill:green;stroke:yellow;stroke-width:1;fill-rule:nonzero;" />
<polygon points="288,107.138 288.047,105.631 288.189,104.13 288.425,102.641 288.754,101.17 289.175,99.722 289.685,98.3034 290.284,96.9197 290.969,95.5764 291.736,94.2786 292.584,93.0316 293.508,91.8403 294.505,90.7093 295.571,89.6432 296.702,88.6461 297.893,87.722 299.14,86.8746 300.438,86.1071 301.781,85.4226 303.165,84.8238 304.584,84.3131 306.031,83.8924 307.503,83.5635 308.992,83.3277 310.493,83.1858 312,83.1384 313.507,83.1858 315.008,83.3277 316.497,83.5635 317.969,83.8924 319.416,84.3131 320.835,84.8238 322.219,85.4226 323.562,86.1071 324.86,86.8746 326.107,87.722 327.298,88.6461 328.429,89.6432 329.495,90.7093 330.492,91.8403 331.416,93.0316 332.264,94.2786 333.031,95.5764 333.716,96.9197 334.315,98.3034 334.825,99.722 335.246,101.17 335.575,102.641 335.811,104.13 335.953,105.631 336,107.138 335.953,108.645 335.811,110.146 335.575,111.636 335.246,113.107 334.825,114.555 334.315,115.973 333.716,117.357 333.031,118.701 332.264,119.998 331.416,121.245 330.492,122.437 329.495,123.568 328.429,124.634 327.298,125.631 326.107,126.555 324.86,127.402 323.562,128.17 322.219,128.854 320.835,129.453 319.416,129.964 317.969,130.384 316.497,130.713 315.008,130.949 313.507,131.091 312,131.138 310.493,131.091 308.992,130.949 307.503,130.713 306.031,130.384 304.584,129.964 303.165,129.453 301.781,128.854 300.438,128.17 299.14,127.402 297.893,126.555 296.702,125.631 295.571,124.634 294.505,123.568 293.508,122.437 292.584,121.245 291.736,119.998 290.969,118.701 290.284,117.357 289.685,115.973 289.175,114.555 288.754,113.107 288.425,111.636 288.189,110.146 288.047,108.645 " style="fill:green;stroke:yellow;stroke-width:1;fill-rule:nonzero;" />
<polygon points="24,148.708 24.0474,147.201 24.1892,145.7 24.4251,144.211 24.754,142.739 25.1746,141.291 25.6854,139.873 26.2842,138.489 26.9686,137.146 27.7361,135.848 28.5836,134.601 29.5077,133.409 30.5048,132.279 31.5709,131.212 32.7018,130.215 33.8932,129.291 35.1402,128.444 36.4379,127.676 37.7813,126.992 39.165,126.393 40.5836,125.882 42.0314,125.462 43.5028,125.133 44.992,124.897 46.493,124.755 48,124.708 49.507,124.755 51.008,124.897 52.4972,125.133 53.9686,125.462 55.4164,125.882 56.835,126.393 58.2187,126.992 59.5621,127.676 60.8598,128.444 62.1068,129.291 63.2982,130.215 64.4291,131.212 65.4952,132.279 66.4923,133.409 67.4164,134.601 68.2639,135.848 69.0314,137.146 69.7158,138.489 70.3146,139.873 70.8254,141.291 71.246,142.739 71.5749,144.211 71.8108,145.7 71.9526,147.201 72,148.708 71.9526,150.215 71.8108,151.716 71.5749,153.205 71.246,154.676 70.8254,156.124 70.3146,157.543 69.7158,158.926 69.0314,160.27 68.2639,161.568 67.4164,162.815 66.4923,164.006 65.4952,165.137 64.4291,166.203 63.2982,167.2 62.1068,168.124 60.8598,168.972 59.5621,169.739 58.2187,170.424 56.835,171.022 55.4164,171.533 53.9686,171.954 52.4972,172.283 51.008,172.518 49.507,172.66 48,172.708 46.493,172.66 44.992,172.518 43.5028,172.283 42.0314,171.954 40.5836,171.533 39.165,171.022 37.7813,170.424 36.4379,169.739 35.1402,168.972 33.8932,168.124 32.7018,167.2 31.5709,166.203 30.5048,165.137 29.5077,164.006 28.5836,162.815 27.7361,161.568 26.9686,160.27 26.2842,158.926 25.6854,157.543 25.1746,156.124 24.754,154.676 24.4251,153.205 24.1892,151.716 24.0474,150.215 " style="fill:green;stroke:yellow;stroke-width:1;fill-rule:nonzero;" />
<polygon points="72,148.708 72.0474,147.201 72.1892,145.7 72.4251,144.211 72.754,142.739 73.1746,141.291 73.6854,139.873 74.2842,138.489 74.9686,137.146 75.7361,135.848 76.5836,134.601 77.5077,133.409 78.5048,132.279 79.5709,131.212 80.7018,130.215 81.8932,129.291 83.1402,128.444 84.4379,127.676 85.7813,126.992 87.165,126.393 88.5836,125.882 90.0314,125.462 91.5028,125.133 92.992,124.897 94.493,124.755 96,124.708 97.507,124.755 99.008,124.897 100.497,125.133 101.969,125.462 103.416,125.882 104.835,126.393 106.219,126.992 107.562,127.676 108.86,128.444 110.107,129.291 111.298,130.215 112.429,131.212 113.495,132.279 114.492,133.409 115.416,134.601 116.264,135.848 117.031,137.146 117.716,138.489 118.315,139.873 118.825,141.291 119.246,142.739 119.575,144.211 119.811,145.7 119.953,147.201 120,148.708 119.953,150.215 119.811,151.716 119.575,153.205 119.246,154.676 118.825,156.124 118.315,157.543 117.716,158.926 117.031,160.27 116.264,161.568 115.416,162.815 114.492,164.006 113.495,165.137 112.429,166.203 111.298,167.2 110.107,168.124 108.86,168.972 107.562,169.739 106.219,170.424 104.835,171.022 103.416,171.533 101.969,171.954 100.497,172.283 99.008,172.518 97.507,172.66 96,172.708 94.493,172.66 92.992,172.518 91.5028,172.283 90.0314,171.954 88.5836,171.533 87.165,171.022 85.7813,170.424 84.4379,169.739 83.1402,168.972 81.8932,168.124 80.7018,167.2 79.5709,166.203 78.5048,165.137 77.5077,164.006 76.5836,162.815 75.7361,161.568 74.9686,160.27 74.2842,158.926 73.6854,157.543 73.1746,156.124 72.754,154.676 72.4251,153.205 72.1892,151.716 72.0474,150.215 " style="fill:green;stroke:yellow;stroke-width:1;fill-rule:nonzero;" />
<polygon points="120,148.708 120.047,147.201 120.189,145.7 120.425,144.211 120.754,142.739 121.175,141.291 121.685,139.873 122.284,138.489 122.969,137.146 123.736,135.848 124.584,134.601 125.508,133.409 126.505,132.279 127.571,131.212 128.702,130.215 129.893,129.291 131.14,128.444 132.438,127.676 133.781,126.992 135.165,126.393 136.584,125.882 138.031,125.462 139.503,125.133 140.992,124.897 142.493,124.755 144,124.708 145.507,124.755 147.008,124.897 148.497,125.133 149.969,125.462 151.416,125.882 152.835,126.393 154.219,126.992 155.562,127.676 156.86,128.444 158.107,129.291 159.298,130.215 160.429,131.212 161.495,132.279 162.492,133.409 163.416,134.601 164.264,135.848 165.031,137.146 165.716,138.489 166.315,139.873 166.825,141.291 167.246,142.739 167.575,144.211 167.811,145.7 167.953,147.201 168,148.708 167.953,150.215 167.811,151.716 167.575,153.205 167.246,154.676 166.825,156.124 166.315,157.543 165.716,158.926 165.031,160.27 164.264,161.568 163.416,162.815 162.492,164.006 161.495,165.137 160.429,166.203 159.298,167.2 158.107,168.124 156.86,168.972 155.562,169.739 154.219,170.424 152.835,171.022 151.416,171.533 149.969,171.954 148.497,172.283 147.008,172.518 145.507,172.66 144,172.708 142.493,172.66 140.992,172.518 139.503,172.283 138.031,171.954 136.584,171.533 135.165,171.022 133.781,170.424 132.438,169.739 131.14,168.972 129.893,168.124 128.702,167.2 127.571,166.203 126.505,165.137 125.508,164.006 124.584,162.815 123.736,161.568 122.969,160.27 122.284,158.926 121.685,157.543 121.175,156.124 120.754,154.676 120.425,153.205 120.189,151.716 120.047,150.215 " style="fill:green;stroke:yellow;stroke-width:1;fill-rule:nonzero;" />
<polygon points="168,148.708 168.047,147.201 168.189,145.7 168.425,144.211 168.754,142.739 169.175,141.291 169.685,139.873 170.284,138.489 170.969,137.146 171.736,135.848 172.584,134.601 173.508,133.409 174.505,132.279 175.571,131.212 176.702,130.215 177.893,129.291 179.14,128.444 180.438,127.676 181.781,126.992 183.165,126.393 184.584,125.882 186.031,125.462 187.503,125.133 188.992,124.897 190.493,124.755 192,124.708 193.507,124.755 195.008,124.897 196.497,125.133 197.969,125.462 199.416,125.882 200.835,126.393 202.219,126.992 203.562,127.676 204.86,128.444 206.107,129.291 207.298,130.215 208.429,131.212 209.495,132.279 210.492,133.409 211.416,134.601 212.264,135.848 213.031,137.146 213.716,138.489 214.315,139.873 214.825,141.291 215.246,142.739 215.575,144.211 215.811,145.7 215.953,147.201 216,148.708 215.953,150.215 215.811,151.716 215.575,153.205 215.246,154.676 214.825,156.124 214.315,157.543 213.716,158.926 213.031,160.27 212.264,161.568 211.416,162.815 210.492,164.006 209.495,165.137 208.429,166.203 207.298,167.2 206.107,168.124 204.86,168.972 203.562,169.739 202.219,170.424 200.835,171.022 199.416,171.533 197.969,171.954 196.497,172.283 195.008,172.518 193.507,172.66 192,172.708 190.493,172.66 188.992,172.518 187.503,172.283 186.031,171.954 184.584,171.533 183.165,171.022 181.781,170.424 180.438,169.739 179.14,168.972 177.893,168.124 176.702,167.2 175.571,166.203 174.505,165.137 173.508,164.006 172.584,162.815 171.736,161.568 170.969,160.27 170.284,158.926 169.685,157.543 169.175,156.124 168.754,154.676 168.425,153.205 168.189,151.716 168.047,150.215 " style="fill:green;stroke:yellow;stroke-width:1;fill-rule:nonzero;" />
<polygon points="216,148.708 216.047,147.201 216.189,145.7 216.425,144.211 216.754,142.739 217.175,141.291 217.685,139.873 218.284,138.489 218.969,137.146 219.736,135.848 220.584,134.601 221.508,133.409 222.505,132.279 223.571,131.212 224.702,130.215 225.893,129.291 227.14,128.444 228.438,127.676 229.781,126.992 231.165,126.393 232.584,125.882 234.031,125.462 235.503,125.133 236.992,124.897 238.493,124.755 240,124.708 241.507,124.755 243.008,124.897 244.497,125.133 245.969,125.462 247.416,125.882 248.835,126.393 250.219,126.992 251.562,127.676 252.86,128.444 254.107,129.291 255.298,130.215 256.429,131.212 257.495,132.279 258.492,133.409 259.416,134.601 260.264,135.848 261.031,137.146 261.716,138.489 262.315,139.873 262.825,141.291 263.246,142.739 263.575,144.211 263.811,145.7 263.953,147.201 264,148.708 263.953,150.215 263.811,151.716 263.575,153.205 263.246,154.676 262.825,156.124 262.315,157.543 261.716,158.926 261.031,160.27 260.264,161.568 259.416,162.815 258.492,164.006 257.495,165.137 256.429,166.203 255.298,167.2 254.107,168.124 252.86,168.972 251.562,169.739 250.219,170.424 248.835,171.022 247.416,171.533 245.969,171.954 244.497,172.283 243.008,172.518 241.507,172.66 240,172.708 238.493,172.66 236.992,172.518 235.503,172.283 234.031,171.954 232.584,171.533 231.165,171.022 229.781,170.424 228.438,169.739 227.14,168.972 225.893,168.124 224.702,167.2 223.571,166.203 222.505,165.137 221.508,164.006 220.584,162.815 219.736,161.568 218.969,160.27 218.284,158.926 217.685,157.543 217.175,156.124 216.754,154.676 216.425,153.205 216.189,151.716 216.047,150.215 " style="fill:green;stroke:yellow;stroke-width:1;fill-rule:nonzero;" />
<polygon points="264,148.708 264.047,147.201 264.189,145.7 264.425,144.211 264.754,142.739 265.175,141.291 265.685,139.873 266.284,138.489 266.969,137.146 267.736,135.848 268.584,134.601 269.508,133.409 270.505,132.279 271.571,131.212 272.702,130.215 273.893,129.291 275.14,128.444 276.438,127.676 277.781,126.992 279.165,126.393 280.584,125.882 282.031,125.462 283.503,125.133 284.992,124.897 286.493,124.755 288,124.708 289.507,124.755 291.008,124.897 292.497,125.133 293.969,125.462 295.416,125.882 296.835,126.393 298.219,126.992 299.562,127.676 300.86,128.444 302.107,129.291 303.298,130.215 304.429,131.212 305.495,132.279 306.492,133.409 307.416,134.601 308.264,135.848 309.031,137.146 309.716,138.489 310.315,139.873 310.825,141.291 311.246,142.739 311.575,144.211 311.811,145.7 311.953,147.201 312,148.708 311.953,150.215 311.811,151.716 311.575,153.205 311.246,154.676 310.825,156.124 310.315,157.543 309.716,158.926 309.031,160.27 308.264,161.568 307.416,162.815 306.492,164.006 305.495,165.137 304.429,166.203 303.298,167.2 302.107,168.124 300.86,168.972 299.562,169.739 298.219,170.424 296.835,171.022 295.416,171.533 293.969,171.954 292.497,172.283 291.008,172.518 289.507,172.66 288,172.708 286.493,172.66 284.992,172.518 283.503,172.283 282.031,171.954 280.584,171.533 279.165,171.022 277.781,170.424 276.438,169.739 275.14,168.972 273.893,168.124 272.702,167.2 271.571,166.203 270.505,165.137 269.508,164.006 268.584,162.815 267.736,161.568 266.969,160.27 266.284,158.926 265.685,157.543 265.175,156.124 264.754,154.676 264.425,153.205 264.189,151.716 264.047,150.215 " style="fill:green;stroke:yellow;stroke-width:1;fill-rule:nonzero;" />
<polygon points="312,148.708 312.047,147.201 312.189,145.7 312.425,144.211 312.754,142.739 313.175,141.291 313.685,139.873 314.284,138.489 314.969,137.146 315.736,135.848 316.584,134.601 317.508,133.409 318.505,132.279 319.571,131.212 320.702,130.215 321.893,129.291 323.14,128.444 324.438,127.676 325.781,126.992 327.165,126.393 328.584,125.882 330.031,125.462 331.503,125.133 332.992,124.897 334.493,124.755 336,124.708 337.507,124.755 339.008,124.897 340.497,125.133 341.969,125.462 343.416,125.882 344.835,126.393 346.219,126.992 347.562,127.676 348.86,128.444 350.107,129.291 351.298,130.215 352.429,131.212 353.495,132.279 354.492,133.409 355.416,134.601 356.264,135.848 357.031,137.146 357.716,138.489 358.315,139.873 358.825,141.291 359.246,142.739 359.575,144.211 359.811,145.7 359.953,147.201 360,148.708 359.953,150.215 359.811,151.716 359.575,153.205 359.246,154.676 358.825,156.124 358.315,157.543 357.716,158.926 357.031,160.27 356.264,161.568 355.416,162.815 354.492,164.006 353.495,165.137 352.429,166.203 351.298,167.2 350.107,168.124 348.86,168.972 347.562,169.739 346.219,170.424 344.835,171.022 343.416,171.533 341.969,171.954 340.497,172.283 339.008,172.518 337.507,172.66 336,172.708 334.493,172.66 332.992,172.518 331.503,172.283 330.031,171.954 328.584,171.533 327.165,171.022 325.781,170.424 324.438,169.739 323.14,168.972 321.893,168.124 320.702,167.2 319.571,166.203 318.505,165.137 317.508,164.006 316.584,162.815 315.736,161.568 314.969,160.27 314.284,158.926 313.685,157.543 313.175,156.124 312.754,154.676 312.425,153.205 312.189,151.716 312.047,150.215 " style="fill:green;stroke:yellow;stroke-width:1;fill-rule:nonzero;" />
<polygon points="48,190.277 48.0474,188.77 48.1892,187.269 48.4251,185.78 48.754,184.308 49.1746,182.86 49.6854,181.442 50.2842,180.058 50.9686,178.715 51.7361,177.417 52.5836,176.17 53.5077,174.979 54.5048,173.848 55.5709,172.782 56.7018,171.785 57.8932,170.86 59.1402,170.013 60.4379,169.246 61.7813,168.561 63.165,167.962 64.5836,167.452 66.0314,167.031 67.5028,166.702 68.992,166.466 70.493,166.324 72,166.277 73.507,166.324 75.008,166.466 76.4972,166.702 77.9686,167.031 79.4164,167.452 80.835,167.962 82.2187,168.561 83.5621,169.246 84.8598,170.013 86.1068,170.86 87.2982,171.785 88.4291,172.782 89.4952,173.848 90.4923,174.979 91.4164,176.17 92.2639,177.417 93.0314,178.715 93.7158,180.058 94.3146,181.442 94.8254,182.86 95.246,184.308 95.5749,185.78 95.8108,187.269 95.9526,188.77 96,190.277 95.9526,191.784 95.8108,193.285 95.5749,194.774 95.246,196.245 94.8254,197.693 94.3146,199.112 93.7158,200.496 93.0314,201.839 92.2639,203.137 91.4164,204.384 90.4923,205.575 89.4952,206.706 88.4291,207.772 87.2982,208.769 86.1068,209.693 84.8598,210.541 83.5621,211.308 82.2187,211.993 80.835,212.592 79.4164,213.102 77.9686,213.523 76.4972,213.852 75.008,214.088 73.507,214.23 72,214.277 70.493,214.23 68.992,214.088 67.5028,213.852 66.0314,213.523 64.5836,213.102 63.165,212.592 61.7813,211.993 60.4379,211.308 59.1402,210.541 57.8932,209.693 56.7018,208.769 55.5709,207.772 54.5048,206.706 53.5077,205.575 52.5836,204.384 51.7361,203.137 50.9686,201.839 50.2842,200.496 49.6854,199.112 49.1746,197.693 48.754,196.245 48.4251,194.774 48.1892,193.285 48.0474,191.784 " style="fill:green;stroke:yellow;stroke-width:1;fill-rule:nonzero;" />
<polygon points="96,190.277 96.0474,188.77 96.1892,187.269 96.4251,185.78 96.754,184.308 97.1746,182.86 97.6854,181.442 98.2842,180.058 98.9686,178.715 99.7361,177.417 100.584,176.17 101.508,174.979 102.505,173.848 103.571,172.782 104.702,171.785 105.893,170.86 107.14,170.013 108.438,169.246 109.781,168.561 111.165,167.962 112.584,167.452 114.031,167.031 115.503,166.702 116.992,166.466 118.493,166.324 120,166.277 121.507,166.324 123.008,166.466 124.497,166.702 125.969,167.031 127.416,167.452 128.835,167.962 130.219,168.561 131.562,169.246 132.86,170.013 134.107,170.86 135.298,171.785 136.429,172.782 137.495,173.848 138.492,174.979 139.416,176.17 140.264,177.417 141.031,178.715 141.716,180.058 142.315,181.442 142.825,182.86 143.246,184.308 143.575,185.78 143.811,187.269 143.953,188.77 144,190.277 143.953,191.784 143.811,193.285 143.575,194.774 143.246,196.245 142.825,197.693 142.315,199.112 141.716,200.496 141.031,201.839 140.264,203.137 139.416,204.384 138.492,205.575 137.495,206.706 136.429,207.772 135.298,208.769 134.107,209.693 132.86,210.541 131.562,211.308 130.219,211.993 128.835,212.592 127.416,213.102 125.969,213.523 124.497,213.852 123.008,214.088 121.507,214.23 120,214.277 118.493,214.23 116.992,214.088 115.503,213.852 114.031,213.523 112.584,213.102 111.165,212.592 109.781,211.993 108.438,211.308 107.14,210.541 105.893,209.693 104.702,208.769 103.571,207.772 102.505,206.706 101.508,205.575 100.584,204.384 99.7361,203.137 98.9686,201.839 98.2842,200.496 97.6854,199.112 97.1746,197.693 96.754,196.245 96.4251,194.774 96.1892,193.285 96.0474,191.784 " style="fill:green;stroke:yellow;stroke-width:1;fill-rule:nonzero;" />
<polygon points="144,190.277 144.047,188.77 144.189,187.269 144.425,185.78 144.754,184.308 145.175,182.86 145.685,181.442 146.284,180.058 146.969,178.715 147.736,177.417 148.584,176.17 149.508,174.979 150.505,173.848 151.571,172.782 152.702,171.785 153.893,170.86 155.14,170.013 156.438,169.246 157.781,168.561 159.165,167.962 160.584,167.452 162.031,167.031 163.503,166.702 164.992,166.466 166.493,166.324 168,166.277 169.507,166.324 171.008,166.466 172.497,166.702 173.969,167.031 175.416,167.452 176.835,167.962 178.219,168.561 179.562,169.246 180.86,170.013 182.107,170.86 183.298,171.785 184.429,172.782 185.495,173.848 186.492,174.979 187.416,176.17 188.264,177.417 189.031,178.715 189.716,180.058 190.315,181.442 190.825,182.86 191.246,184.308 191.575,185.78 191.811,187.269 191.953,188.77 192,190.277 191.953,191.784 191.811,193.285 191.575,194.774 191.246,196.245 190.825,197.693 190.315,199.112 189.716,200.496 189.031,201.839 188.264,203.137 187.416,204.384 186.492,205.575 185.495,206.706 184.429,207.772 183.298,208.769 182.107,209.693 180.86,210.541 179.562,211.308 178.219,211.993 176.835,212.592 175.416,213.102 173.969,213.523 172.497,213.852 171.008,214.088 169.507,214.23 168,214.277 166.493,214.23 164.992,214.088 163.503,213.852 162.031,213.523 160.584,213.102 159.165,212.592 157.781,211.993 156.438,211.308 155.14,210.541 153.893,209.693 152.702,208.769 151.571,207.772 150.505,206.706 149.508,205.575 148.584,204.384 147.736,203.137 146.969,201.839 146.284,200.496 145.685,199.112 145.175,197.693 144.754,196.245 144.425,194.774 144.189,193.285 144.047,191.784 " style="fill:green;stroke:yellow;stroke-width:1;fill-rule:nonzero;" />
<polygon points="192,190.277 192.047,188.77 192.189,187.269 192.425,185.78 192.754,184.308 193.175,182.86 193.685,181.442 194.284,180.058 194.969,178.715 195.736,177.417 196.584,176.17 197.508,174.979 198.505,173.848 199.571,172.782 200.702,171.785 201.893,170.86 203.14,170.013 204.438,169.246 205.781,168.561 207.165,167.962 208.584,167.452 210.031,167.031 211.503,166.702 212.992,166.466 214.493,166.324 216,166.277 217.507,166.324 219.008,166.466 220.497,166.702 221.969,167.031 223.416,167.452 224.835,167.962 226.219,168.561 227.562,169.246 228.86,170.013 230.107,170.86 231.298,171.785 232.429,172.782 233.495,173.848 234.492,174.979 235.416,176.17 236.264,177.417 237.031,178.715 237.716,180.058 238.315,181.442 238.825,182.86 239.246,184.308 239.575,185.78 239.811,187.269 239.953,188.77 240,190.277 239.953,191.784 239.811,193.285 239.575,194.774 239.246,196.245 238.825,197.693 238.315,199.112 237.716,200.496 237.031,201.839 236.264,203.137 235.416,204.384 234.492,205.575 233.495,206.706 232.429,207.772 231.298,208.769 230.107,209.693 228.86,210.541 227.562,211.308 226.219,211.993 224.835,212.592 223.416,213.102 221.969,213.523 220.497,213.852 219.008,214.088 217.507,214.23 216,214.277 214.493,214.23 212.992,214.088 211.503,213.852 210.031,213.523 208.584,213.102 207.165,212.592 205.781,211.993 204.438,211.308 203.14,210.541 201.893,209.693 200.702,208.769 199.571,207.772 198.505,206.706 197.508,205.575 196.584,204.384 195.736,203.137 194.969,201.839 194.284,200.496 193.685,199.112 193.175,197.693 192.754,196.245 192.425,194.774 192.189,193.285 192.047,191.784 " style="fill:green;stroke:yellow;stroke-width:1;fill-rule:nonzero;" />
<polygon points="240,190.277 240.047,188.77 240.189,187.269 240.425,185.78 240.754,184.308 241.175,182.86 241.685,181.442 242.284,180.058 242.969,178.715 243.736,177.417 244.584,176.17 245.508,174.979 246.505,173.848 247.571,172.782 248.702,171.785 249.893,170.86 251.14,170.013 252.438,169.246 253.781,168.561 255.165,167.962 256.584,167.452 258.031,167.031 259.503,166.702 260.992,166.466 262.493,166.324 264,166.277 265.507,166.324 267.008,166.466 268.497,166.702 269.969,167.031 271.416,167.452 272.835,167.962 274.219,168.561 275.562,169.246 276.86,170.013 278.107,170.86 279.298,171.785 280.429,172.782 281.495,173.848 282.492,174.979 283.416,176.17 284.264,177.417 285.031,178.715 285.716,180.058 286.315,181.442 286.825,182.86 287.246,184.308 287.575,185.78 287.811,187.269 287.953,188.77 288,190.277 287.953,191.784 287.811,193.285 287.575,194.774 287.246,196.245 286.825,197.693 286.315,199.112 285.716,200.496 285.031,201.839 284.264,203.137 283.416,204.384 282.492,205.575 281.495,206.706 280.429,207.772 279.298,208.769 278.107,209.693 276.86,210.541 275.562,211.308 274.219,211.993 272.835,212.592 271.416,213.102 269.969,213.523 268.497,213.852 267.008,214.088 265.507,214.23 264,214.277 262.493,214.23 260.992,214.088 259.503,213.852 258.031,213.523 256.584,213.102 255.165,212.592 253.781,211.993 252.438,211.308 251.14,210.541 249.893,209.693 248.702,208.769 247.571,207.772 246.505,206.706 245.508,205.575 244.584,204.384 243.736,203.137 242.969,201.839 242.284,200.496 241.685,199.112 241.175,197.693 240.754,196.245 240.425,194.774 240.189,193.285 240.047,191.784 " style="fill:green;stroke:yellow;stroke-width:1;fill-rule:nonzero;" />
<polygon points="288,190.277 288.047,188.77 288.189,187.269 288.425,185.78 288.754,184.308 289.175,182.86 289.685,181.442 290.284,180.058 290.969,178.715 291.736,177.417 292.584,176.17 293.508,174.979 294.505,173.848 295.571,172.782 296.702,171.785 297.893,170.86 299.14,170.013 300.438,169.246 301.781,168.561 303.165,167.962 304.584,167.452 306.031,167.031 307.503,166.702 308.992,166.466 310.493,166.324 312,166.277 313.507,166.324 315.008,166.466 316.497,166.702 317.969,167.031 319.416,167.452 320.835,167.962 322.219,168.561 323.562,169.246 324.86,170.013 326.107,170.86 327.298,171.785 328.429,172.782 329.495,173.848 330.492,174.979 331.416,176.17 332.264,177.417 333.031,178.715 333.716,180.058 334.315,181.442 334.825,182.86 335.246,184.308 335.575,185.78 335.811,187.269 335.953,188.77 336,190.277 335.953,191.784 335.811,193.285 335.575,194.774 335.246,196.245 334.825,197.693 334.315,199.112 333.716,200.496 333.031,201.839 332.264,203.137 331.416,204.384 330.492,205.575 329.495,206.706 328.429,207.772 327.298,208.769 326.107,209.693 324.86,210.541 323.562,211.308 322.219,211.993 320.835,212.592 319.416,213.102 317.969,213.523 316.497,213.852 315.008,214.088 313.507,214.23 312,214.277 310.493,214.23 308.992,214.088 307.503,213.852 306.031,213.523 304.584,213.102 303.165,212.592 301.781,211.993 300.438,211.308 299.14,210.541 297.893,209.693 296.702,208.769 295.571,207.772 294.505,206.706 293.508,205.575 292.584,204.384 291.736,203.137 290.969,201.839 290.284,200.496 289.685,199.112 289.175,197.693 288.754,196.245 288.425,194.774 288.189,193.285 288.047,191.784 " style="fill:green;stroke:yellow;stroke-width:1;fill-rule:nonzero;" />
<polygon points="336,190.277 336.047,188.77 336.189,187.269 336.425,185.78 336.754,184.308 337.175,182.86 337.685,181.442 338.284,180.058 338.969,178.715 339.736,177.417 340.584,176.17 341.508,174.979 342.505,173.848 343.571,172.782 344.702,171.785 345.893,170.86 347.14,170.013 348.438,169.246 349.781,168.561 351.165,167.962 352.584,167.452 354.031,167.031 355.503,166.702 356.992,166.466 358.493,166.324 360,166.277 361.507,166.324 363.008,166.466 364.497,166.702 365.969,167.031 367.416,167.452 368.835,167.962 370.219,168.561 371.562,169.246 372.86,170.013 374.107,170.86 375.298,171.785 376.429,172.782 377.495,173.848 378.492,174.979 379.416,176.17 380.264,177.417 381.031,178.715 381.716,180.058 382.315,181.442 382.825,182.86 383.246,184.308 383.575,185.78 383.811,187.269 383.953,188.77 384,190.277 383.953,191.784 383.811,193.285 383.575,194.774 383.246,196.245 382.825,197.693 382.315,199.112 381.716,200.496 381.031,201.839 380.264,203.137 379.416,204.384 378.492,205.575 377.495,206.706 376.429,207.772 375.298,208.769 374.107,209.693 372.86,210.541 371.562,211.308 370.219,211.993 368.835,212.592 367.416,213.102 365.969,213.523 364.497,213.852 363.008,214.088 361.507,214.23 360,214.277 358.493,214.23 356.992,214.088 355.503,213.852 354.031,213.523 352.584,213.102 351.165,212.592 349.781,211.993 348.438,211.308 347.14,210.541 345.893,209.693 344.702,208.769 343.571,207.772 342.505,206.706 341.508,205.575 340.584,204.384 339.736,203.137 338.969,201.839 338.284,200.496 337.685,199.112 337.175,197.693 336.754,196.245 336.425,194.774 336.189,193.285 336.047,191.784 " style="fill:green;stroke:yellow;stroke-width:1;fill-rule:nonzero;" />
<polygon points="24,231.846 24.0474,230.339 24.1892,228.838 24.4251,227.349 24.754,225.878 25.1746,224.43 25.6854,223.011 26.2842,221.627 26.9686,220.284 27.7361,218.986 28.5836,217.739 29.5077,216.548 30.5048,215.417 31.5709,214.351 32.7018,213.354 33.8932,212.43 35.1402,211.582 36.4379,210.815 37.7813,210.13 39.165,209.531 40.5836,209.021 42.0314,208.6 43.5028,208.271 44.992,208.035 46.493,207.893 48,207.846 49.507,207.893 51.008,208.035 52.4972,208.271 53.9686,208.6 55.4164,209.021 56.835,209.531 58.2187,210.13 59.5621,210.815 60.8598,211.582 62.1068,212.43 63.2982,213.354 64.4291,214.351 65.4952,215.417 66.4923,216.548 67.4164,217.739 68.2639,218.986 69.0314,220.284 69.7158,221.627 70.3146,223.011 70.8254,224.43 71.246,225.878 71.5749,227.349 71.8108,228.838 71.9526,230.339 72,231.846 71.9526,233.353 71.8108,234.854 71.5749,236.343 71.246,237.815 70.8254,239.263 70.3146,240.681 69.7158,242.065 69.0314,243.408 68.2639,244.706 67.4164,245.953 66.4923,247.144 65.4952,248.275 64.4291,249.341 63.2982,250.338 62.1068,251.263 60.8598,252.11 59.5621,252.877 58.2187,253.562 56.835,254.161 55.4164,254.671 53.9686,255.092 52.4972,255.421 51.008,255.657 49.507,255.799 48,255.846 46.493,255.799 44.992,255.657 43.5028,255.421 42.0314,255.092 40.5836,254.671 39.165,254.161 37.7813,253.562 36.4379,252.877 35.1402,252.11 33.8932,251.263 32.7018,250.338 31.5709,249.341 30.5048,248.275 29.5077,247.144 28.5836,245.953 27.7361,244.706 26.9686,243.408 26.2842,242.065 25.6854,240.681 25.1746,239.263 24.754,237.815 24.4251,236.343 24.1892,234.854 24.0474,233.353 " style="fill:green;stroke:yellow;stroke-width:1;fill-rule:nonzero;" />
<polygon points="72,231.846 72.0474,230.339 72.1892,228.838 72.4251,227.349 72.754,225.878 73.1746,224.43 73.6854,223.011 74.2842,221.627 74.9686,220.284 75.7361,218.986 76.5836,217.739 77.5077,216.548 78.5048,215.417 79.5709,214.351 80.7018,213.354 81.8932,212.43 83.1402,211.582 84.4379,210.815 85.7813,210.13 87.165,209.531 88.5836,209.021 90.0314,208.6 91.5028,208.271 92.992,208.035 94.493,207.893 96,207.846 97.507,207.893 99.008,208.035 100.497,208.271 101.969,208.6 103.416,209.021 104.835,209.531 106.219,210.13 107.562,210.815 108.86,211.582 110.107,212.43 111.298,213.354 112.429,214.351 113.495,215.417 114.492,216.548 115.416,217.739 116.264,218.986 117.031,220.284 117.716,221.627 118.315,223.011 118.825,224.43 119.246,225.878 119.575,227.349 119.811,228.838 119.953,230.339 120,231.846 119.953,233.353 119.811,234.854 119.575,236.343 119.246,237.815 118.825,239.263 118.315,240.681 117.716,242.065 117.031,243.408 116.264,244.706 115.416,245.953 114.492,247.144 113.495,248.275 112.429,249.341 111.298,250.338 110.107,251.263 108.86,252.11 107.562,252.877 106.219,253.562 104.835,254.161 103.416,254.671 101.969,255.092 100.497,255.421 99.008,255.657 97.507,255.799 96,255.846 94.493,255.799 92.992,255.657 91.5028,255.421 90.0314,255.092 88.5836,254.671 87.165,254.161 85.7813,253.562 84.4379,252.877 83.1402,252.11 81.8932,251.263 80.7018,250.338 79.5709,249.341 78.5048,248.275 77.5077,247.144 76.5836,245.953 75.7361,244.706 74.9686,243.408 74.2842,242.065 73.6854,240.681 73.1746,239.263 72.754,237.815 72.4251,236.343 72.1892,234.854 72.0474,233.353 " style="fill:green;stroke:yellow;stroke-width:1;fill-rule:nonzero;" />
<polygon points="120,231.846 120.047,230.339 120.189,228.838 120.425,227.349 120.754,225.878 121.175,224.43 121.685,223.011 122.284,221.627 122.969,220.284 123.736,218.986 124.584,217.739 125.508,216.548 126.505,215.417 127.571,214.351 128.702,213.354 129.893,212.43 131.14,211.582 132.438,210.815 133.781,210.13 135.165,209.531 136.584,209.021 138.031,208.6 139.503,208.271 140.992,208.035 142.493,207.893 144,207.846 145.507,207.893 147.008,208.035 148.497,208.271 149.969,208.6 151.416,209.021 152.835,209.531 154.219,210.13 155.562,210.815 156.86,211.582 158.107,212.43 159.298,213.354 160.429,214.351 161.495,215.417 162.492,216.548 163.416,217.739 164.264,218.986 165.031,220.284 165.716,221.627 166.315,223.011 166.825,224.43 167.246,225.878 167.575,227.349 167.811,228.838 167.953,230.339 168,231.846 167.953,233.353 167.811,234.854 167.575,236.343 167.246,237.815 166.825,239.263 166.315,240.681 165.716,242.065 165.031,243.408 164.264,244.706 163.416,245.953 162.492,247.144 161.495,248.275 160.429,249.341 159.298,250.338 158.107,251.263 156.86,252.11 155.562,252.877 154.219,253.562 152.835,254.161 151.416,254.671 149.969,255.092 148.497,255.421 147.008,255.657 145.507,255.799 144,255.846 142.493,255.799 140.992,255.657 139.503,255.421 138.031,255.092 136.584,254.671 135.165,254.161 133.781,253.562 132.438,252.877 131.14,252.11 129.893,251.263 128.702,250.338 127.571,249.341 126.505,248.275 125.508,247.144 124.584,245.953 123.736,244.706 122.969,243.408 122.284,242.065 121.685,240.681 121.175,239.263 120.754,237.815 120.425,236.343 120.189,234.854 120.047,233.353 " style="fill:green;stroke:yellow;stroke-width:1;fill-rule:nonzero;" />
<polygon points="168,231.846 168.047,230.339 168.189,228.838 168.425,227.349 168.754,225.878 169.175,224.43 169.685,223.011 170.284,221.627 170.969,220.284 171.736,218.986 172.584,217.739 173.508,216.548 174.505,215.417 175.571,214.351 176.702,213.354 177.893,212.43 179.14,211.582 180.438,210.815 181.781,210.13 183.165,209.531 184.584,209.021 186.031,208.6 187.503,208.271 188.992,208.035 190.493,207.893 192,207.846 193.507,207.893 195.008,208.035 196.497,208.271 197.969,208.6 199.416,209.021 200.835,209.531 202.219,210.13 203.562,210.815 204.86,211.582 206.107,212.43 207.298,213.354 208.429,214.351 209.495,215.417 210.492,216.548 211.416,217.739 212.264,218.986 213.031,220.284 213.716,221.627 214.315,223.011 214.825,224.43 215.246,225.878 215.575,227.349 215.811,228.838 215.953,230.339 216,231.846 215.953,233.353 215.811,234.854 215.575,236.343 215.246,237.815 214.825,239.263 214.315,240.681 213.716,242.065 213.031,243.408 212.264,244.706 211.416,245.953 210.492,247.144 209.495,248.275 208.429,249.341 207.298,250.338 206.107,251.263 204.86,252.11 203.562,252.877 202.219,253.562 200.835,254.161 199.416,254.671 197.969,255.092 196.497,255.421 195.008,255.657 193.507,255.799 192,255.846 190.493,255.799 188.992,255.657 187.503,255.421 186.031,255.092 184.584,254.671 183.165,254.161 181.781,253.562 180.438,252.877 179.14,252.11 177.893,251.263 176.702,250.338 175.571,249.341 174.505,248.275 173.508,247.144 172.584,245.953 171.736,244.706 170.969,243.408 170.284,242.065 169.685,240.681 169.175,239.263 168.754,237.815 168.425,236.343 168.189,234.854 168.047,233.353 " style="fill:green;stroke:yellow;stroke-width:1;fill-rule:nonzero;" />
<polygon points="216,231.846 216.047,230.339 216.189,228.838 216.425,227.349 216.754,225.878 217.175,224.43 217.685,223.011 218.284,221.627 218.969,220.284 219.736,218.986 220.584,217.739 221.508,216.548 222.505,215.417 223.571,214.351 224.702,213.354 225.893,212.43 227.14,211.582 228.438,210.815 229.781,210.13 231.165,209.531 232.584,209.021 234.031,208.6 235.503,208.271 236.992,208.035 238.493,207.893 240,207.846 241.507,207.893 243.008,208.035 244.497,208.271 245.969,208.6 247.416,209.021 248.835,209.531 250.219,210.13 251.562,210.815 252.86,211.582 254.107,212.43 255.298,213.354 256.429,214.351 257.495,215.417 258.492,216.548 259.416,217.739 260.264,218.986 261.031,220.284 261.716,221.627 262.315,223.011 262.825,224.43 263.246,225.878 263.575,227.349 263.811,228.838 263.953,230.339 264,231.846 263.953,233.353 263.811,234.854 263.575,236.343 263.246,237.815 262.825,239.263 262.315,240.681 261.716,242.065 261.031,243.408 260.264,244.706 259.416,245.953 258.492,247.144 257.495,248.275 256.429,249.341 255.298,250.338 254.107,251.263 252.86,252.11 251.562,252.877 250.219,253.562 248.835,254.161 247.416,254.671 245.969,255.092 244.497,255.421 243.008,255.657 241.507,255.799 240,255.846 238.493,255.799 236.992,255.657 235.503,255.421 234.031,255.092 232.584,254.671 231.165,254.161 229.781,253.562 228.438,252.877 227.14,252.11 225.893,251.263 224.702,250.338 223.571,249.341 222.505,248.275 221.508,247.144 220.584,245.953 219.736,244.706 218.969,243.408 218.284,242.065 217.685,240.681 217.175,239.263 216.754,237.815 216.425,236.343 216.189,234.854 216.047,233.353 " style="fill:green;stroke:yellow;stroke-width:1;fill-rule:nonzero;" />
<polygon points="264,231.846 264.047,230.339 264.189,228.838 264.425,227.349 264.754,225.878 265.175,224.43 265.685,223.011 266.284,221.627 266.969,220.284 267.736,218.986 268.584,217.739 269.508,216.548 270.505,215.417 271.571,214.351 272.702,213.354 273.893,212.43 275.14,211.582 276.438,210.815 277.781,210.13 279.165,209.531 280.584,209.021 282.031,208.6 283.503,208.271 284.992,208.035 286.493,207.893 288,207.846 289.507,207.893 291.008,208.035 292.497,208.271 293.969,208.6 295.416,209.021 296.835,209.531 298.219,210.13 299.562,210.815 300.86,211.582 302.107,212.43 303.298,213.354 304.429,214.351 305.495,215.417 306.492,216.548 307.416,217.739 308.264,218.986 309.031,220.284 309.716,221.627 310.315,223.011 310.825,224.43 311.246,225.878 311.575,227.349 311.811,228.838 311.953,230.339 312,231.846 311.953,233.353 311.811,234.854 311.575,236.343 311.246,237.815 310.825,239.263 310.315,240.681 309.716,242.065 309.031,243.408 308.264,244.706 307.416,245.953 306.492,247.144 305.495,248.275 304.429,249.341 303.298,250.338 302.107,251.263 300.86,252.11 299.562,252.877 298.219,253.562 296.835,254.161 295.416,254.671 293.969,255.092 292.497,255.421 291.008,255.657 289.507,255.799 288,255.846 286.493,255.799 284.992,255.657 283.503,255.421 282.031,255.092 280.584,254.671 279.165,254.161 277.781,253.562 276.438,252.877 275.14,252.11 273.893,251.263 272.702,250.338 271.571,249.341 270.505,248.275 269.508,247.144 268.584,245.953 267.736,244.706 266.969,243.408 266.284,242.065 265.685,240.681 265.175,239.263 264.754,237.815 264.425,236.343 264.189,234.854 264.047,233.353 " style="fill:green;stroke:yellow;stroke-width:1;fill-rule:nonzero;" />
<polygon points="312,231.846 312.047,230.339 312.189,228.838 312.425,227.349 312.754,225.878 313.175,224.43 313.685,223.011 314.284,221.627 314.969,220.284 315.736,218.986 316.584,217.739 317.508,216.548 318.505,215.417 319.571,214.351 320.702,213.354 321.893,212.43 323.14,211.582 324.438,210.815 325.781,210.13 327.165,209.531 328.584,209.021 330.031,208.6 331.503,208.271 332.992,208.035 334.493,207.893 336,207.846 337.507,207.893 339.008,208.035 340.497,208.271 341.969,208.6 343.416,209.021 344.835,209.531 346.219,210.13 347.562,210.815 348.86,211.582 350.107,212.43 351.298,213.354 352.429,214.351 353.495,215.417 354.492,216.548 355.416,217.739 356.264,218.986 357.031,220.284 357.716,221.627 358.315,223.011 358.825,224.43 359.246,225.878 359.575,227.349 359.811,228.838 359.953,230.339 360,231.846 359.953,233.353 359.811,234.854 359.575,236.343 359.246,237.815 358.825,239.263 358.315,240.681 357.716,242.065 357.031,243.408 356.264,244.706 355.416,245.953 354.492,247.144 353.495,248.275 352.429,249.341 351.298,250.338 350.107,251.263 348.86,252.11 347.562,252.877 346.219,253.562 344.835,254.161 343.416,254.671 341.969,255.092 340.497,255.421 339.008,255.657 337.507,255.799 336,255.846 334.493,255.799 332.992,255.657 331.503,255.421 330.031,255.092 328.584,254.671 327.165,254.161 325.781,253.562 324.438,252.877 323.14,252.11 321.893,251.263 320.702,250.338 319.571,249.341 318.505,248.275 317.508,247.144 316.584,245.953 315.736,244.706 314.969,243.408 314.284,242.065 313.685,240.681 313.175,239.263 312.754,237.815 312.425,236.343 312.189,234.854 312.047,233.353 " style="fill:green;stroke:yellow;stroke-width:1;fill-rule:nonzero;" />
<polygon points="48,273.415 48.0474,271.908 48.1892,270.407 48.4251,268.918 48.754,267.447 49.1746,265.999 49.6854,264.58 50.2842,263.197 50.9686,261.853 51.7361,260.555 52.5836,259.308 53.5077,258.117 54.5048,256.986 55.5709,255.92 56.7018,254.923 57.8932,253.999 59.1402,253.151 60.4379,252.384 61.7813,251.699 63.165,251.101 64.5836,250.59 66.0314,250.169 67.5028,249.84 68.992,249.605 70.493,249.463 72,249.415 73.507,249.463 75.008,249.605 76.4972,249.84 77.9686,250.169 79.4164,250.59 80.835,251.101 82.2187,251.699 83.5621,252.384 84.8598,253.151 86.1068,253.999 87.2982,254.923 88.4291,255.92 89.4952,256.986 90.4923,258.117 91.4164,259.308 92.2639,260.555 93.0314,261.853 93.7158,263.197 94.3146,264.58 94.8254,265.999 95.246,267.447 95.5749,268.918 95.8108,270.407 95.9526,271.908 96,273.415 95.9526,274.922 95.8108,276.423 95.5749,277.912 95.246,279.384 94.8254,280.832 94.3146,282.25 93.7158,283.634 93.0314,284.977 92.2639,286.275 91.4164,287.522 90.4923,288.713 89.4952,289.844 88.4291,290.911 87.2982,291.908 86.1068,292.832 84.8598,293.679 83.5621,294.447 82.2187,295.131 80.835,295.73 79.4164,296.241 77.9686,296.661 76.4972,296.99 75.008,297.226 73.507,297.368 72,297.415 70.493,297.368 68.992,297.226 67.5028,296.99 66.0314,296.661 64.5836,296.241 63.165,295.73 61.7813,295.131 60.4379,294.447 59.1402,293.679 57.8932,292.832 56.7018,291.908 55.5709,290.911 54.5048,289.844 53.5077,288.713 52.5836,287.522 51.7361,286.275 50.9686,284.977 50.2842,283.634 49.6854,282.25 49.1746,280.832 48.754,279.384 48.4251,277.912 48.1892,276.423 48.0474,274.922 " style="fill:green;stroke:yellow;stroke-width:1;fill-rule:nonzero;" />
<polygon points="96,273.415 96.0474,271.908 96.1892,270.407 96.4251,268.918 96.754,267.447 97.1746,265.999 97.6854,264.58 98.2842,263.197 98.9686,261.853 99.7361,260.555 100.584,259.308 101.508,258.117 102.505,256.986 103.571,255.92 104.702,254.923 105.893,253.999 107.14,253.151 108.438,252.384 109.781,251.699 111.165,251.101 112.584,250.59 114.031,250.169 115.503,249.84 116.992,249.605 118.493,249.463 120,249.415 121.507,249.463 123.008,249.605 124.497,249.84 125.969,250.169 127.416,250.59 128.835,251.101 130.219,251.699 131.562,252.384 132.86,253.151 134.107,253.999 135.298,254.923 136.429,255.92 137.495,256.986 138.492,258.117 139.416,259.308 140.264,260.555 141.031,261.853 141.716,263.197 142.315,264.58 142.825,265.999 143.246,267.447 143.575,268.918 143.811,270.407 143.953,271.908 144,273.415 143.953,274.922 143.811,276.423 143.575,277.912 143.246,279.384 142.825,280.832 142.315,282.25 141.716,283.634 141.031,284.977 140.264,286.275 139.416,287.522 138.492,288.713 137.495,289.844 136.429,290.911 135.298,291.908 134.107,292.832 132.86,293.679 131.562,294.447 130.219,295.131 128.835,295.73 127.416,296.241 125.969,296.661 124.497,296.99 123.008,297.226 121.507,297.368 120,297.415 118.493,297.368 116.992,297.226 115.503,296.99 114.031,296.661 112.584,296.241 111.165,295.73 109.781,295.131 108.438,294.447 107.14,293.679 105.893,292.832 104.702,291.908 103.571,290.911 102.505,289.844 101.508,288.713 100.584,287.522 99.7361,286.275 98.9686,284.977 98.2842,283.634 97.6854,282.25 97.1746,280.832 96.754,279.384 96.4251,277.912 96.1892,276.423 96.0474,274.922 " style="fill:green;stroke:yellow;stroke-width:1;fill-rule:nonzero;" />
<polygon points="144,273.415 144.047,271.908 144.189,270.407 144.425,268.918 144.754,267.447 145.175,265.999 145.685,264.58 146.284,263.197 146.969,261.853 147.736,260.555 148.584,259.308 149.508,258.117 150.505,256.986 151.571,255.92 152.702,254.923 153.893,253.999 155.14,253.151 156.438,252.384 157.781,251.699 159.165,251.101 160.584,250.59 162.031,250.169 163.503,249.84 164.992,249.605 166.493,249.463 168,249.415 169.507,249.463 171.008,249.605 172.497,249.84 173.969,250.169 175.416,250.59 176.835,251.101 178.219,251.699 179.562,252.384 180.86,253.151 182.107,253.999 183.298,254.923 184.429,255.92 185.495,256.986 186.492,258.117 187.416,259.308 188.264,260.555 189.031,261.853 189.716,263.197 190.315,264.58 190.825,265.999 191.246,267.447 191.575,268.918 191.811,270.407 191.953,271.908 192,273.415 191.953,274.922 191.811,276.423 191.575,277.912 191.246,279.384 190.825,280.832 190.315,282.25 189.716,283.634 189.031,284.977 188.264,286.275 187.416,287.522 186.492,288.713 185.495,289.844 184.429,290.911 183.298,291.908 182.107,292.832 180.86,293.679 179.562,294.447 178.219,295.131 176.835,295.73 175.416,296.241 173.969,296.661 172.497,296.99 171.008,297.226 169.507,297.368 168,297.415 166.493,297.368 164.992,297.226 163.503,296.99 162.031,296.661 160.584,296.241 159.165,295.73 157.781,295.131 156.438,294.447 155.14,293.679 153.893,292.832 152.702,291.908 151.571,290.911 150.505,289.844 149.508,288.713 148.584,287.522 147.736,286.275 146.969,284.977 146.284,283.634 145.685,282.25 145.175,280.832 144.754,279.384 144.425,277.912 144.189,276.423 144.047,274.922 " style="fill:green;stroke:yellow;stroke-width:1;fill-rule:nonzero;" />
<polygon points="192,273.415 192.047,271.908 192.189,270.407 192.425,268.918 192.754,267.447 193.175,265.999 193.685,264.58 194.284,263.197 194.969,261.853 195.736,260.555 196.584,259.308 197.508,258.117 198.505,256.986 199.571,255.92 200.702,254.923 201.893,253.999 203.14,253.151 204.438,252.384 205.781,251.699 207.165,251.101 208.584,250.59 210.031,250.169 211.503,249.84 212.992,249.605 214.493,249.463 216,249.415 217.507,249.463 219.008,249.605 220.497,249.84 221.969,250.169 223.416,250.59 224.835,251.101 226.219,251.699 227.562,252.384 228.86,253.151 230.107,253.999 231.298,254.923 232.429,255.92 233.495,256.986 234.492,258.117 235.416,259.308 236.264,260.555 237.031,261.853 237.716,263.197 238.315,264.58 238.825,265.999 239.246,267.447 239.575,268.918 239.811,270.407 239.953,271.908 240,273.415 239.953,274.922 239.811,276.423 239.575,277.912 239.246,279.384 238.825,280.832 238.315,282.25 237.716,283.634 237.031,284.977 236.264,286.275 235.416,287.522 234.492,288.713 233.495,289.844 232.429,290.911 231.298,291.908 230.107,292.832 228.86,293.679 227.562,294.447 226.219,295.131 224.835,295.73 223.416,296.241 221.969,296.661 220.497,296.99 219.008,297.226 217.507,297.368 216,297.415 214.493,297.368 212.992,297.226 211.503,296.99 210.031,296.661 208.584,296.241 207.165,295.73 205.781,295.131 204.438,294.447 203.14,293.679 201.893,292.832 200.702,291.908 199.571,290.911 198.505,289.844 197.508,288.713 196.584,287.522 195.736,286.275 194.969,284.977 194.284,283.634 193.685,282.25 193.175,280.832 192.754,279.384 192.425,277.912 192.189,276.423 192.047,274.922 " style="fill:green;stroke:yellow;stroke-width:1;fill-rule:nonzero;" />
<polygon points="240,273.415 240.047,271.908 240.189,270.407 240.425,268.918 240.754,267.447 241.175,265.999 241.685,264.58 242.284,263.197 242.969,261.853 243.736,260.555 244.584,259.308 245.508,258.117 246.505,256.986 247.571,255.92 248.702,254.923 249.893,253.999 251.14,253.151 252.438,252.384 253.781,251.699 255.165,251.101 256.584,250.59 258.031,250.169 259.503,249.84 260.992,249.605 262.493,249.463 264,249.415 265.507,249.463 267.008,249.605 268.497,249.84 269.969,250.169 271.416,250.59 272.835,251.101 274.219,251.699 275.562,252.384 276.86,253.151 278.107,253.999 279.298,254.923 280.429,255.92 281.495,256.986 282.492,258.117 283.416,259.308 284.264,260.555 285.031,261.853 285.716,263.197 286.315,264.58 286.825,265.999 287.246,267.447 287.575,268.918 287.811,270.407 287.953,271.908 288,273.415 287.953,274.922 287.811,276.423 287.575,277.912 287.246,279.384 286.825,280.832 286.315,282.25 285.716,283.634 285.031,284.977 284.264,286.275 283.416,287.522 282.492,288.713 281.495,289.844 280.429,290.911 279.298,291.908 278.107,292.832 276.86,293.679 275.562,294.447 274.219,295.131 272.835,295.73 271.416,296.241 269.969,296.661 268.497,296.99 267.008,297.226 265.507,297.368 264,297.415 262.493,297.368 260.992,297.226 259.503,296.99 258.031,296.661 256.584,296.241 255.165,295.73 253.781,295.131 252.438,294.447 251.14,293.679 249.893,292.832 248.702,291.908 247.571,290.911 246.505,289.844 245.508,288.713 244.584,287.522 243.736,286.275 242.969,284.977 242.284,283.634 241.685,282.25 241.175,280.832 240.754,279.384 240.425,277.912 240.189,276.423 240.047,274.922 " style="fill:green;stroke:yellow;stroke-width:1;fill-rule:nonzero;" />
<polygon points="288,273.415 288.047,271.908 288.189,270.407 288.425,268.918 288.754,267.447 289.175,265.999 289.685,264.58 290.284,263.197 290.969,261.853 291.736,260.555 292.584,259.308 293.508,258.117 294.505,256.986 295.571,255.92 296.702,254.923 297.893,253.999 299.14,253.151 300.438,252.384 301.781,251.699 303.165,251.101 304.584,250.59 306.031,250.169 307.503,249.84 308.992,249.605 310.493,249.463 312,249.415 313.507,249.463 315.008,249.605 316.497,249.84 317.969,250.169 319.416,250.59 320.835,251.101 322.219,251.699 323.562,252.384 324.86,253.151 326.107,253.999 327.298,254.923 328.429,255.92 329.495,256.986 330.492,258.117 331.416,259.308 332.264,260.555 333.031,261.853 333.716,263.197 334.315,264.58 334.825,265.999 335.246,267.447 335.575,268.918 335.811,270.407 335.953,271.908 336,273.415 335.953,274.922 335.811,276.423 335.575,277.912 335.246,279.384 334.825,280.832 334.315,282.25 333.716,283.634 333.031,284.977 332.264,286.275 331.416,287.522 330.492,288.713 329.495,289.844 328.429,290.911 327.298,291.908 326.107,292.832 324.86,293.679 323.562,294.447 322.219,295.131 320.835,295.73 319.416,296.241 317.969,296.661 316.497,296.99 315.008,297.226 313.507,297.368 312,297.415 310.493,297.368 308.992,297.226 307.503,296.99 306.031,296.661 304.584,296.241 303.165,295.73 301.781,295.131 300.438,294.447 299.14,293.679 297.893,292.832 296.702,291.908 295.571,290.911 294.505,289.844 293.508,288.713 292.584,287.522 291.736,286.275 290.969,284.977 290.284,283.634 289.685,282.25 289.175,280.832 288.754,279.384 288.425,277.912 288.189,276.423 288.047,274.922 " style="fill:green;stroke:yellow;stroke-width:1;fill-rule:nonzero;" />
<polygon points="72,314.985 72.0474,313.478 72.1892,311.977 72.4251,310.487 72.754,309.016 73.1746,307.568 73.6854,306.15 74.2842,304.766 74.9686,303.422 75.7361,302.125 76.5836,300.878 77.5077,299.686 78.5048,298.555 79.5709,297.489 80.7018,296.492 81.8932,295.568 83.1402,294.721 84.4379,293.953 85.7813,293.269 87.165,292.67 88.5836,292.159 90.0314,291.739 91.5028,291.41 92.992,291.174 94.493,291.032 96,290.985 97.507,291.032 99.008,291.174 100.497,291.41 101.969,291.739 103.416,292.159 104.835,292.67 106.219,293.269 107.562,293.953 108.86,294.721 110.107,295.568 111.298,296.492 112.429,297.489 113.495,298.555 114.492,299.686 115.416,300.878 116.264,302.125 117.031,303.422 117.716,304.766 118.315,306.15 118.825,307.568 119.246,309.016 119.575,310.487 119.811,311.977 119.953,313.478 120,314.985 119.953,316.492 119.811,317.993 119.575,319.482 119.246,320.953 118.825,322.401 118.315,323.82 117.716,325.203 117.031,326.547 116.264,327.844 115.416,329.091 114.492,330.283 113.495,331.414 112.429,332.48 111.298,333.477 110.107,334.401 108.86,335.248 107.562,336.016 106.219,336.7 104.835,337.299 103.416,337.81 101.969,338.231 100.497,338.559 99.008,338.795 97.507,338.937 96,338.985 94.493,338.937 92.992,338.795 91.5028,338.559 90.0314,338.231 88.5836,337.81 87.165,337.299 85.7813,336.7 84.4379,336.016 83.1402,335.248 81.8932,334.401 80.7018,333.477 79.5709,332.48 78.5048,331.414 77.5077,330.283 76.5836,329.091 75.7361,327.844 74.9686,326.547 74.2842,325.203 73.6854,323.82 73.1746,322.401 72.754,320.953 72.4251,319.482 72.1892,317.993 72.0474,316.492 " style="fill:green;stroke:yellow;stroke-width:1;fill-rule:nonzero;" />
<polygon points="120,314.985 120.047,313.478 120.189,311.977 120.425,310.487 120.754,309.016 121.175,307.568 121.685,306.15 122.284,304.766 122.969,303.422 123.736,302.125 124.584,300.878 125.508,299.686 126.505,298.555 127.571,297.489 128.702,296.492 129.893,295.568 131.14,294.721 132.438,293.953 133.781,293.269 135.165,292.67 136.584,292.159 138.031,291.739 139.503,291.41 140.992,291.174 142.493,291.032 144,290.985 145.507,291.032 147.008,291.174 148.497,291.41 149.969,291.739 151.416,292.159 152.835,292.67 154.219,293.269 155.562,293.953 156.86,294.721 158.107,295.568 159.298,296.492 160.429,297.489 161.495,298.555 162.492,299.686 163.416,300.878 164.264,302.125 165.031,303.422 165.716,304.766 166.315,306.15 166.825,307.568 167.246,309.016 167.575,310.487 167.811,311.977 167.953,313.478 168,314.985 167.953,316.492 167.811,317.993 167.575,319.482 167.246,320.953 166.825,322.401 166.315,323.82 165.716,325.203 165.031,326.547 164.264,327.844 163.416,329.091 162.492,330.283 161.495,331.414 160.429,332.48 159.298,333.477 158.107,334.401 156.86,335.248 155.562,336.016 154.219,336.7 152.835,337.299 151.416,337.81 149.969,338.231 148.497,338.559 147.008,338.795 145.507,338.937 144,338.985 142.493,338.937 140.992,338.795 139.503,338.559 138.031,338.231 136.584,337.81 135.165,337.299 133.781,336.7 132.438,336.016 131.14,335.248 129.893,334.401 128.702,333.477 127.571,332.48 126.505,331.414 125.508,330.283 124.584,329.091 123.736,327.844 122.969,326.547 122.284,325.203 121.685,323.82 121.175,322.401 120.754,320.953 120.425,319.482 120.189,317.993 120.047,316.492 " style="fill:green;stroke:yellow;stroke-width:1;fill-rule:nonzero;" />
<polygon points="168,314.985 168.047,313.478 168.189,311.977 168.425,310.487 168.754,309.016 169.175,307.568 169.685,306.15 170.284,304.766 170.969,303.422 171.736,302.125 172.584,300.878 173.508,299.686 174.505,298.555 175.571,297.489 176.702,296.492 177.893,295.568 179.14,294.721 180.438,293.953 181.781,293.269 183.165,292.67 184.584,292.159 186.031,291.739 187.503,291.41 188.992,291.174 190.493,291.032 192,290.985 193.507,291.032 195.008,291.174 196.497,291.41 197.969,291.739 199.416,292.159 200.835,292.67 202.219,293.269 203.562,293.953 204.86,294.721 206.107,295.568 207.298,296.492 208.429,297.489 209.495,298.555 210.492,299.686 211.416,300.878 212.264,302.125 213.031,303.422 213.716,304.766 214.315,306.15 214.825,307.568 215.246,309.016 215.575,310.487 215.811,311.977 215.953,313.478 216,314.985 215.953,316.492 215.811,317.993 215.575,319.482 215.246,320.953 214.825,322.401 214.315,323.82 213.716,325.203 213.031,326.547 212.264,327.844 211.416,329.091 210.492,330.283 209.495,331.414 208.429,332.48 207.298,333.477 206.107,334.401 204.86,335.248 203.562,336.016 202.219,336.7 200.835,337.299 199.416,337.81 197.969,338.231 196.497,338.559 195.008,338.795 193.507,338.937 192,338.985 190.493,338.937 188.992,338.795 187.503,338.559 186.031,338.231 184.584,337.81 183.165,337.299 181.781,336.7 180.438,336.016 179.14,335.248 177.893,334.401 176.702,333.477 175.571,332.48 174.505,331.414 173.508,330.283 172.584,329.091 171.736,327.844 170.969,326.547 170.284,325.203 169.685,323.82 169.175,322.401 168.754,320.953 168.425,319.482 168.189,317.993 168.047,316.492 " style="fill:green;stroke:yellow;stroke-width:1;fill-rule:nonzero;" />
<polygon points="216,314.985 216.047,313.478 216.189,311.977 216.425,310.487 216.754,309.016 217.175,307.568 217.685,306.15 218.284,304.766 218.969,303.422 219.736,302.125 220.584,300.878 221.508,299.686 222.505,298.555 223.571,297.489 224.702,296.492 225.893,295.568 227.14,294.721 228.438,293.953 229.781,293.269 231.165,292.67 232.584,292.159 234.031,291.739 235.503,291.41 236.992,291.174 238.493,291.032 240,290.985 241.507,291.032 243.008,291.174 244.497,291.41 245.969,291.739 247.416,292.159 248.835,292.67 250.219,293.269 251.562,293.953 252.86,294.721 254.107,295.568 255.298,296.492 256.429,297.489 257.495,298.555 258.492,299.686 259.416,300.878 260.264,302.125 261.031,303.422 261.716,304.766 262.315,306.15 262.825,307.568 263.246,309.016 263.575,310.487 263.811,311.977 263.953,313.478 264,314.985 263.953,316.492 263.811,317.993 263.575,319.482 263.246,320.953 262.825,322.401 262.315,323.82 261.716,325.203 261.031,326.547 260.264,327.844 259.416,329.091 258.492,330.283 257.495,331.414 256.429,332.48 255.298,333.477 254.107,334.401 252.86,335.248 251.562,336.016 250.219,336.7 248.835,337.299 247.416,337.81 245.969,338.231 244.497,338.559 243.008,338.795 241.507,338.937 240,338.985 238.493,338.937 236.992,338.795 235.503,338.559 234.031,338.231 232.584,337.81 231.165,337.299 229.781,336.7 228.438,336.016 227.14,335.248 225.893,334.401 224.702,333.477 223.571,332.48 222.505,331.414 221.508,330.283 220.584,329.091 219.736,327.844 218.969,326.547 218.284,325.203 217.685,323.82 217.175,322.401 216.754,320.953 216.425,319.482 216.189,317.993 216.047,316.492 " style="fill:green;stroke:yellow;stroke-width:1;fill-rule:nonzero;" />
<polygon points="264,314.985 264.047,313.478 264.189,311.977 264.425,310.487 264.754,309.016 265.175,307.568 265.685,306.15 266.284,304.766 266.969,303.422 267.736,302.125 268.584,300.878 269.508,299.686 270.505,298.555 271.571,297.489 272.702,296.492 273.893,295.568 275.14,294.721 276.438,293.953 277.781,293.269 279.165,292.67 280.584,292.159 282.031,291.739 283.503,291.41 284.992,291.174 286.493,291.032 288,290.985 289.507,291.032 291.008,291.174 292.497,291.41 293.969,291.739 295.416,292.159 296.835,292.67 298.219,293.269 299.562,293.953 300.86,294.721 302.107,295.568 303.298,296.492 304.429,297.489 305.495,298.555 306.492,299.686 307.416,300.878 308.264,302.125 309.031,303.422 309.716,304.766 310.315,306.15 310.825,307.568 311.246,309.016 311.575,310.487 311.811,311.977 311.953,313.478 312,314.985 311.953,316.492 311.811,317.993 311.575,319.482 311.246,320.953 310.825,322.401 310.315,323.82 309.716,325.203 309.031,326.547 308.264,327.844 307.416,329.091 306.492,330.283 305.495,331.414 304.429,332.48 303.298,333.477 302.107,334.401 300.86,335.248 299.562,336.016 298.219,336.7 296.835,337.299 295.416,337.81 293.969,338.231 292.497,338.559 291.008,338.795 289.507,338.937 288,338.985 286.493,338.937 284.992,338.795 283.503,338.559 282.031,338.231 280.584,337.81 279.165,337.299 277.781,336.7 276.438,336.016 275.14,335.248 273.893,334.401 272.702,333.477 271.571,332.48 270.505,331.414 269.508,330.283 268.584,329.091 267.736,327.844 266.969,326.547 266.284,325.203 265.685,323.82 265.175,322.401 264.754,320.953 264.425,319.482 264.189,317.993 264.047,316.492 " style="fill:green;stroke:yellow;stroke-width:1;fill-rule:nonzero;" />
<polygon points="96,356.554 96.0474,355.047 96.1892,353.546 96.4251,352.057 96.754,350.585 97.1746,349.137 97.6854,347.719 98.2842,346.335 98.9686,344.992 99.7361,343.694 100.584,342.447 101.508,341.256 102.505,340.125 103.571,339.059 104.702,338.061 105.893,337.137 107.14,336.29 108.438,335.522 109.781,334.838 111.165,334.239 112.584,333.728 114.031,333.308 115.503,332.979 116.992,332.743 118.493,332.601 120,332.554 121.507,332.601 123.008,332.743 124.497,332.979 125.969,333.308 127.416,333.728 128.835,334.239 130.219,334.838 131.562,335.522 132.86,336.29 134.107,337.137 135.298,338.061 136.429,339.059 137.495,340.125 138.492,341.256 139.416,342.447 140.264,343.694 141.031,344.992 141.716,346.335 142.315,347.719 142.825,349.137 143.246,350.585 143.575,352.057 143.811,353.546 143.953,355.047 144,356.554 143.953,358.061 143.811,359.562 143.575,361.051 143.246,362.522 142.825,363.97 142.315,365.389 141.716,366.772 141.031,368.116 140.264,369.414 139.416,370.661 138.492,371.852 137.495,372.983 136.429,374.049 135.298,375.046 134.107,375.97 132.86,376.818 131.562,377.585 130.219,378.27 128.835,378.868 127.416,379.379 125.969,379.8 124.497,380.129 123.008,380.365 121.507,380.506 120,380.554 118.493,380.506 116.992,380.365 115.503,380.129 114.031,379.8 112.584,379.379 111.165,378.868 109.781,378.27 108.438,377.585 107.14,376.818 105.893,375.97 104.702,375.046 103.571,374.049 102.505,372.983 101.508,371.852 100.584,370.661 99.7361,369.414 98.9686,368.116 98.2842,366.772 97.6854,365.389 97.1746,363.97 96.754,362.522 96.4251,361.051 96.1892,359.562 96.0474,358.061 " style="fill:green;stroke:yellow;stroke-width:1;fill-rule:nonzero;" />
<polygon points="144,356.554 144.047,355.047 144.189,353.546 144.425,352.057 144.754,350.585 145.175,349.137 145.685,347.719 146.284,346.335 146.969,344.992 147.736,343.694 148.584,342.447 149.508,341.256 150.505,340.125 151.571,339.059 152.702,338.061 153.893,337.137 155.14,336.29 156.438,335.522 157.781,334.838 159.165,334.239 160.584,333.728 162.031,333.308 163.503,332.979 164.992,332.743 166.493,332.601 168,332.554 169.507,332.601 171.008,332.743 172.497,332.979 173.969,333.308 175.416,333.728 176.835,334.239 178.219,334.838 179.562,335.522 180.86,336.29 182.107,337.137 183.298,338.061 184.429,339.059 185.495,340.125 186.492,341.256 187.416,342.447 188.264,343.694 189.031,344.992 189.716,346.335 190.315,347.719 190.825,349.137 191.246,350.585 191.575,352.057 191.811,353.546 191.953,355.047 192,356.554 191.953,358.061 191.811,359.562 191.575,361.051 191.246,362.522 190.825,363.97 190.315,365.389 189.716,366.772 189.031,368.116 188.264,369.414 187.416,370.661 186.492,371.852 185.495,372.983 184.429,374.049 183.298,375.046 182.107,375.97 180.86,376.818 179.562,377.585 178.219,378.27 176.835,378.868 175.416,379.379 173.969,379.8 172.497,380.129 171.008,380.365 169.507,380.506 168,380.554 166.493,380.506 164.992,380.365 163.503,380.129 162.031,379.8 160.584,379.379 159.165,378.868 157.781,378.27 156.438,377.585 155.14,376.818 153.893,375.97 152.702,375.046 151.571,374.049 150.505,372.983 149.508,371.852 148.584,370.661 147.736,369.414 146.969,368.116 146.284,366.772 145.685,365.389 145.175,363.97 144.754,362.522 144.425,361.051 144.189,359.562 144.047,358.061 " style="fill:green;stroke:yellow;stroke-width:1;fill-rule:nonzero;" />
<polygon points="192,356.554 192.047,355.047 192.189,353.546 192.425,352.057 192.754,350.585 193.175,349.137 193.685,347.719 194.284,346.335 194.969,344.992 195.736,343.694 196.584,342.447 197.508,341.256 198.505,340.125 199.571,339.059 200.702,338.061 201.893,337.137 203.14,336.29 204.438,335.522 205.781,334.838 207.165,334.239 208.584,333.728 210.031,333.308 211.503,332.979 212.992,332.743 214.493,332.601 216,332.554 217.507,332.601 219.008,332.743 220.497,332.979 221.969,333.308 223.416,333.728 224.835,334.239 226.219,334.838 227.562,335.522 228.86,336.29 230.107,337.137 231.298,338.061 232.429,339.059 233.495,340.125 234.492,341.256 235.416,342.447 236.264,343.694 237.031,344.992 237.716,346.335 238.315,347.719 238.825,349.137 239.246,350.585 239.575,352.057 239.811,353.546 239.953,355.047 240,356.554 239.953,358.061 239.811,359.562 239.575,361.051 239.246,362.522 238.825,363.97 238.315,365.389 237.716,366.772 237.031,368.116 236.264,369.414 235.416,370.661 234.492,371.852 233.495,372.983 232.429,374.049 231.298,375.046 230.107,375.97 228.86,376.818 227.562,377.585 226.219,378.27 224.835,378.868 223.416,379.379 221.969,379.8 220.497,380.129 219.008,380.365 217.507,380.506 216,380.554 214.493,380.506 212.992,380.365 211.503,380.129 210.031,379.8 208.584,379.379 207.165,378.868 205.781,378.27 204.438,377.585 203.14,376.818 201.893,375.97 200.702,375.046 199.571,374.049 198.505,372.983 197.508,371.852 196.584,370.661 195.736,369.414 194.969,368.116 194.284,366.772 193.685,365.389 193.175,363.97 192.754,362.522 192.425,361.051 192.189,359.562 192.047,358.061 " style="fill:green;stroke:yellow;stroke-width:1;fill-rule:nonzero;" />
<polygon points="240,356.554 240.047,355.047 240.189,353.546 240.425,352.057 240.754,350.585 241.175,349.137 241.685,347.719 242.284,346.335 242.969,344.992 243.736,343.694 244.584,342.447 245.508,341.256 246.505,340.125 247.571,339.059 248.702,338.061 249.893,337.137 251.14,336.29 252.438,335.522 253.781,334.838 255.165,334.239 256.584,333.728 258.031,333.308 259.503,332.979 260.992,332.743 262.493,332.601 264,332.554 265.507,332.601 267.008,332.743 268.497,332.979 269.969,333.308 271.416,333.728 272.835,334.239 274.219,334.838 275.562,335.522 276.86,336.29 278.107,337.137 279.298,338.061 280.429,339.059 281.495,340.125 282.492,341.256 283.416,342.447 284.264,343.694 285.031,344.992 285.716,346.335 286.315,347.719 286.825,349.137 287.246,350.585 287.575,352.057 287.811,353.546 287.953,355.047 288,356.554 287.953,358.061 287.811,359.562 287.575,361.051 287.246,362.522 286.825,363.97 286.315,365.389 285.716,366.772 285.031,368.116 284.264,369.414 283.416,370.661 282.492,371.852 281.495,372.983 280.429,374.049 279.298,375.046 278.107,375.97 276.86,376.818 275.562,377.585 274.219,378.27 272.835,378.868 271.416,379.379 269.969,379.8 268.497,380.129 267.008,380.365 265.507,380.506 264,380.554 262.493,380.506 260.992,380.365 259.503,380.129 258.031,379.8 256.584,379.379 255.165,378.868 253.781,378.27 252.438,377.585 251.14,376.818 249.893,375.97 248.702,375.046 247.571,374.049 246.505,372.983 245.508,371.852 244.584,370.661 243.736,369.414 242.969,368.116 242.284,366.772 241.685,365.389 241.175,363.97 240.754,362.522 240.425,361.051 240.189,359.562 240.047,358.061 " style="fill:green;stroke:yellow;stroke-width:1;fill-rule:nonzero;" />
</svg>