<svg>
<polygon points="0,173.205 100,0 200,173.205 " style="fill:green;stroke:yellow;stroke-width:1;fill-rule:nonzero;" />
<polygon points="12.7017,151.205 36.7017,151.205 36.7017,173.205 12.7017,173.205 " style="fill:green;stroke:yellow;stroke-width:1;fill-rule:nonzero;" />
<polygon points="36.7017,151.205 60.7017,151.205 60.7017,173.205 36.7017,173.205 " style="fill:green;stroke:yellow;stroke-width:1;fill-rule:nonzero;" />
<polygon points="60.7017,151.205 84.7017,151.205 84.7017,173.205 60.7017,173.205 " style="fill:green;stroke:yellow;stroke-width:1;fill-rule:nonzero;" />
<polygon points="84.7017,151.205 108.702,151.205 108.702,173.205 84.7017,173.205 " style="fill:green;stroke:yellow;stroke-width:1;fill-rule:nonzero;" />
<polygon points="108.702,151.205 132.702,151.205 132.702,173.205 108.702,173.205 " style="fill:green;stroke:yellow;stroke-width:1;fill-rule:nonzero;" />
<polygon points="132.702,151.205 156.702,151.205 156.702,173.205 132.702,173.205 " style="fill:green;stroke:yellow;stroke-width:1;fill-rule:nonzero;" />
<polygon points="25.4034,129.205 49.4034,129.205 49.4034,151.205 25.4034,151.205 " style="fill:green;stroke:yellow;stroke-width:1;fill-rule:nonzero;" />
<polygon points="49.4034,129.205 73.4034,129.205 73.4034,151.205 49.4034,151.205 " style="fill:green;stroke:yellow;stroke-width:1;fill-rule:nonzero;" />
<polygon points="73.4034,129.205 97.4034,129.205 97.4034,151.205 73.4034,151.205 " style="fill:green;stroke:yellow;stroke-width:1;fill-rule:nonzero;" />
<polygon points="97.4034,129.205 121.403,129.205 121.403,151.205 97.4034,151.205 " style="fill:green;stroke:yellow;stroke-width:1;fill-rule:nonzero;" />
<polygon points="121.403,129.205 145.403,129.205 145.403,151.205 121.403,151.205 " style="fill:green;stroke:yellow;stroke-width:1;fill-rule:nonzero;" />
<polygon points="38.1051,107.205 62.1051,107.205 62.1051,129.205 38.1051,129.205 " style="fill:green;stroke:yellow;stroke-width:1;fill-rule:nonzero;" />
<polygon points="62.1051,107.205 86.1051,107.205 86.1051,129.205 62.1051,129.205 " style="fill:green;stroke:yellow;stroke-width:1;fill-rule:nonzero;" />
<polygon points="86.1051,107.205 110.105,107.205 110.105,129.205 86.1051,129.205 " style="fill:green;stroke:yellow;stroke-width:1;fill-rule:nonzero;" />
<polygon points="110.105,107.205 134.105,107.205 134.105,129.205 110.105,129.205 " style="fill:green;stroke:yellow;stroke-width:1;fill-rule:nonzero;" />
<polygon points="50.8068,85.2051 74.8068,85.2051 74.8068,107.205 50.8068,107.205 " style="fill:green;stroke:yellow;stroke-width:1;fill-rule:nonzero;" />
<polygon points="74.8068,85.2051 98.8068,85.2051 98.8068,107.205 74.8068,107.205 " style="fill:green;stroke:yellow;stroke-width:1;fill-rule:nonzero;" />
<polygon points="98.8068,85.2051 122.807,85.2051 122.807,107.205 98.8068,107.205 " style="fill:green;stroke:yellow;stroke-width:1;fill-rule:nonzero;" />
<polygon points="63.5085,63.2051 87.5085,63.2051 87.5085,85.2051 63.5085,85.2051 " style="fill:green;stroke:yellow;stroke-width:1;fill-rule:nonzero;" />
<polygon points="87.5085,63.2051 111.509,63.2051 111.509,85.2051 87.5085,85.2051 " style="fill:green;stroke:yellow;stroke-width:1;fill-rule:nonzero;" />
<polygon points="76.2102,41.2051 100.21,41.2051 100.21,63.2051 76.2102,63.2051 " style="fill:green;stroke:yellow;stroke-width:1;fill-rule:nonzero;" />
</svg>