<svg>
<polygon points="0,173.205 100,0 200,173.205 " style="fill:green;stroke:yellow;stroke-width:1;fill-rule:nonzero;" />
<polygon points="17.5692,149.205 17.6166,147.698 17.7585,146.197 17.9943,144.708 18.3232,143.237 18.7439,141.789 19.2546,140.37 19.8534,138.986 20.5379,137.643 21.3053,136.345 22.1528,135.098 23.0769,133.907 24.074,132.776 25.1401,131.71 26.271,130.713 27.4624,129.789 28.7094,128.941 30.0071,128.174 31.3505,127.489 32.7342,126.89 34.1528,126.38 35.6007,125.959 37.0721,125.63 38.5612,125.394 40.0622,125.252 41.5692,125.205 43.0762,125.252 44.5772,125.394 46.0664,125.63 47.5378,125.959 48.9856,126.38 50.4042,126.89 51.7879,127.489 53.1313,128.174 54.4291,128.941 55.6761,129.789 56.8674,130.713 57.9983,131.71 59.0645,132.776 60.0615,133.907 60.9856,135.098 61.8331,136.345 62.6006,137.643 63.2851,138.986 63.8839,140.37 64.3946,141.789 64.8152,143.237 65.1441,144.708 65.38,146.197 65.5219,147.698 65.5692,149.205 65.5219,150.712 65.38,152.213 65.1441,153.702 64.8152,155.174 64.3946,156.621 63.8839,158.04 63.2851,159.424 62.6006,160.767 61.8331,162.065 60.9856,163.312 60.0615,164.503 59.0645,165.634 57.9983,166.7 56.8674,167.697 55.6761,168.621 54.4291,169.469 53.1313,170.236 51.7879,170.921 50.4042,171.52 48.9856,172.03 47.5378,172.451 46.0664,172.78 44.5772,173.016 43.0762,173.158 41.5692,173.205 40.0622,173.158 38.5612,173.016 37.0721,172.78 35.6007,172.451 34.1528,172.03 32.7342,171.52 31.3505,170.921 30.0071,170.236 28.7094,169.469 27.4624,168.621 26.271,167.697 25.1401,166.7 24.074,165.634 23.0769,164.503 22.1528,163.312 21.3053,162.065 20.5379,160.767 19.8534,159.424 19.2546,158.04 18.7439,156.621 18.3232,155.174 17.9943,153.702 17.7585,152.213 17.6166,150.712 " style="fill:green;stroke:yellow;stroke-width:1;fill-rule:nonzero;" />
<polygon points="65.5692,149.205 65.6166,147.698 65.7585,146.197 65.9943,144.708 66.3232,143.237 66.7439,141.789 67.2546,140.37 67.8534,138.986 68.5379,137.643 69.3053,136.345 70.1528,135.098 71.0769,133.907 72.074,132.776 73.1401,131.71 74.271,130.713 75.4624,129.789 76.7094,128.941 78.0071,128.174 79.3505,127.489 80.7342,126.89 82.1528,126.38 83.6007,125.959 85.0721,125.63 86.5612,125.394 88.0622,125.252 89.5692,125.205 91.0762,125.252 92.5772,125.394 94.0664,125.63 95.5378,125.959 96.9856,126.38 98.4042,126.89 99.7879,127.489 101.131,128.174 102.429,128.941 103.676,129.789 104.867,130.713 105.998,131.71 107.064,132.776 108.062,133.907 108.986,135.098 109.833,136.345 110.601,137.643 111.285,138.986 111.884,140.37 112.395,141.789 112.815,143.237 113.144,144.708 113.38,146.197 113.522,147.698 113.569,149.205 113.522,150.712 113.38,152.213 113.144,153.702 112.815,155.174 112.395,156.621 111.884,158.04 111.285,159.424 110.601,160.767 109.833,162.065 108.986,163.312 108.062,164.503 107.064,165.634 105.998,166.7 104.867,167.697 103.676,168.621 102.429,169.469 101.131,170.236 99.7879,170.921 98.4042,171.52 96.9856,172.03 95.5378,172.451 94.0664,172.78 92.5772,173.016 91.0762,173.158 89.5692,173.205 88.0622,173.158 86.5612,173.016 85.0721,172.78 83.6007,172.451 82.1528,172.03 80.7342,171.52 79.3505,170.921 78.0071,170.236 76.7094,169.469 75.4624,168.621 74.271,167.697 73.1401,166.7 72.074,165.634 71.0769,164.503 70.1528,163.312 69.3053,162.065 68.5379,160.767 67.8534,159.424 67.2546,158.04 66.7439,156.621 66.3232,155.174 65.9943,153.702 65.7585,152.213 65.6166,150.712 " style="fill:green;stroke:yellow;stroke-width:1;fill-rule:nonzero;" />
<polygon points="113.569,149.205 113.617,147.698 113.758,146.197 113.994,144.708 114.323,143.237 114.744,141.789 115.255,140.37 115.853,138.986 116.538,137.643 117.305,136.345 118.153,135.098 119.077,133.907 120.074,132.776 121.14,131.71 122.271,130.713 123.462,129.789 124.709,128.941 126.007,128.174 127.351,127.489 128.734,126.89 130.153,126.38 131.601,125.959 133.072,125.63 134.561,125.394 136.062,125.252 137.569,125.205 139.076,125.252 140.577,125.394 142.066,125.63 143.538,125.959 144.986,126.38 146.404,126.89 147.788,127.489 149.131,128.174 150.429,128.941 151.676,129.789 152.867,130.713 153.998,131.71 155.064,132.776 156.062,133.907 156.986,135.098 157.833,136.345 158.601,137.643 159.285,138.986 159.884,140.37 160.395,141.789 160.815,143.237 161.144,144.708 161.38,146.197 161.522,147.698 161.569,149.205 161.522,150.712 161.38,152.213 161.144,153.702 160.815,155.174 160.395,156.621 159.884,158.04 159.285,159.424 158.601,160.767 157.833,162.065 156.986,163.312 156.062,164.503 155.064,165.634 153.998,166.7 152.867,167.697 151.676,168.621 150.429,169.469 149.131,170.236 147.788,170.921 146.404,171.52 144.986,172.03 143.538,172.451 142.066,172.78 140.577,173.016 139.076,173.158 137.569,173.205 136.062,173.158 134.561,173.016 133.072,172.78 131.601,172.451 130.153,172.03 128.734,171.52 127.351,170.921 126.007,170.236 124.709,169.469 123.462,168.621 122.271,167.697 121.14,166.7 120.074,165.634 119.077,164.503 118.153,163.312 117.305,162.065 116.538,160.767 115.853,159.424 115.255,158.04 114.744,156.621 114.323,155.174 113.994,153.702 113.758,152.213 113.617,150.712 " style="fill:green;stroke:yellow;stroke-width:1;fill-rule:nonzero;" />
<polygon points="41.5692,107.636 41.6166,106.129 41.7585,104.628 41.9943,103.139 42.3232,101.667 42.7439,100.219 43.2546,98.8009 43.8534,97.4172 44.5379,96.0738 45.3053,94.776 46.1528,93.529 47.0769,92.3377 48.074,91.2067 49.1401,90.1406 50.271,89.1435 51.4624,88.2195 52.7094,87.372 54.0071,86.6045 55.3505,85.92 56.7342,85.3212 58.1528,84.8105 59.6007,84.3899 61.0721,84.061 62.5612,83.8251 64.0622,83.6832 65.5692,83.6359 67.0762,83.6832 68.5772,83.8251 70.0664,84.061 71.5378,84.3899 72.9856,84.8105 74.4042,85.3212 75.7879,85.92 77.1313,86.6045 78.4291,87.372 79.6761,88.2195 80.8674,89.1435 81.9983,90.1406 83.0645,91.2067 84.0615,92.3377 84.9856,93.529 85.8331,94.776 86.6006,96.0738 87.2851,97.4172 87.8839,98.8009 88.3946,100.219 88.8152,101.667 89.1441,103.139 89.38,104.628 89.5219,106.129 89.5692,107.636 89.5219,109.143 89.38,110.644 89.1441,112.133 88.8152,113.604 88.3946,115.052 87.8839,116.471 87.2851,117.855 86.6006,119.198 85.8331,120.496 84.9856,121.743 84.0615,122.934 83.0645,124.065 81.9983,125.131 80.8674,126.128 79.6761,127.052 78.4291,127.9 77.1313,128.667 75.7879,129.352 74.4042,129.95 72.9856,130.461 71.5378,130.882 70.0664,131.211 68.5772,131.447 67.0762,131.589 65.5692,131.636 64.0622,131.589 62.5612,131.447 61.0721,131.211 59.6007,130.882 58.1528,130.461 56.7342,129.95 55.3505,129.352 54.0071,128.667 52.7094,127.9 51.4624,127.052 50.271,126.128 49.1401,125.131 48.074,124.065 47.0769,122.934 46.1528,121.743 45.3053,120.496 44.5379,119.198 43.8534,117.855 43.2546,116.471 42.7439,115.052 42.3232,113.604 41.9943,112.133 41.7585,110.644 41.6166,109.143 " style="fill:green;stroke:yellow;stroke-width:1;fill-rule:nonzero;" />
<polygon points="89.5692,107.636 89.6166,106.129 89.7585,104.628 89.9943,103.139 90.3232,101.667 90.7439,100.219 91.2546,98.8009 91.8534,97.4172 92.5379,96.0738 93.3053,94.776 94.1528,93.529 95.0769,92.3377 96.074,91.2067 97.1401,90.1406 98.271,89.1435 99.4624,88.2195 100.709,87.372 102.007,86.6045 103.351,85.92 104.734,85.3212 106.153,84.8105 107.601,84.3899 109.072,84.061 110.561,83.8251 112.062,83.6832 113.569,83.6359 115.076,83.6832 116.577,83.8251 118.066,84.061 119.538,84.3899 120.986,84.8105 122.404,85.3212 123.788,85.92 125.131,86.6045 126.429,87.372 127.676,88.2195 128.867,89.1435 129.998,90.1406 131.064,91.2067 132.062,92.3377 132.986,93.529 133.833,94.776 134.601,96.0738 135.285,97.4172 135.884,98.8009 136.395,100.219 136.815,101.667 137.144,103.139 137.38,104.628 137.522,106.129 137.569,107.636 137.522,109.143 137.38,110.644 137.144,112.133 136.815,113.604 136.395,115.052 135.884,116.471 135.285,117.855 134.601,119.198 133.833,120.496 132.986,121.743 132.062,122.934 131.064,124.065 129.998,125.131 128.867,126.128 127.676,127.052 126.429,127.9 125.131,128.667 123.788,129.352 122.404,129.95 120.986,130.461 119.538,130.882 118.066,131.211 116.577,131.447 115.076,131.589 113.569,131.636 112.062,131.589 110.561,131.447 109.072,131.211 107.601,130.882 106.153,130.461 104.734,129.95 103.351,129.352 102.007,128.667 100.709,127.9 99.4624,127.052 98.271,126.128 97.1401,125.131 96.074,124.065 95.0769,122.934 94.1528,121.743 93.3053,120.496 92.5379,119.198 91.8534,117.855 91.2546,116.471 90.7439,115.052 90.3232,113.604 89.9943,112.133 89.7585,110.644 89.6166,109.143 " style="fill:green;stroke:yellow;stroke-width:1;fill-rule:nonzero;" />
<polygon points="65.5692,66.0666 65.6166,64.5597 65.7585,63.0586 65.9943,61.5695 66.3232,60.0981 66.7439,58.6502 67.2546,57.2317 67.8534,55.8479 68.5379,54.5046 69.3053,53.2068 70.1528,51.9598 71.0769,50.7685 72.074,49.6375 73.1401,48.5714 74.271,47.5743 75.4624,46.6502 76.7094,45.8028 78.0071,45.0353 79.3505,44.3508 80.7342,43.752 82.1528,43.2413 83.6007,42.8206 85.0721,42.4917 86.5612,42.2559 88.0622,42.114 89.5692,42.0666 91.0762,42.114 92.5772,42.2559 94.0664,42.4917 95.5378,42.8206 96.9856,43.2413 98.4042,43.752 99.7879,44.3508 101.131,45.0353 102.429,45.8028 103.676,46.6502 104.867,47.5743 105.998,48.5714 107.064,49.6375 108.062,50.7685 108.986,51.9598 109.833,53.2068 110.601,54.5046 111.285,55.8479 111.884,57.2317 112.395,58.6502 112.815,60.0981 113.144,61.5695 113.38,63.0586 113.522,64.5597 113.569,66.0666 113.522,67.5736 113.38,69.0746 113.144,70.5638 112.815,72.0352 112.395,73.483 111.884,74.9016 111.285,76.2853 110.601,77.6287 109.833,78.9265 108.986,80.1735 108.062,81.3648 107.064,82.4958 105.998,83.5619 104.867,84.559 103.676,85.483 102.429,86.3305 101.131,87.098 99.7879,87.7825 98.4042,88.3813 96.9856,88.892 95.5378,89.3126 94.0664,89.6415 92.5772,89.8774 91.0762,90.0193 89.5692,90.0666 88.0622,90.0193 86.5612,89.8774 85.0721,89.6415 83.6007,89.3126 82.1528,88.892 80.7342,88.3813 79.3505,87.7825 78.0071,87.098 76.7094,86.3305 75.4624,85.483 74.271,84.559 73.1401,83.5619 72.074,82.4958 71.0769,81.3648 70.1528,80.1735 69.3053,78.9265 68.5379,77.6287 67.8534,76.2853 67.2546,74.9016 66.7439,73.483 66.3232,72.0352 65.9943,70.5638 65.7585,69.0746 65.6166,67.5736 " style="fill:green;stroke:yellow;stroke-width:1;fill-rule:nonzero;" />
</svg>