<svg>
<circle cx="300" cy="300" r="300" stroke="black" stroke-width="1" fill="yellow" />
<circle cx="200" cy="68.3013" r="25" stroke="black" stroke-width="1" fill="blue" />
<circle cx="250" cy="68.3013" r="25" stroke="black" stroke-width="1" fill="blue" />
<circle cx="300" cy="68.3013" r="25" stroke="black" stroke-width="1" fill="blue" />
<circle cx="350" cy="68.3013" r="25" stroke="black" stroke-width="1" fill="blue" />
<circle cx="400" cy="68.3013" r="25" stroke="black" stroke-width="1" fill="blue" />
<circle cx="125" cy="111.603" r="25" stroke="black" stroke-width="1" fill="blue" />
<circle cx="175" cy="111.603" r="25" stroke="black" stroke-width="1" fill="blue" />
<circle cx="225" cy="111.603" r="25" stroke="black" stroke-width="1" fill="blue" />
<circle cx="275" cy="111.603" r="25" stroke="black" stroke-width="1" fill="blue" />
<circle cx="325" cy="111.603" r="25" stroke="black" stroke-width="1" fill="blue" />
<circle cx="375" cy="111.603" r="25" stroke="black" stroke-width="1" fill="blue" />
<circle cx="425" cy="111.603" r="25" stroke="black" stroke-width="1" fill="blue" />
<circle cx="475" cy="111.603" r="25" stroke="black" stroke-width="1" fill="blue" />
<circle cx="100" cy="154.904" r="25" stroke="black" stroke-width="1" fill="blue" />
<circle cx="150" cy="154.904" r="25" stroke="black" stroke-width="1" fill="blue" />
<circle cx="200" cy="154.904" r="25" stroke="black" stroke-width="1" fill="blue" />
<circle cx="250" cy="154.904" r="25" stroke="black" stroke-width="1" fill="blue" />
<circle cx="300" cy="154.904" r="25" stroke="black" stroke-width="1" fill="blue" />
<circle cx="350" cy="154.904" r="25" stroke="black" stroke-width="1" fill="blue" />
<circle cx="400" cy="154.904" r="25" stroke="black" stroke-width="1" fill="blue" />
<circle cx="450" cy="154.904" r="25" stroke="black" stroke-width="1" fill="blue" />
<circle cx="500" cy="154.904" r="25" stroke="black" stroke-width="1" fill="blue" />
<circle cx="75" cy="198.205" r="25" stroke="black" stroke-width="1" fill="blue" />
<circle cx="125" cy="198.205" r="25" stroke="black" stroke-width="1" fill="blue" />
<circle cx="175" cy="198.205" r="25" stroke="black" stroke-width="1" fill="blue" />
<circle cx="225" cy="198.205" r="25" stroke="black" stroke-width="1" fill="blue" />
<circle cx="275" cy="198.205" r="25" stroke="black" stroke-width="1" fill="blue" />
<circle cx="325" cy="198.205" r="25" stroke="black" stroke-width="1" fill="blue" />
<circle cx="375" cy="198.205" r="25" stroke="black" stroke-width="1" fill="blue" />
<circle cx="425" cy="198.205" r="25" stroke="black" stroke-width="1" fill="blue" />
<circle cx="475" cy="198.205" r="25" stroke="black" stroke-width="1" fill="blue" />
<circle cx="525" cy="198.205" r="25" stroke="black" stroke-width="1" fill="blue" />
<circle cx="50" cy="241.506" r="25" stroke="black" stroke-width="1" fill="blue" />
<circle cx="100" cy="241.506" r="25" stroke="black" stroke-width="1" fill="blue" />
<circle cx="150" cy="241.506" r="25" stroke="black" stroke-width="1" fill="blue" />
<circle cx="200" cy="241.506" r="25" stroke="black" stroke-width="1" fill="blue" />
<circle cx="250" cy="241.506" r="25" stroke="black" stroke-width="1" fill="blue" />
<circle cx="300" cy="241.506" r="25" stroke="black" stroke-width="1" fill="blue" />
<circle cx="350" cy="241.506" r="25" stroke="black" stroke-width="1" fill="blue" />
<circle cx="400" cy="241.506" r="25" stroke="black" stroke-width="1" fill="blue" />
<circle cx="450" cy="241.506" r="25" stroke="black" stroke-width="1" fill="blue" />
<circle cx="500" cy="241.506" r="25" stroke="black" stroke-width="1" fill="blue" />
<circle cx="550" cy="241.506" r="25" stroke="black" stroke-width="1" fill="blue" />
<circle cx="75" cy="284.808" r="25" stroke="black" stroke-width="1" fill="blue" />
<circle cx="125" cy="284.808" r="25" stroke="black" stroke-width="1" fill="blue" />
<circle cx="175" cy="284.808" r="25" stroke="black" stroke-width="1" fill="blue" />
<circle cx="225" cy="284.808" r="25" stroke="black" stroke-width="1" fill="blue" />
<circle cx="275" cy="284.808" r="25" stroke="black" stroke-width="1" fill="blue" />
<circle cx="325" cy="284.808" r="25" stroke="black" stroke-width="1" fill="blue" />
<circle cx="375" cy="284.808" r="25" stroke="black" stroke-width="1" fill="blue" />
<circle cx="425" cy="284.808" r="25" stroke="black" stroke-width="1" fill="blue" />
<circle cx="475" cy="284.808" r="25" stroke="black" stroke-width="1" fill="blue" />
<circle cx="525" cy="284.808" r="25" stroke="black" stroke-width="1" fill="blue" />
<circle cx="50" cy="328.109" r="25" stroke="black" stroke-width="1" fill="blue" />
<circle cx="100" cy="328.109" r="25" stroke="black" stroke-width="1" fill="blue" />
<circle cx="150" cy="328.109" r="25" stroke="black" stroke-width="1" fill="blue" />
<circle cx="200" cy="328.109" r="25" stroke="black" stroke-width="1" fill="blue" />
<circle cx="250" cy="328.109" r="25" stroke="black" stroke-width="1" fill="blue" />
<circle cx="300" cy="328.109" r="25" stroke="black" stroke-width="1" fill="blue" />
<circle cx="350" cy="328.109" r="25" stroke="black" stroke-width="1" fill="blue" />
<circle cx="400" cy="328.109" r="25" stroke="black" stroke-width="1" fill="blue" />
<circle cx="450" cy="328.109" r="25" stroke="black" stroke-width="1" fill="blue" />
<circle cx="500" cy="328.109" r="25" stroke="black" stroke-width="1" fill="blue" />
<circle cx="550" cy="328.109" r="25" stroke="black" stroke-width="1" fill="blue" />
<circle cx="75" cy="371.41" r="25" stroke="black" stroke-width="1" fill="blue" />
<circle cx="125" cy="371.41" r="25" stroke="black" stroke-width="1" fill="blue" />
<circle cx="175" cy="371.41" r="25" stroke="black" stroke-width="1" fill="blue" />
<circle cx="225" cy="371.41" r="25" stroke="black" stroke-width="1" fill="blue" />
<circle cx="275" cy="371.41" r="25" stroke="black" stroke-width="1" fill="blue" />
<circle cx="325" cy="371.41" r="25" stroke="black" stroke-width="1" fill="blue" />
<circle cx="375" cy="371.41" r="25" stroke="black" stroke-width="1" fill="blue" />
<circle cx="425" cy="371.41" r="25" stroke="black" stroke-width="1" fill="blue" />
<circle cx="475" cy="371.41" r="25" stroke="black" stroke-width="1" fill="blue" />
<circle cx="525" cy="371.41" r="25" stroke="black" stroke-width="1" fill="blue" />
<circle cx="100" cy="414.711" r="25" stroke="black" stroke-width="1" fill="blue" />
<circle cx="150" cy="414.711" r="25" stroke="black" stroke-width="1" fill="blue" />
<circle cx="200" cy="414.711" r="25" stroke="black" stroke-width="1" fill="blue" />
<circle cx="250" cy="414.711" r="25" stroke="black" stroke-width="1" fill="blue" />
<circle cx="300" cy="414.711" r="25" stroke="black" stroke-width="1" fill="blue" />
<circle cx="350" cy="414.711" r="25" stroke="black" stroke-width="1" fill="blue" />
<circle cx="400" cy="414.711" r="25" stroke="black" stroke-width="1" fill="blue" />
<circle cx="450" cy="414.711" r="25" stroke="black" stroke-width="1" fill="blue" />
<circle cx="500" cy="414.711" r="25" stroke="black" stroke-width="1" fill="blue" />
<circle cx="75" cy="458.013" r="25" stroke="black" stroke-width="1" fill="blue" />
<circle cx="125" cy="458.013" r="25" stroke="black" stroke-width="1" fill="blue" />
<circle cx="175" cy="458.013" r="25" stroke="black" stroke-width="1" fill="blue" />
<circle cx="225" cy="458.013" r="25" stroke="black" stroke-width="1" fill="blue" />
<circle cx="275" cy="458.013" r="25" stroke="black" stroke-width="1" fill="blue" />
<circle cx="325" cy="458.013" r="25" stroke="black" stroke-width="1" fill="blue" />
<circle cx="375" cy="458.013" r="25" stroke="black" stroke-width="1" fill="blue" />
<circle cx="425" cy="458.013" r="25" stroke="black" stroke-width="1" fill="blue" />
<circle cx="475" cy="458.013" r="25" stroke="black" stroke-width="1" fill="blue" />
<circle cx="525" cy="458.013" r="25" stroke="black" stroke-width="1" fill="blue" />
<circle cx="150" cy="501.314" r="25" stroke="black" stroke-width="1" fill="blue" />
<circle cx="200" cy="501.314" r="25" stroke="black" stroke-width="1" fill="blue" />
<circle cx="250" cy="501.314" r="25" stroke="black" stroke-width="1" fill="blue" />
<circle cx="300" cy="501.314" r="25" stroke="black" stroke-width="1" fill="blue" />
<circle cx="350" cy="501.314" r="25" stroke="black" stroke-width="1" fill="blue" />
<circle cx="400" cy="501.314" r="25" stroke="black" stroke-width="1" fill="blue" />
<circle cx="450" cy="501.314" r="25" stroke="black" stroke-width="1" fill="blue" />
<circle cx="175" cy="544.615" r="25" stroke="black" stroke-width="1" fill="blue" />
<circle cx="225" cy="544.615" r="25" stroke="black" stroke-width="1" fill="blue" />
<circle cx="275" cy="544.615" r="25" stroke="black" stroke-width="1" fill="blue" />
<circle cx="325" cy="544.615" r="25" stroke="black" stroke-width="1" fill="blue" />
<circle cx="375" cy="544.615" r="25" stroke="black" stroke-width="1" fill="blue" />
<circle cx="425" cy="544.615" r="25" stroke="black" stroke-width="1" fill="blue" />
</svg>
