<svg>
<circle cx="200" cy="200" r="200" stroke="black" stroke-width="1" fill="red" />
<circle cx="96" cy="65.5692" r="24" stroke="black" stroke-width="1" fill="green" />
<circle cx="144" cy="65.5692" r="24" stroke="black" stroke-width="1" fill="green" />
<circle cx="192" cy="65.5692" r="24" stroke="black" stroke-width="1" fill="green" />
<circle cx="240" cy="65.5692" r="24" stroke="black" stroke-width="1" fill="green" />
<circle cx="288" cy="65.5692" r="24" stroke="black" stroke-width="1" fill="green" />
<circle cx="72" cy="107.138" r="24" stroke="black" stroke-width="1" fill="green" />
<circle cx="120" cy="107.138" r="24" stroke="black" stroke-width="1" fill="green" />
<circle cx="168" cy="107.138" r="24" stroke="black" stroke-width="1" fill="green" />
<circle cx="216" cy="107.138" r="24" stroke="black" stroke-width="1" fill="green" />
<circle cx="264" cy="107.138" r="24" stroke="black" stroke-width="1" fill="green" />
<circle cx="312" cy="107.138" r="24" stroke="black" stroke-width="1" fill="green" />
<circle cx="48" cy="148.708" r="24" stroke="black" stroke-width="1" fill="green" />
<circle cx="96" cy="148.708" r="24" stroke="black" stroke-width="1" fill="green" />
<circle cx="144" cy="148.708" r="24" stroke="black" stroke-width="1" fill="green" />
<circle cx="192" cy="148.708" r="24" stroke="black" stroke-width="1" fill="green" />
<circle cx="240" cy="148.708" r="24" stroke="black" stroke-width="1" fill="green" />
<circle cx="288" cy="148.708" r="24" stroke="black" stroke-width="1" fill="green" />
<circle cx="336" cy="148.708" r="24" stroke="black" stroke-width="1" fill="green" />
<circle cx="72" cy="190.277" r="24" stroke="black" stroke-width="1" fill="green" />
<circle cx="120" cy="190.277" r="24" stroke="black" stroke-width="1" fill="green" />
<circle cx="168" cy="190.277" r="24" stroke="black" stroke-width="1" fill="green" />
<circle cx="216" cy="190.277" r="24" stroke="black" stroke-width="1" fill="green" />
<circle cx="264" cy="190.277" r="24" stroke="black" stroke-width="1" fill="green" />
<circle cx="312" cy="190.277" r="24" stroke="black" stroke-width="1" fill="green" />
<circle cx="360" cy="190.277" r="24" stroke="black" stroke-width="1" fill="green" />
<circle cx="48" cy="231.846" r="24" stroke="black" stroke-width="1" fill="green" />
<circle cx="96" cy="231.846" r="24" stroke="black" stroke-width="1" fill="green" />
<circle cx="144" cy="231.846" r="24" stroke="black" stroke-width="1" fill="green" />
<circle cx="192" cy="231.846" r="24" stroke="black" stroke-width="1" fill="green" />
<circle cx="240" cy="231.846" r="24" stroke="black" stroke-width="1" fill="green" />
<circle cx="288" cy="231.846" r="24" stroke="black" stroke-width="1" fill="green" />
<circle cx="336" cy="231.846" r="24" stroke="black" stroke-width="1" fill="green" />
<circle cx="72" cy="273.415" r="24" stroke="black" stroke-width="1" fill="green" />
<circle cx="120" cy="273.415" r="24" stroke="black" stroke-width="1" fill="green" />
<circle cx="168" cy="273.415" r="24" stroke="black" stroke-width="1" fill="green" />
<circle cx="216" cy="273.415" r="24" stroke="black" stroke-width="1" fill="green" />
<circle cx="264" cy="273.415" r="24" stroke="black" stroke-width="1" fill="green" />
<circle cx="312" cy="273.415" r="24" stroke="black" stroke-width="1" fill="green" />
<circle cx="96" cy="314.985" r="24" stroke="black" stroke-width="1" fill="green" />
<circle cx="144" cy="314.985" r="24" stroke="black" stroke-width="1" fill="green" />
<circle cx="192" cy="314.985" r="24" stroke="black" stroke-width="1" fill="green" />
<circle cx="240" cy="314.985" r="24" stroke="black" stroke-width="1" fill="green" />
<circle cx="288" cy="314.985" r="24" stroke="black" stroke-width="1" fill="green" />
<circle cx="120" cy="356.554" r="24" stroke="black" stroke-width="1" fill="green" />
<circle cx="168" cy="356.554" r="24" stroke="black" stroke-width="1" fill="green" />
<circle cx="216" cy="356.554" r="24" stroke="black" stroke-width="1" fill="green" />
<circle cx="264" cy="356.554" r="24" stroke="black" stroke-width="1" fill="green" />
</svg>