<svg>
<polygon points= "100,0,0,173.205,200,173.205" style="fill:red;stroke:black;stroke-width:1" />
<rect x="12.7017" y="151.205" width="24" height="22"
style="fill:green;stroke:black;stroke-width:1;fill-opacity:1;stroke-opacity:0.9" />
<rect x="36.7017" y="151.205" width="24" height="22"
style="fill:green;stroke:black;stroke-width:1;fill-opacity:1;stroke-opacity:0.9" />
<rect x="60.7017" y="151.205" width="24" height="22"
style="fill:green;stroke:black;stroke-width:1;fill-opacity:1;stroke-opacity:0.9" />
<rect x="84.7017" y="151.205" width="24" height="22"
style="fill:green;stroke:black;stroke-width:1;fill-opacity:1;stroke-opacity:0.9" />
<rect x="108.702" y="151.205" width="24" height="22"
style="fill:green;stroke:black;stroke-width:1;fill-opacity:1;stroke-opacity:0.9" />
<rect x="132.702" y="151.205" width="24" height="22"
style="fill:green;stroke:black;stroke-width:1;fill-opacity:1;stroke-opacity:0.9" />
<rect x="25.4034" y="129.205" width="24" height="22"
style="fill:green;stroke:black;stroke-width:1;fill-opacity:1;stroke-opacity:0.9" />
<rect x="49.4034" y="129.205" width="24" height="22"
style="fill:green;stroke:black;stroke-width:1;fill-opacity:1;stroke-opacity:0.9" />
<rect x="73.4034" y="129.205" width="24" height="22"
style="fill:green;stroke:black;stroke-width:1;fill-opacity:1;stroke-opacity:0.9" />
<rect x="97.4034" y="129.205" width="24" height="22"
style="fill:green;stroke:black;stroke-width:1;fill-opacity:1;stroke-opacity:0.9" />
<rect x="121.403" y="129.205" width="24" height="22"
style="fill:green;stroke:black;stroke-width:1;fill-opacity:1;stroke-opacity:0.9" />
<rect x="38.1051" y="107.205" width="24" height="22"
style="fill:green;stroke:black;stroke-width:1;fill-opacity:1;stroke-opacity:0.9" />
<rect x="62.1051" y="107.205" width="24" height="22"
style="fill:green;stroke:black;stroke-width:1;fill-opacity:1;stroke-opacity:0.9" />
<rect x="86.1051" y="107.205" width="24" height="22"
style="fill:green;stroke:black;stroke-width:1;fill-opacity:1;stroke-opacity:0.9" />
<rect x="110.105" y="107.205" width="24" height="22"
style="fill:green;stroke:black;stroke-width:1;fill-opacity:1;stroke-opacity:0.9" />
<rect x="50.8068" y="85.2051" width="24" height="22"
style="fill:green;stroke:black;stroke-width:1;fill-opacity:1;stroke-opacity:0.9" />
<rect x="74.8068" y="85.2051" width="24" height="22"
style="fill:green;stroke:black;stroke-width:1;fill-opacity:1;stroke-opacity:0.9" />
<rect x="98.8068" y="85.2051" width="24" height="22"
style="fill:green;stroke:black;stroke-width:1;fill-opacity:1;stroke-opacity:0.9" />
<rect x="63.5085" y="63.2051" width="24" height="22"
style="fill:green;stroke:black;stroke-width:1;fill-opacity:1;stroke-opacity:0.9" />
<rect x="87.5085" y="63.2051" width="24" height="22"
style="fill:green;stroke:black;stroke-width:1;fill-opacity:1;stroke-opacity:0.9" />
<rect x="76.2102" y="41.2051" width="24" height="22"
style="fill:green;stroke:black;stroke-width:1;fill-opacity:1;stroke-opacity:0.9" />
</svg>