<svg>
<polygon points= "100,0,0,173.205,200,173.205" style="fill:red;stroke:black;stroke-width:1" />
<polygon points= "12,152.42,0,173.205,24,173.205" style="fill:green;stroke:black;stroke-width:1" />
<polygon points= "24,173.205,12,152.42,36,152.42" style="fill:green;stroke:black;stroke-width:1" />
<polygon points= "36,152.42,24,173.205,48,173.205" style="fill:green;stroke:black;stroke-width:1" />
<polygon points= "48,173.205,36,152.42,60,152.42" style="fill:green;stroke:black;stroke-width:1" />
<polygon points= "60,152.42,48,173.205,72,173.205" style="fill:green;stroke:black;stroke-width:1" />
<polygon points= "72,173.205,60,152.42,84,152.42" style="fill:green;stroke:black;stroke-width:1" />
<polygon points= "84,152.42,72,173.205,96,173.205" style="fill:green;stroke:black;stroke-width:1" />
<polygon points= "96,173.205,84,152.42,108,152.42" style="fill:green;stroke:black;stroke-width:1" />
<polygon points= "108,152.42,96,173.205,120,173.205" style="fill:green;stroke:black;stroke-width:1" />
<polygon points= "120,173.205,108,152.42,132,152.42" style="fill:green;stroke:black;stroke-width:1" />
<polygon points= "132,152.42,120,173.205,144,173.205" style="fill:green;stroke:black;stroke-width:1" />
<polygon points= "144,173.205,132,152.42,156,152.42" style="fill:green;stroke:black;stroke-width:1" />
<polygon points= "156,152.42,144,173.205,168,173.205" style="fill:green;stroke:black;stroke-width:1" />
<polygon points= "168,173.205,156,152.42,180,152.42" style="fill:green;stroke:black;stroke-width:1" />
<polygon points= "180,152.42,168,173.205,192,173.205" style="fill:green;stroke:black;stroke-width:1" />
<polygon points= "24,131.636,12,152.42,36,152.42" style="fill:green;stroke:black;stroke-width:1" />
<polygon points= "36,152.42,24,131.636,48,131.636" style="fill:green;stroke:black;stroke-width:1" />
<polygon points= "48,131.636,36,152.42,60,152.42" style="fill:green;stroke:black;stroke-width:1" />
<polygon points= "60,152.42,48,131.636,72,131.636" style="fill:green;stroke:black;stroke-width:1" />
<polygon points= "72,131.636,60,152.42,84,152.42" style="fill:green;stroke:black;stroke-width:1" />
<polygon points= "84,152.42,72,131.636,96,131.636" style="fill:green;stroke:black;stroke-width:1" />
<polygon points= "96,131.636,84,152.42,108,152.42" style="fill:green;stroke:black;stroke-width:1" />
<polygon points= "108,152.42,96,131.636,120,131.636" style="fill:green;stroke:black;stroke-width:1" />
<polygon points= "120,131.636,108,152.42,132,152.42" style="fill:green;stroke:black;stroke-width:1" />
<polygon points= "132,152.42,120,131.636,144,131.636" style="fill:green;stroke:black;stroke-width:1" />
<polygon points= "144,131.636,132,152.42,156,152.42" style="fill:green;stroke:black;stroke-width:1" />
<polygon points= "156,152.42,144,131.636,168,131.636" style="fill:green;stroke:black;stroke-width:1" />
<polygon points= "168,131.636,156,152.42,180,152.42" style="fill:green;stroke:black;stroke-width:1" />
<polygon points= "36,110.851,24,131.636,48,131.636" style="fill:green;stroke:black;stroke-width:1" />
<polygon points= "48,131.636,36,110.851,60,110.851" style="fill:green;stroke:black;stroke-width:1" />
<polygon points= "60,110.851,48,131.636,72,131.636" style="fill:green;stroke:black;stroke-width:1" />
<polygon points= "72,131.636,60,110.851,84,110.851" style="fill:green;stroke:black;stroke-width:1" />
<polygon points= "84,110.851,72,131.636,96,131.636" style="fill:green;stroke:black;stroke-width:1" />
<polygon points= "96,131.636,84,110.851,108,110.851" style="fill:green;stroke:black;stroke-width:1" />
<polygon points= "108,110.851,96,131.636,120,131.636" style="fill:green;stroke:black;stroke-width:1" />
<polygon points= "120,131.636,108,110.851,132,110.851" style="fill:green;stroke:black;stroke-width:1" />
<polygon points= "132,110.851,120,131.636,144,131.636" style="fill:green;stroke:black;stroke-width:1" />
<polygon points= "144,131.636,132,110.851,156,110.851" style="fill:green;stroke:black;stroke-width:1" />
<polygon points= "156,110.851,144,131.636,168,131.636" style="fill:green;stroke:black;stroke-width:1" />
<polygon points= "48,90.0666,36,110.851,60,110.851" style="fill:green;stroke:black;stroke-width:1" />
<polygon points= "60,110.851,48,90.0666,72,90.0666" style="fill:green;stroke:black;stroke-width:1" />
<polygon points= "72,90.0666,60,110.851,84,110.851" style="fill:green;stroke:black;stroke-width:1" />
<polygon points= "84,110.851,72,90.0666,96,90.0666" style="fill:green;stroke:black;stroke-width:1" />
<polygon points= "96,90.0666,84,110.851,108,110.851" style="fill:green;stroke:black;stroke-width:1" />
<polygon points= "108,110.851,96,90.0666,120,90.0666" style="fill:green;stroke:black;stroke-width:1" />
<polygon points= "120,90.0666,108,110.851,132,110.851" style="fill:green;stroke:black;stroke-width:1" />
<polygon points= "132,110.851,120,90.0666,144,90.0666" style="fill:green;stroke:black;stroke-width:1" />
<polygon points= "144,90.0666,132,110.851,156,110.851" style="fill:green;stroke:black;stroke-width:1" />
<polygon points= "60,69.282,48,90.0666,72,90.0666" style="fill:green;stroke:black;stroke-width:1" />
<polygon points= "72,90.0666,60,69.282,84,69.282" style="fill:green;stroke:black;stroke-width:1" />
<polygon points= "84,69.282,72,90.0666,96,90.0666" style="fill:green;stroke:black;stroke-width:1" />
<polygon points= "96,90.0666,84,69.282,108,69.282" style="fill:green;stroke:black;stroke-width:1" />
<polygon points= "108,69.282,96,90.0666,120,90.0666" style="fill:green;stroke:black;stroke-width:1" />
<polygon points= "120,90.0666,108,69.282,132,69.282" style="fill:green;stroke:black;stroke-width:1" />
<polygon points= "132,69.282,120,90.0666,144,90.0666" style="fill:green;stroke:black;stroke-width:1" />
<polygon points= "72,48.4974,60,69.282,84,69.282" style="fill:green;stroke:black;stroke-width:1" />
<polygon points= "84,69.282,72,48.4974,96,48.4974" style="fill:green;stroke:black;stroke-width:1" />
<polygon points= "96,48.4974,84,69.282,108,69.282" style="fill:green;stroke:black;stroke-width:1" />
<polygon points= "108,69.282,96,48.4974,120,48.4974" style="fill:green;stroke:black;stroke-width:1" />
<polygon points= "120,48.4974,108,69.282,132,69.282" style="fill:green;stroke:black;stroke-width:1" />
<polygon points= "84,27.7128,72,48.4974,96,48.4974" style="fill:green;stroke:black;stroke-width:1" />
<polygon points= "96,48.4974,84,27.7128,108,27.7128" style="fill:green;stroke:black;stroke-width:1" />
<polygon points= "108,27.7128,96,48.4974,120,48.4974" style="fill:green;stroke:black;stroke-width:1" />
<polygon points= "96,6.9282,84,27.7128,108,27.7128" style="fill:green;stroke:black;stroke-width:1" />
</svg>