<svg height="600" width="600">
<circle cx="300" cy="300" r="300" stroke="black" stroke-width="1" fill="red" />
<rect x="87.8674" y="87.8674" width="80" height="57"
style="fill:green;stroke:black;stroke-width:1;fill-opacity:1;stroke-opacity:0.9" />
<rect x="167.867" y="87.8674" width="80" height="57"
style="fill:green;stroke:black;stroke-width:1;fill-opacity:1;stroke-opacity:0.9" />
<rect x="247.867" y="87.8674" width="80" height="57"
style="fill:green;stroke:black;stroke-width:1;fill-opacity:1;stroke-opacity:0.9" />
<rect x="327.867" y="87.8674" width="80" height="57"
style="fill:green;stroke:black;stroke-width:1;fill-opacity:1;stroke-opacity:0.9" />
<rect x="407.867" y="87.8674" width="80" height="57"
style="fill:green;stroke:black;stroke-width:1;fill-opacity:1;stroke-opacity:0.9" />
<rect x="87.8674" y="144.867" width="80" height="57"
style="fill:green;stroke:black;stroke-width:1;fill-opacity:1;stroke-opacity:0.9" />
<rect x="167.867" y="144.867" width="80" height="57"
style="fill:green;stroke:black;stroke-width:1;fill-opacity:1;stroke-opacity:0.9" />
<rect x="247.867" y="144.867" width="80" height="57"
style="fill:green;stroke:black;stroke-width:1;fill-opacity:1;stroke-opacity:0.9" />
<rect x="327.867" y="144.867" width="80" height="57"
style="fill:green;stroke:black;stroke-width:1;fill-opacity:1;stroke-opacity:0.9" />
<rect x="407.867" y="144.867" width="80" height="57"
style="fill:green;stroke:black;stroke-width:1;fill-opacity:1;stroke-opacity:0.9" />
<rect x="87.8674" y="201.867" width="80" height="57"
style="fill:green;stroke:black;stroke-width:1;fill-opacity:1;stroke-opacity:0.9" />
<rect x="167.867" y="201.867" width="80" height="57"
style="fill:green;stroke:black;stroke-width:1;fill-opacity:1;stroke-opacity:0.9" />
<rect x="247.867" y="201.867" width="80" height="57"
style="fill:green;stroke:black;stroke-width:1;fill-opacity:1;stroke-opacity:0.9" />
<rect x="327.867" y="201.867" width="80" height="57"
style="fill:green;stroke:black;stroke-width:1;fill-opacity:1;stroke-opacity:0.9" />
<rect x="407.867" y="201.867" width="80" height="57"
style="fill:green;stroke:black;stroke-width:1;fill-opacity:1;stroke-opacity:0.9" />
<rect x="87.8674" y="258.867" width="80" height="57"
style="fill:green;stroke:black;stroke-width:1;fill-opacity:1;stroke-opacity:0.9" />
<rect x="167.867" y="258.867" width="80" height="57"
style="fill:green;stroke:black;stroke-width:1;fill-opacity:1;stroke-opacity:0.9" />
<rect x="247.867" y="258.867" width="80" height="57"
style="fill:green;stroke:black;stroke-width:1;fill-opacity:1;stroke-opacity:0.9" />
<rect x="327.867" y="258.867" width="80" height="57"
style="fill:green;stroke:black;stroke-width:1;fill-opacity:1;stroke-opacity:0.9" />
<rect x="407.867" y="258.867" width="80" height="57"
style="fill:green;stroke:black;stroke-width:1;fill-opacity:1;stroke-opacity:0.9" />
<rect x="87.8674" y="315.867" width="80" height="57"
style="fill:green;stroke:black;stroke-width:1;fill-opacity:1;stroke-opacity:0.9" />
<rect x="167.867" y="315.867" width="80" height="57"
style="fill:green;stroke:black;stroke-width:1;fill-opacity:1;stroke-opacity:0.9" />
<rect x="247.867" y="315.867" width="80" height="57"
style="fill:green;stroke:black;stroke-width:1;fill-opacity:1;stroke-opacity:0.9" />
<rect x="327.867" y="315.867" width="80" height="57"
style="fill:green;stroke:black;stroke-width:1;fill-opacity:1;stroke-opacity:0.9" />
<rect x="407.867" y="315.867" width="80" height="57"
style="fill:green;stroke:black;stroke-width:1;fill-opacity:1;stroke-opacity:0.9" />
<rect x="87.8674" y="372.867" width="80" height="57"
style="fill:green;stroke:black;stroke-width:1;fill-opacity:1;stroke-opacity:0.9" />
<rect x="167.867" y="372.867" width="80" height="57"
style="fill:green;stroke:black;stroke-width:1;fill-opacity:1;stroke-opacity:0.9" />
<rect x="247.867" y="372.867" width="80" height="57"
style="fill:green;stroke:black;stroke-width:1;fill-opacity:1;stroke-opacity:0.9" />
<rect x="327.867" y="372.867" width="80" height="57"
style="fill:green;stroke:black;stroke-width:1;fill-opacity:1;stroke-opacity:0.9" />
<rect x="407.867" y="372.867" width="80" height="57"
style="fill:green;stroke:black;stroke-width:1;fill-opacity:1;stroke-opacity:0.9" />
<rect x="87.8674" y="429.867" width="80" height="57"
style="fill:green;stroke:black;stroke-width:1;fill-opacity:1;stroke-opacity:0.9" />
<rect x="167.867" y="429.867" width="80" height="57"
style="fill:green;stroke:black;stroke-width:1;fill-opacity:1;stroke-opacity:0.9" />
<rect x="247.867" y="429.867" width="80" height="57"
style="fill:green;stroke:black;stroke-width:1;fill-opacity:1;stroke-opacity:0.9" />
<rect x="327.867" y="429.867" width="80" height="57"
style="fill:green;stroke:black;stroke-width:1;fill-opacity:1;stroke-opacity:0.9" />
<rect x="407.867" y="429.867" width="80" height="57"
style="fill:green;stroke:black;stroke-width:1;fill-opacity:1;stroke-opacity:0.9" />
</svg>