<svg height="433.013" width="500">
<polygon points= "250,0,0,433.013,500,433.013" style="fill:red;stroke:black;stroke-width:1" />
<polygon points= "22.5,394.042,0,433.013,45,433.013" style="fill:green;stroke:black;stroke-width:1" />
<polygon points= "45,433.013,22.5,394.042,67.5,394.042" style="fill:green;stroke:black;stroke-width:1" />
<polygon points= "67.5,394.042,45,433.013,90,433.013" style="fill:green;stroke:black;stroke-width:1" />
<polygon points= "90,433.013,67.5,394.042,112.5,394.042" style="fill:green;stroke:black;stroke-width:1" />
<polygon points= "112.5,394.042,90,433.013,135,433.013" style="fill:green;stroke:black;stroke-width:1" />
<polygon points= "135,433.013,112.5,394.042,157.5,394.042" style="fill:green;stroke:black;stroke-width:1" />
<polygon points= "157.5,394.042,135,433.013,180,433.013" style="fill:green;stroke:black;stroke-width:1" />
<polygon points= "180,433.013,157.5,394.042,202.5,394.042" style="fill:green;stroke:black;stroke-width:1" />
<polygon points= "202.5,394.042,180,433.013,225,433.013" style="fill:green;stroke:black;stroke-width:1" />
<polygon points= "225,433.013,202.5,394.042,247.5,394.042" style="fill:green;stroke:black;stroke-width:1" />
<polygon points= "247.5,394.042,225,433.013,270,433.013" style="fill:green;stroke:black;stroke-width:1" />
<polygon points= "270,433.013,247.5,394.042,292.5,394.042" style="fill:green;stroke:black;stroke-width:1" />
<polygon points= "292.5,394.042,270,433.013,315,433.013" style="fill:green;stroke:black;stroke-width:1" />
<polygon points= "315,433.013,292.5,394.042,337.5,394.042" style="fill:green;stroke:black;stroke-width:1" />
<polygon points= "337.5,394.042,315,433.013,360,433.013" style="fill:green;stroke:black;stroke-width:1" />
<polygon points= "360,433.013,337.5,394.042,382.5,394.042" style="fill:green;stroke:black;stroke-width:1" />
<polygon points= "382.5,394.042,360,433.013,405,433.013" style="fill:green;stroke:black;stroke-width:1" />
<polygon points= "405,433.013,382.5,394.042,427.5,394.042" style="fill:green;stroke:black;stroke-width:1" />
<polygon points= "427.5,394.042,405,433.013,450,433.013" style="fill:green;stroke:black;stroke-width:1" />
<polygon points= "450,433.013,427.5,394.042,472.5,394.042" style="fill:green;stroke:black;stroke-width:1" />
<polygon points= "472.5,394.042,450,433.013,495,433.013" style="fill:green;stroke:black;stroke-width:1" />
<polygon points= "45,355.07,22.5,394.042,67.5,394.042" style="fill:green;stroke:black;stroke-width:1" />
<polygon points= "67.5,394.042,45,355.07,90,355.07" style="fill:green;stroke:black;stroke-width:1" />
<polygon points= "90,355.07,67.5,394.042,112.5,394.042" style="fill:green;stroke:black;stroke-width:1" />
<polygon points= "112.5,394.042,90,355.07,135,355.07" style="fill:green;stroke:black;stroke-width:1" />
<polygon points= "135,355.07,112.5,394.042,157.5,394.042" style="fill:green;stroke:black;stroke-width:1" />
<polygon points= "157.5,394.042,135,355.07,180,355.07" style="fill:green;stroke:black;stroke-width:1" />
<polygon points= "180,355.07,157.5,394.042,202.5,394.042" style="fill:green;stroke:black;stroke-width:1" />
<polygon points= "202.5,394.042,180,355.07,225,355.07" style="fill:green;stroke:black;stroke-width:1" />
<polygon points= "225,355.07,202.5,394.042,247.5,394.042" style="fill:green;stroke:black;stroke-width:1" />
<polygon points= "247.5,394.042,225,355.07,270,355.07" style="fill:green;stroke:black;stroke-width:1" />
<polygon points= "270,355.07,247.5,394.042,292.5,394.042" style="fill:green;stroke:black;stroke-width:1" />
<polygon points= "292.5,394.042,270,355.07,315,355.07" style="fill:green;stroke:black;stroke-width:1" />
<polygon points= "315,355.07,292.5,394.042,337.5,394.042" style="fill:green;stroke:black;stroke-width:1" />
<polygon points= "337.5,394.042,315,355.07,360,355.07" style="fill:green;stroke:black;stroke-width:1" />
<polygon points= "360,355.07,337.5,394.042,382.5,394.042" style="fill:green;stroke:black;stroke-width:1" />
<polygon points= "382.5,394.042,360,355.07,405,355.07" style="fill:green;stroke:black;stroke-width:1" />
<polygon points= "405,355.07,382.5,394.042,427.5,394.042" style="fill:green;stroke:black;stroke-width:1" />
<polygon points= "427.5,394.042,405,355.07,450,355.07" style="fill:green;stroke:black;stroke-width:1" />
<polygon points= "450,355.07,427.5,394.042,472.5,394.042" style="fill:green;stroke:black;stroke-width:1" />
<polygon points= "67.5,316.099,45,355.07,90,355.07" style="fill:green;stroke:black;stroke-width:1" />
<polygon points= "90,355.07,67.5,316.099,112.5,316.099" style="fill:green;stroke:black;stroke-width:1" />
<polygon points= "112.5,316.099,90,355.07,135,355.07" style="fill:green;stroke:black;stroke-width:1" />
<polygon points= "135,355.07,112.5,316.099,157.5,316.099" style="fill:green;stroke:black;stroke-width:1" />
<polygon points= "157.5,316.099,135,355.07,180,355.07" style="fill:green;stroke:black;stroke-width:1" />
<polygon points= "180,355.07,157.5,316.099,202.5,316.099" style="fill:green;stroke:black;stroke-width:1" />
<polygon points= "202.5,316.099,180,355.07,225,355.07" style="fill:green;stroke:black;stroke-width:1" />
<polygon points= "225,355.07,202.5,316.099,247.5,316.099" style="fill:green;stroke:black;stroke-width:1" />
<polygon points= "247.5,316.099,225,355.07,270,355.07" style="fill:green;stroke:black;stroke-width:1" />
<polygon points= "270,355.07,247.5,316.099,292.5,316.099" style="fill:green;stroke:black;stroke-width:1" />
<polygon points= "292.5,316.099,270,355.07,315,355.07" style="fill:green;stroke:black;stroke-width:1" />
<polygon points= "315,355.07,292.5,316.099,337.5,316.099" style="fill:green;stroke:black;stroke-width:1" />
<polygon points= "337.5,316.099,315,355.07,360,355.07" style="fill:green;stroke:black;stroke-width:1" />
<polygon points= "360,355.07,337.5,316.099,382.5,316.099" style="fill:green;stroke:black;stroke-width:1" />
<polygon points= "382.5,316.099,360,355.07,405,355.07" style="fill:green;stroke:black;stroke-width:1" />
<polygon points= "405,355.07,382.5,316.099,427.5,316.099" style="fill:green;stroke:black;stroke-width:1" />
<polygon points= "427.5,316.099,405,355.07,450,355.07" style="fill:green;stroke:black;stroke-width:1" />
<polygon points= "90,277.128,67.5,316.099,112.5,316.099" style="fill:green;stroke:black;stroke-width:1" />
<polygon points= "112.5,316.099,90,277.128,135,277.128" style="fill:green;stroke:black;stroke-width:1" />
<polygon points= "135,277.128,112.5,316.099,157.5,316.099" style="fill:green;stroke:black;stroke-width:1" />
<polygon points= "157.5,316.099,135,277.128,180,277.128" style="fill:green;stroke:black;stroke-width:1" />
<polygon points= "180,277.128,157.5,316.099,202.5,316.099" style="fill:green;stroke:black;stroke-width:1" />
<polygon points= "202.5,316.099,180,277.128,225,277.128" style="fill:green;stroke:black;stroke-width:1" />
<polygon points= "225,277.128,202.5,316.099,247.5,316.099" style="fill:green;stroke:black;stroke-width:1" />
<polygon points= "247.5,316.099,225,277.128,270,277.128" style="fill:green;stroke:black;stroke-width:1" />
<polygon points= "270,277.128,247.5,316.099,292.5,316.099" style="fill:green;stroke:black;stroke-width:1" />
<polygon points= "292.5,316.099,270,277.128,315,277.128" style="fill:green;stroke:black;stroke-width:1" />
<polygon points= "315,277.128,292.5,316.099,337.5,316.099" style="fill:green;stroke:black;stroke-width:1" />
<polygon points= "337.5,316.099,315,277.128,360,277.128" style="fill:green;stroke:black;stroke-width:1" />
<polygon points= "360,277.128,337.5,316.099,382.5,316.099" style="fill:green;stroke:black;stroke-width:1" />
<polygon points= "382.5,316.099,360,277.128,405,277.128" style="fill:green;stroke:black;stroke-width:1" />
<polygon points= "405,277.128,382.5,316.099,427.5,316.099" style="fill:green;stroke:black;stroke-width:1" />
<polygon points= "112.5,238.157,90,277.128,135,277.128" style="fill:green;stroke:black;stroke-width:1" />
<polygon points= "135,277.128,112.5,238.157,157.5,238.157" style="fill:green;stroke:black;stroke-width:1" />
<polygon points= "157.5,238.157,135,277.128,180,277.128" style="fill:green;stroke:black;stroke-width:1" />
<polygon points= "180,277.128,157.5,238.157,202.5,238.157" style="fill:green;stroke:black;stroke-width:1" />
<polygon points= "202.5,238.157,180,277.128,225,277.128" style="fill:green;stroke:black;stroke-width:1" />
<polygon points= "225,277.128,202.5,238.157,247.5,238.157" style="fill:green;stroke:black;stroke-width:1" />
<polygon points= "247.5,238.157,225,277.128,270,277.128" style="fill:green;stroke:black;stroke-width:1" />
<polygon points= "270,277.128,247.5,238.157,292.5,238.157" style="fill:green;stroke:black;stroke-width:1" />
<polygon points= "292.5,238.157,270,277.128,315,277.128" style="fill:green;stroke:black;stroke-width:1" />
<polygon points= "315,277.128,292.5,238.157,337.5,238.157" style="fill:green;stroke:black;stroke-width:1" />
<polygon points= "337.5,238.157,315,277.128,360,277.128" style="fill:green;stroke:black;stroke-width:1" />
<polygon points= "360,277.128,337.5,238.157,382.5,238.157" style="fill:green;stroke:black;stroke-width:1" />
<polygon points= "382.5,238.157,360,277.128,405,277.128" style="fill:green;stroke:black;stroke-width:1" />
<polygon points= "135,199.186,112.5,238.157,157.5,238.157" style="fill:green;stroke:black;stroke-width:1" />
<polygon points= "157.5,238.157,135,199.186,180,199.186" style="fill:green;stroke:black;stroke-width:1" />
<polygon points= "180,199.186,157.5,238.157,202.5,238.157" style="fill:green;stroke:black;stroke-width:1" />
<polygon points= "202.5,238.157,180,199.186,225,199.186" style="fill:green;stroke:black;stroke-width:1" />
<polygon points= "225,199.186,202.5,238.157,247.5,238.157" style="fill:green;stroke:black;stroke-width:1" />
<polygon points= "247.5,238.157,225,199.186,270,199.186" style="fill:green;stroke:black;stroke-width:1" />
<polygon points= "270,199.186,247.5,238.157,292.5,238.157" style="fill:green;stroke:black;stroke-width:1" />
<polygon points= "292.5,238.157,270,199.186,315,199.186" style="fill:green;stroke:black;stroke-width:1" />
<polygon points= "315,199.186,292.5,238.157,337.5,238.157" style="fill:green;stroke:black;stroke-width:1" />
<polygon points= "337.5,238.157,315,199.186,360,199.186" style="fill:green;stroke:black;stroke-width:1" />
<polygon points= "360,199.186,337.5,238.157,382.5,238.157" style="fill:green;stroke:black;stroke-width:1" />
<polygon points= "157.5,160.215,135,199.186,180,199.186" style="fill:green;stroke:black;stroke-width:1" />
<polygon points= "180,199.186,157.5,160.215,202.5,160.215" style="fill:green;stroke:black;stroke-width:1" />
<polygon points= "202.5,160.215,180,199.186,225,199.186" style="fill:green;stroke:black;stroke-width:1" />
<polygon points= "225,199.186,202.5,160.215,247.5,160.215" style="fill:green;stroke:black;stroke-width:1" />
<polygon points= "247.5,160.215,225,199.186,270,199.186" style="fill:green;stroke:black;stroke-width:1" />
<polygon points= "270,199.186,247.5,160.215,292.5,160.215" style="fill:green;stroke:black;stroke-width:1" />
<polygon points= "292.5,160.215,270,199.186,315,199.186" style="fill:green;stroke:black;stroke-width:1" />
<polygon points= "315,199.186,292.5,160.215,337.5,160.215" style="fill:green;stroke:black;stroke-width:1" />
<polygon points= "337.5,160.215,315,199.186,360,199.186" style="fill:green;stroke:black;stroke-width:1" />
<polygon points= "180,121.244,157.5,160.215,202.5,160.215" style="fill:green;stroke:black;stroke-width:1" />
<polygon points= "202.5,160.215,180,121.244,225,121.244" style="fill:green;stroke:black;stroke-width:1" />
<polygon points= "225,121.244,202.5,160.215,247.5,160.215" style="fill:green;stroke:black;stroke-width:1" />
<polygon points= "247.5,160.215,225,121.244,270,121.244" style="fill:green;stroke:black;stroke-width:1" />
<polygon points= "270,121.244,247.5,160.215,292.5,160.215" style="fill:green;stroke:black;stroke-width:1" />
<polygon points= "292.5,160.215,270,121.244,315,121.244" style="fill:green;stroke:black;stroke-width:1" />
<polygon points= "315,121.244,292.5,160.215,337.5,160.215" style="fill:green;stroke:black;stroke-width:1" />
<polygon points= "202.5,82.2724,180,121.244,225,121.244" style="fill:green;stroke:black;stroke-width:1" />
<polygon points= "225,121.244,202.5,82.2724,247.5,82.2724" style="fill:green;stroke:black;stroke-width:1" />
<polygon points= "247.5,82.2724,225,121.244,270,121.244" style="fill:green;stroke:black;stroke-width:1" />
<polygon points= "270,121.244,247.5,82.2724,292.5,82.2724" style="fill:green;stroke:black;stroke-width:1" />
<polygon points= "292.5,82.2724,270,121.244,315,121.244" style="fill:green;stroke:black;stroke-width:1" />
<polygon points= "225,43.3013,202.5,82.2724,247.5,82.2724" style="fill:green;stroke:black;stroke-width:1" />
<polygon points= "247.5,82.2724,225,43.3013,270,43.3013" style="fill:green;stroke:black;stroke-width:1" />
<polygon points= "270,43.3013,247.5,82.2724,292.5,82.2724" style="fill:green;stroke:black;stroke-width:1" />
<polygon points= "247.5,4.33013,225,43.3013,270,43.3013" style="fill:green;stroke:black;stroke-width:1" />
</svg>