<svg>
<rect x="0" y="0" width="300" height="300"
style="fill:red;stroke:black;stroke-width:1;fill-opacity:1;stroke-opacity:0.9" />
<rect x="0" y="0" width="24" height="13.5"
style="fill:green;stroke:black;stroke-width:1;fill-opacity:1;stroke-opacity:0.9" />
<rect x="24" y="0" width="24" height="13.5"
style="fill:green;stroke:black;stroke-width:1;fill-opacity:1;stroke-opacity:0.9" />
<rect x="48" y="0" width="24" height="13.5"
style="fill:green;stroke:black;stroke-width:1;fill-opacity:1;stroke-opacity:0.9" />
<rect x="72" y="0" width="24" height="13.5"
style="fill:green;stroke:black;stroke-width:1;fill-opacity:1;stroke-opacity:0.9" />
<rect x="96" y="0" width="24" height="13.5"
style="fill:green;stroke:black;stroke-width:1;fill-opacity:1;stroke-opacity:0.9" />
<rect x="120" y="0" width="24" height="13.5"
style="fill:green;stroke:black;stroke-width:1;fill-opacity:1;stroke-opacity:0.9" />
<rect x="144" y="0" width="24" height="13.5"
style="fill:green;stroke:black;stroke-width:1;fill-opacity:1;stroke-opacity:0.9" />
<rect x="168" y="0" width="24" height="13.5"
style="fill:green;stroke:black;stroke-width:1;fill-opacity:1;stroke-opacity:0.9" />
<rect x="192" y="0" width="24" height="13.5"
style="fill:green;stroke:black;stroke-width:1;fill-opacity:1;stroke-opacity:0.9" />
<rect x="216" y="0" width="24" height="13.5"
style="fill:green;stroke:black;stroke-width:1;fill-opacity:1;stroke-opacity:0.9" />
<rect x="240" y="0" width="24" height="13.5"
style="fill:green;stroke:black;stroke-width:1;fill-opacity:1;stroke-opacity:0.9" />
<rect x="264" y="0" width="24" height="13.5"
style="fill:green;stroke:black;stroke-width:1;fill-opacity:1;stroke-opacity:0.9" />
<rect x="0" y="13.5" width="24" height="13.5"
style="fill:green;stroke:black;stroke-width:1;fill-opacity:1;stroke-opacity:0.9" />
<rect x="24" y="13.5" width="24" height="13.5"
style="fill:green;stroke:black;stroke-width:1;fill-opacity:1;stroke-opacity:0.9" />
<rect x="48" y="13.5" width="24" height="13.5"
style="fill:green;stroke:black;stroke-width:1;fill-opacity:1;stroke-opacity:0.9" />
<rect x="72" y="13.5" width="24" height="13.5"
style="fill:green;stroke:black;stroke-width:1;fill-opacity:1;stroke-opacity:0.9" />
<rect x="96" y="13.5" width="24" height="13.5"
style="fill:green;stroke:black;stroke-width:1;fill-opacity:1;stroke-opacity:0.9" />
<rect x="120" y="13.5" width="24" height="13.5"
style="fill:green;stroke:black;stroke-width:1;fill-opacity:1;stroke-opacity:0.9" />
<rect x="144" y="13.5" width="24" height="13.5"
style="fill:green;stroke:black;stroke-width:1;fill-opacity:1;stroke-opacity:0.9" />
<rect x="168" y="13.5" width="24" height="13.5"
style="fill:green;stroke:black;stroke-width:1;fill-opacity:1;stroke-opacity:0.9" />
<rect x="192" y="13.5" width="24" height="13.5"
style="fill:green;stroke:black;stroke-width:1;fill-opacity:1;stroke-opacity:0.9" />
<rect x="216" y="13.5" width="24" height="13.5"
style="fill:green;stroke:black;stroke-width:1;fill-opacity:1;stroke-opacity:0.9" />
<rect x="240" y="13.5" width="24" height="13.5"
style="fill:green;stroke:black;stroke-width:1;fill-opacity:1;stroke-opacity:0.9" />
<rect x="264" y="13.5" width="24" height="13.5"
style="fill:green;stroke:black;stroke-width:1;fill-opacity:1;stroke-opacity:0.9" />
<rect x="0" y="27" width="24" height="13.5"
style="fill:green;stroke:black;stroke-width:1;fill-opacity:1;stroke-opacity:0.9" />
<rect x="24" y="27" width="24" height="13.5"
style="fill:green;stroke:black;stroke-width:1;fill-opacity:1;stroke-opacity:0.9" />
<rect x="48" y="27" width="24" height="13.5"
style="fill:green;stroke:black;stroke-width:1;fill-opacity:1;stroke-opacity:0.9" />
<rect x="72" y="27" width="24" height="13.5"
style="fill:green;stroke:black;stroke-width:1;fill-opacity:1;stroke-opacity:0.9" />
<rect x="96" y="27" width="24" height="13.5"
style="fill:green;stroke:black;stroke-width:1;fill-opacity:1;stroke-opacity:0.9" />
<rect x="120" y="27" width="24" height="13.5"
style="fill:green;stroke:black;stroke-width:1;fill-opacity:1;stroke-opacity:0.9" />
<rect x="144" y="27" width="24" height="13.5"
style="fill:green;stroke:black;stroke-width:1;fill-opacity:1;stroke-opacity:0.9" />
<rect x="168" y="27" width="24" height="13.5"
style="fill:green;stroke:black;stroke-width:1;fill-opacity:1;stroke-opacity:0.9" />
<rect x="192" y="27" width="24" height="13.5"
style="fill:green;stroke:black;stroke-width:1;fill-opacity:1;stroke-opacity:0.9" />
<rect x="216" y="27" width="24" height="13.5"
style="fill:green;stroke:black;stroke-width:1;fill-opacity:1;stroke-opacity:0.9" />
<rect x="240" y="27" width="24" height="13.5"
style="fill:green;stroke:black;stroke-width:1;fill-opacity:1;stroke-opacity:0.9" />
<rect x="264" y="27" width="24" height="13.5"
style="fill:green;stroke:black;stroke-width:1;fill-opacity:1;stroke-opacity:0.9" />
<rect x="0" y="40.5" width="24" height="13.5"
style="fill:green;stroke:black;stroke-width:1;fill-opacity:1;stroke-opacity:0.9" />
<rect x="24" y="40.5" width="24" height="13.5"
style="fill:green;stroke:black;stroke-width:1;fill-opacity:1;stroke-opacity:0.9" />
<rect x="48" y="40.5" width="24" height="13.5"
style="fill:green;stroke:black;stroke-width:1;fill-opacity:1;stroke-opacity:0.9" />
<rect x="72" y="40.5" width="24" height="13.5"
style="fill:green;stroke:black;stroke-width:1;fill-opacity:1;stroke-opacity:0.9" />
<rect x="96" y="40.5" width="24" height="13.5"
style="fill:green;stroke:black;stroke-width:1;fill-opacity:1;stroke-opacity:0.9" />
<rect x="120" y="40.5" width="24" height="13.5"
style="fill:green;stroke:black;stroke-width:1;fill-opacity:1;stroke-opacity:0.9" />
<rect x="144" y="40.5" width="24" height="13.5"
style="fill:green;stroke:black;stroke-width:1;fill-opacity:1;stroke-opacity:0.9" />
<rect x="168" y="40.5" width="24" height="13.5"
style="fill:green;stroke:black;stroke-width:1;fill-opacity:1;stroke-opacity:0.9" />
<rect x="192" y="40.5" width="24" height="13.5"
style="fill:green;stroke:black;stroke-width:1;fill-opacity:1;stroke-opacity:0.9" />
<rect x="216" y="40.5" width="24" height="13.5"
style="fill:green;stroke:black;stroke-width:1;fill-opacity:1;stroke-opacity:0.9" />
<rect x="240" y="40.5" width="24" height="13.5"
style="fill:green;stroke:black;stroke-width:1;fill-opacity:1;stroke-opacity:0.9" />
<rect x="264" y="40.5" width="24" height="13.5"
style="fill:green;stroke:black;stroke-width:1;fill-opacity:1;stroke-opacity:0.9" />
<rect x="0" y="54" width="24" height="13.5"
style="fill:green;stroke:black;stroke-width:1;fill-opacity:1;stroke-opacity:0.9" />
<rect x="24" y="54" width="24" height="13.5"
style="fill:green;stroke:black;stroke-width:1;fill-opacity:1;stroke-opacity:0.9" />
<rect x="48" y="54" width="24" height="13.5"
style="fill:green;stroke:black;stroke-width:1;fill-opacity:1;stroke-opacity:0.9" />
<rect x="72" y="54" width="24" height="13.5"
style="fill:green;stroke:black;stroke-width:1;fill-opacity:1;stroke-opacity:0.9" />
<rect x="96" y="54" width="24" height="13.5"
style="fill:green;stroke:black;stroke-width:1;fill-opacity:1;stroke-opacity:0.9" />
<rect x="120" y="54" width="24" height="13.5"
style="fill:green;stroke:black;stroke-width:1;fill-opacity:1;stroke-opacity:0.9" />
<rect x="144" y="54" width="24" height="13.5"
style="fill:green;stroke:black;stroke-width:1;fill-opacity:1;stroke-opacity:0.9" />
<rect x="168" y="54" width="24" height="13.5"
style="fill:green;stroke:black;stroke-width:1;fill-opacity:1;stroke-opacity:0.9" />
<rect x="192" y="54" width="24" height="13.5"
style="fill:green;stroke:black;stroke-width:1;fill-opacity:1;stroke-opacity:0.9" />
<rect x="216" y="54" width="24" height="13.5"
style="fill:green;stroke:black;stroke-width:1;fill-opacity:1;stroke-opacity:0.9" />
<rect x="240" y="54" width="24" height="13.5"
style="fill:green;stroke:black;stroke-width:1;fill-opacity:1;stroke-opacity:0.9" />
<rect x="264" y="54" width="24" height="13.5"
style="fill:green;stroke:black;stroke-width:1;fill-opacity:1;stroke-opacity:0.9" />
<rect x="0" y="67.5" width="24" height="13.5"
style="fill:green;stroke:black;stroke-width:1;fill-opacity:1;stroke-opacity:0.9" />
<rect x="24" y="67.5" width="24" height="13.5"
style="fill:green;stroke:black;stroke-width:1;fill-opacity:1;stroke-opacity:0.9" />
<rect x="48" y="67.5" width="24" height="13.5"
style="fill:green;stroke:black;stroke-width:1;fill-opacity:1;stroke-opacity:0.9" />
<rect x="72" y="67.5" width="24" height="13.5"
style="fill:green;stroke:black;stroke-width:1;fill-opacity:1;stroke-opacity:0.9" />
<rect x="96" y="67.5" width="24" height="13.5"
style="fill:green;stroke:black;stroke-width:1;fill-opacity:1;stroke-opacity:0.9" />
<rect x="120" y="67.5" width="24" height="13.5"
style="fill:green;stroke:black;stroke-width:1;fill-opacity:1;stroke-opacity:0.9" />
<rect x="144" y="67.5" width="24" height="13.5"
style="fill:green;stroke:black;stroke-width:1;fill-opacity:1;stroke-opacity:0.9" />
<rect x="168" y="67.5" width="24" height="13.5"
style="fill:green;stroke:black;stroke-width:1;fill-opacity:1;stroke-opacity:0.9" />
<rect x="192" y="67.5" width="24" height="13.5"
style="fill:green;stroke:black;stroke-width:1;fill-opacity:1;stroke-opacity:0.9" />
<rect x="216" y="67.5" width="24" height="13.5"
style="fill:green;stroke:black;stroke-width:1;fill-opacity:1;stroke-opacity:0.9" />
<rect x="240" y="67.5" width="24" height="13.5"
style="fill:green;stroke:black;stroke-width:1;fill-opacity:1;stroke-opacity:0.9" />
<rect x="264" y="67.5" width="24" height="13.5"
style="fill:green;stroke:black;stroke-width:1;fill-opacity:1;stroke-opacity:0.9" />
<rect x="0" y="81" width="24" height="13.5"
style="fill:green;stroke:black;stroke-width:1;fill-opacity:1;stroke-opacity:0.9" />
<rect x="24" y="81" width="24" height="13.5"
style="fill:green;stroke:black;stroke-width:1;fill-opacity:1;stroke-opacity:0.9" />
<rect x="48" y="81" width="24" height="13.5"
style="fill:green;stroke:black;stroke-width:1;fill-opacity:1;stroke-opacity:0.9" />
<rect x="72" y="81" width="24" height="13.5"
style="fill:green;stroke:black;stroke-width:1;fill-opacity:1;stroke-opacity:0.9" />
<rect x="96" y="81" width="24" height="13.5"
style="fill:green;stroke:black;stroke-width:1;fill-opacity:1;stroke-opacity:0.9" />
<rect x="120" y="81" width="24" height="13.5"
style="fill:green;stroke:black;stroke-width:1;fill-opacity:1;stroke-opacity:0.9" />
<rect x="144" y="81" width="24" height="13.5"
style="fill:green;stroke:black;stroke-width:1;fill-opacity:1;stroke-opacity:0.9" />
<rect x="168" y="81" width="24" height="13.5"
style="fill:green;stroke:black;stroke-width:1;fill-opacity:1;stroke-opacity:0.9" />
<rect x="192" y="81" width="24" height="13.5"
style="fill:green;stroke:black;stroke-width:1;fill-opacity:1;stroke-opacity:0.9" />
<rect x="216" y="81" width="24" height="13.5"
style="fill:green;stroke:black;stroke-width:1;fill-opacity:1;stroke-opacity:0.9" />
<rect x="240" y="81" width="24" height="13.5"
style="fill:green;stroke:black;stroke-width:1;fill-opacity:1;stroke-opacity:0.9" />
<rect x="264" y="81" width="24" height="13.5"
style="fill:green;stroke:black;stroke-width:1;fill-opacity:1;stroke-opacity:0.9" />
<rect x="0" y="94.5" width="24" height="13.5"
style="fill:green;stroke:black;stroke-width:1;fill-opacity:1;stroke-opacity:0.9" />
<rect x="24" y="94.5" width="24" height="13.5"
style="fill:green;stroke:black;stroke-width:1;fill-opacity:1;stroke-opacity:0.9" />
<rect x="48" y="94.5" width="24" height="13.5"
style="fill:green;stroke:black;stroke-width:1;fill-opacity:1;stroke-opacity:0.9" />
<rect x="72" y="94.5" width="24" height="13.5"
style="fill:green;stroke:black;stroke-width:1;fill-opacity:1;stroke-opacity:0.9" />
<rect x="96" y="94.5" width="24" height="13.5"
style="fill:green;stroke:black;stroke-width:1;fill-opacity:1;stroke-opacity:0.9" />
<rect x="120" y="94.5" width="24" height="13.5"
style="fill:green;stroke:black;stroke-width:1;fill-opacity:1;stroke-opacity:0.9" />
<rect x="144" y="94.5" width="24" height="13.5"
style="fill:green;stroke:black;stroke-width:1;fill-opacity:1;stroke-opacity:0.9" />
<rect x="168" y="94.5" width="24" height="13.5"
style="fill:green;stroke:black;stroke-width:1;fill-opacity:1;stroke-opacity:0.9" />
<rect x="192" y="94.5" width="24" height="13.5"
style="fill:green;stroke:black;stroke-width:1;fill-opacity:1;stroke-opacity:0.9" />
<rect x="216" y="94.5" width="24" height="13.5"
style="fill:green;stroke:black;stroke-width:1;fill-opacity:1;stroke-opacity:0.9" />
<rect x="240" y="94.5" width="24" height="13.5"
style="fill:green;stroke:black;stroke-width:1;fill-opacity:1;stroke-opacity:0.9" />
<rect x="264" y="94.5" width="24" height="13.5"
style="fill:green;stroke:black;stroke-width:1;fill-opacity:1;stroke-opacity:0.9" />
<rect x="0" y="108" width="24" height="13.5"
style="fill:green;stroke:black;stroke-width:1;fill-opacity:1;stroke-opacity:0.9" />
<rect x="24" y="108" width="24" height="13.5"
style="fill:green;stroke:black;stroke-width:1;fill-opacity:1;stroke-opacity:0.9" />
<rect x="48" y="108" width="24" height="13.5"
style="fill:green;stroke:black;stroke-width:1;fill-opacity:1;stroke-opacity:0.9" />
<rect x="72" y="108" width="24" height="13.5"
style="fill:green;stroke:black;stroke-width:1;fill-opacity:1;stroke-opacity:0.9" />
<rect x="96" y="108" width="24" height="13.5"
style="fill:green;stroke:black;stroke-width:1;fill-opacity:1;stroke-opacity:0.9" />
<rect x="120" y="108" width="24" height="13.5"
style="fill:green;stroke:black;stroke-width:1;fill-opacity:1;stroke-opacity:0.9" />
<rect x="144" y="108" width="24" height="13.5"
style="fill:green;stroke:black;stroke-width:1;fill-opacity:1;stroke-opacity:0.9" />
<rect x="168" y="108" width="24" height="13.5"
style="fill:green;stroke:black;stroke-width:1;fill-opacity:1;stroke-opacity:0.9" />
<rect x="192" y="108" width="24" height="13.5"
style="fill:green;stroke:black;stroke-width:1;fill-opacity:1;stroke-opacity:0.9" />
<rect x="216" y="108" width="24" height="13.5"
style="fill:green;stroke:black;stroke-width:1;fill-opacity:1;stroke-opacity:0.9" />
<rect x="240" y="108" width="24" height="13.5"
style="fill:green;stroke:black;stroke-width:1;fill-opacity:1;stroke-opacity:0.9" />
<rect x="264" y="108" width="24" height="13.5"
style="fill:green;stroke:black;stroke-width:1;fill-opacity:1;stroke-opacity:0.9" />
<rect x="0" y="121.5" width="24" height="13.5"
style="fill:green;stroke:black;stroke-width:1;fill-opacity:1;stroke-opacity:0.9" />
<rect x="24" y="121.5" width="24" height="13.5"
style="fill:green;stroke:black;stroke-width:1;fill-opacity:1;stroke-opacity:0.9" />
<rect x="48" y="121.5" width="24" height="13.5"
style="fill:green;stroke:black;stroke-width:1;fill-opacity:1;stroke-opacity:0.9" />
<rect x="72" y="121.5" width="24" height="13.5"
style="fill:green;stroke:black;stroke-width:1;fill-opacity:1;stroke-opacity:0.9" />
<rect x="96" y="121.5" width="24" height="13.5"
style="fill:green;stroke:black;stroke-width:1;fill-opacity:1;stroke-opacity:0.9" />
<rect x="120" y="121.5" width="24" height="13.5"
style="fill:green;stroke:black;stroke-width:1;fill-opacity:1;stroke-opacity:0.9" />
<rect x="144" y="121.5" width="24" height="13.5"
style="fill:green;stroke:black;stroke-width:1;fill-opacity:1;stroke-opacity:0.9" />
<rect x="168" y="121.5" width="24" height="13.5"
style="fill:green;stroke:black;stroke-width:1;fill-opacity:1;stroke-opacity:0.9" />
<rect x="192" y="121.5" width="24" height="13.5"
style="fill:green;stroke:black;stroke-width:1;fill-opacity:1;stroke-opacity:0.9" />
<rect x="216" y="121.5" width="24" height="13.5"
style="fill:green;stroke:black;stroke-width:1;fill-opacity:1;stroke-opacity:0.9" />
<rect x="240" y="121.5" width="24" height="13.5"
style="fill:green;stroke:black;stroke-width:1;fill-opacity:1;stroke-opacity:0.9" />
<rect x="264" y="121.5" width="24" height="13.5"
style="fill:green;stroke:black;stroke-width:1;fill-opacity:1;stroke-opacity:0.9" />
<rect x="0" y="135" width="24" height="13.5"
style="fill:green;stroke:black;stroke-width:1;fill-opacity:1;stroke-opacity:0.9" />
<rect x="24" y="135" width="24" height="13.5"
style="fill:green;stroke:black;stroke-width:1;fill-opacity:1;stroke-opacity:0.9" />
<rect x="48" y="135" width="24" height="13.5"
style="fill:green;stroke:black;stroke-width:1;fill-opacity:1;stroke-opacity:0.9" />
<rect x="72" y="135" width="24" height="13.5"
style="fill:green;stroke:black;stroke-width:1;fill-opacity:1;stroke-opacity:0.9" />
<rect x="96" y="135" width="24" height="13.5"
style="fill:green;stroke:black;stroke-width:1;fill-opacity:1;stroke-opacity:0.9" />
<rect x="120" y="135" width="24" height="13.5"
style="fill:green;stroke:black;stroke-width:1;fill-opacity:1;stroke-opacity:0.9" />
<rect x="144" y="135" width="24" height="13.5"
style="fill:green;stroke:black;stroke-width:1;fill-opacity:1;stroke-opacity:0.9" />
<rect x="168" y="135" width="24" height="13.5"
style="fill:green;stroke:black;stroke-width:1;fill-opacity:1;stroke-opacity:0.9" />
<rect x="192" y="135" width="24" height="13.5"
style="fill:green;stroke:black;stroke-width:1;fill-opacity:1;stroke-opacity:0.9" />
<rect x="216" y="135" width="24" height="13.5"
style="fill:green;stroke:black;stroke-width:1;fill-opacity:1;stroke-opacity:0.9" />
<rect x="240" y="135" width="24" height="13.5"
style="fill:green;stroke:black;stroke-width:1;fill-opacity:1;stroke-opacity:0.9" />
<rect x="264" y="135" width="24" height="13.5"
style="fill:green;stroke:black;stroke-width:1;fill-opacity:1;stroke-opacity:0.9" />
<rect x="0" y="148.5" width="24" height="13.5"
style="fill:green;stroke:black;stroke-width:1;fill-opacity:1;stroke-opacity:0.9" />
<rect x="24" y="148.5" width="24" height="13.5"
style="fill:green;stroke:black;stroke-width:1;fill-opacity:1;stroke-opacity:0.9" />
<rect x="48" y="148.5" width="24" height="13.5"
style="fill:green;stroke:black;stroke-width:1;fill-opacity:1;stroke-opacity:0.9" />
<rect x="72" y="148.5" width="24" height="13.5"
style="fill:green;stroke:black;stroke-width:1;fill-opacity:1;stroke-opacity:0.9" />
<rect x="96" y="148.5" width="24" height="13.5"
style="fill:green;stroke:black;stroke-width:1;fill-opacity:1;stroke-opacity:0.9" />
<rect x="120" y="148.5" width="24" height="13.5"
style="fill:green;stroke:black;stroke-width:1;fill-opacity:1;stroke-opacity:0.9" />
<rect x="144" y="148.5" width="24" height="13.5"
style="fill:green;stroke:black;stroke-width:1;fill-opacity:1;stroke-opacity:0.9" />
<rect x="168" y="148.5" width="24" height="13.5"
style="fill:green;stroke:black;stroke-width:1;fill-opacity:1;stroke-opacity:0.9" />
<rect x="192" y="148.5" width="24" height="13.5"
style="fill:green;stroke:black;stroke-width:1;fill-opacity:1;stroke-opacity:0.9" />
<rect x="216" y="148.5" width="24" height="13.5"
style="fill:green;stroke:black;stroke-width:1;fill-opacity:1;stroke-opacity:0.9" />
<rect x="240" y="148.5" width="24" height="13.5"
style="fill:green;stroke:black;stroke-width:1;fill-opacity:1;stroke-opacity:0.9" />
<rect x="264" y="148.5" width="24" height="13.5"
style="fill:green;stroke:black;stroke-width:1;fill-opacity:1;stroke-opacity:0.9" />
<rect x="0" y="162" width="24" height="13.5"
style="fill:green;stroke:black;stroke-width:1;fill-opacity:1;stroke-opacity:0.9" />
<rect x="24" y="162" width="24" height="13.5"
style="fill:green;stroke:black;stroke-width:1;fill-opacity:1;stroke-opacity:0.9" />
<rect x="48" y="162" width="24" height="13.5"
style="fill:green;stroke:black;stroke-width:1;fill-opacity:1;stroke-opacity:0.9" />
<rect x="72" y="162" width="24" height="13.5"
style="fill:green;stroke:black;stroke-width:1;fill-opacity:1;stroke-opacity:0.9" />
<rect x="96" y="162" width="24" height="13.5"
style="fill:green;stroke:black;stroke-width:1;fill-opacity:1;stroke-opacity:0.9" />
<rect x="120" y="162" width="24" height="13.5"
style="fill:green;stroke:black;stroke-width:1;fill-opacity:1;stroke-opacity:0.9" />
<rect x="144" y="162" width="24" height="13.5"
style="fill:green;stroke:black;stroke-width:1;fill-opacity:1;stroke-opacity:0.9" />
<rect x="168" y="162" width="24" height="13.5"
style="fill:green;stroke:black;stroke-width:1;fill-opacity:1;stroke-opacity:0.9" />
<rect x="192" y="162" width="24" height="13.5"
style="fill:green;stroke:black;stroke-width:1;fill-opacity:1;stroke-opacity:0.9" />
<rect x="216" y="162" width="24" height="13.5"
style="fill:green;stroke:black;stroke-width:1;fill-opacity:1;stroke-opacity:0.9" />
<rect x="240" y="162" width="24" height="13.5"
style="fill:green;stroke:black;stroke-width:1;fill-opacity:1;stroke-opacity:0.9" />
<rect x="264" y="162" width="24" height="13.5"
style="fill:green;stroke:black;stroke-width:1;fill-opacity:1;stroke-opacity:0.9" />
<rect x="0" y="175.5" width="24" height="13.5"
style="fill:green;stroke:black;stroke-width:1;fill-opacity:1;stroke-opacity:0.9" />
<rect x="24" y="175.5" width="24" height="13.5"
style="fill:green;stroke:black;stroke-width:1;fill-opacity:1;stroke-opacity:0.9" />
<rect x="48" y="175.5" width="24" height="13.5"
style="fill:green;stroke:black;stroke-width:1;fill-opacity:1;stroke-opacity:0.9" />
<rect x="72" y="175.5" width="24" height="13.5"
style="fill:green;stroke:black;stroke-width:1;fill-opacity:1;stroke-opacity:0.9" />
<rect x="96" y="175.5" width="24" height="13.5"
style="fill:green;stroke:black;stroke-width:1;fill-opacity:1;stroke-opacity:0.9" />
<rect x="120" y="175.5" width="24" height="13.5"
style="fill:green;stroke:black;stroke-width:1;fill-opacity:1;stroke-opacity:0.9" />
<rect x="144" y="175.5" width="24" height="13.5"
style="fill:green;stroke:black;stroke-width:1;fill-opacity:1;stroke-opacity:0.9" />
<rect x="168" y="175.5" width="24" height="13.5"
style="fill:green;stroke:black;stroke-width:1;fill-opacity:1;stroke-opacity:0.9" />
<rect x="192" y="175.5" width="24" height="13.5"
style="fill:green;stroke:black;stroke-width:1;fill-opacity:1;stroke-opacity:0.9" />
<rect x="216" y="175.5" width="24" height="13.5"
style="fill:green;stroke:black;stroke-width:1;fill-opacity:1;stroke-opacity:0.9" />
<rect x="240" y="175.5" width="24" height="13.5"
style="fill:green;stroke:black;stroke-width:1;fill-opacity:1;stroke-opacity:0.9" />
<rect x="264" y="175.5" width="24" height="13.5"
style="fill:green;stroke:black;stroke-width:1;fill-opacity:1;stroke-opacity:0.9" />
<rect x="0" y="189" width="24" height="13.5"
style="fill:green;stroke:black;stroke-width:1;fill-opacity:1;stroke-opacity:0.9" />
<rect x="24" y="189" width="24" height="13.5"
style="fill:green;stroke:black;stroke-width:1;fill-opacity:1;stroke-opacity:0.9" />
<rect x="48" y="189" width="24" height="13.5"
style="fill:green;stroke:black;stroke-width:1;fill-opacity:1;stroke-opacity:0.9" />
<rect x="72" y="189" width="24" height="13.5"
style="fill:green;stroke:black;stroke-width:1;fill-opacity:1;stroke-opacity:0.9" />
<rect x="96" y="189" width="24" height="13.5"
style="fill:green;stroke:black;stroke-width:1;fill-opacity:1;stroke-opacity:0.9" />
<rect x="120" y="189" width="24" height="13.5"
style="fill:green;stroke:black;stroke-width:1;fill-opacity:1;stroke-opacity:0.9" />
<rect x="144" y="189" width="24" height="13.5"
style="fill:green;stroke:black;stroke-width:1;fill-opacity:1;stroke-opacity:0.9" />
<rect x="168" y="189" width="24" height="13.5"
style="fill:green;stroke:black;stroke-width:1;fill-opacity:1;stroke-opacity:0.9" />
<rect x="192" y="189" width="24" height="13.5"
style="fill:green;stroke:black;stroke-width:1;fill-opacity:1;stroke-opacity:0.9" />
<rect x="216" y="189" width="24" height="13.5"
style="fill:green;stroke:black;stroke-width:1;fill-opacity:1;stroke-opacity:0.9" />
<rect x="240" y="189" width="24" height="13.5"
style="fill:green;stroke:black;stroke-width:1;fill-opacity:1;stroke-opacity:0.9" />
<rect x="264" y="189" width="24" height="13.5"
style="fill:green;stroke:black;stroke-width:1;fill-opacity:1;stroke-opacity:0.9" />
<rect x="0" y="202.5" width="24" height="13.5"
style="fill:green;stroke:black;stroke-width:1;fill-opacity:1;stroke-opacity:0.9" />
<rect x="24" y="202.5" width="24" height="13.5"
style="fill:green;stroke:black;stroke-width:1;fill-opacity:1;stroke-opacity:0.9" />
<rect x="48" y="202.5" width="24" height="13.5"
style="fill:green;stroke:black;stroke-width:1;fill-opacity:1;stroke-opacity:0.9" />
<rect x="72" y="202.5" width="24" height="13.5"
style="fill:green;stroke:black;stroke-width:1;fill-opacity:1;stroke-opacity:0.9" />
<rect x="96" y="202.5" width="24" height="13.5"
style="fill:green;stroke:black;stroke-width:1;fill-opacity:1;stroke-opacity:0.9" />
<rect x="120" y="202.5" width="24" height="13.5"
style="fill:green;stroke:black;stroke-width:1;fill-opacity:1;stroke-opacity:0.9" />
<rect x="144" y="202.5" width="24" height="13.5"
style="fill:green;stroke:black;stroke-width:1;fill-opacity:1;stroke-opacity:0.9" />
<rect x="168" y="202.5" width="24" height="13.5"
style="fill:green;stroke:black;stroke-width:1;fill-opacity:1;stroke-opacity:0.9" />
<rect x="192" y="202.5" width="24" height="13.5"
style="fill:green;stroke:black;stroke-width:1;fill-opacity:1;stroke-opacity:0.9" />
<rect x="216" y="202.5" width="24" height="13.5"
style="fill:green;stroke:black;stroke-width:1;fill-opacity:1;stroke-opacity:0.9" />
<rect x="240" y="202.5" width="24" height="13.5"
style="fill:green;stroke:black;stroke-width:1;fill-opacity:1;stroke-opacity:0.9" />
<rect x="264" y="202.5" width="24" height="13.5"
style="fill:green;stroke:black;stroke-width:1;fill-opacity:1;stroke-opacity:0.9" />
<rect x="0" y="216" width="24" height="13.5"
style="fill:green;stroke:black;stroke-width:1;fill-opacity:1;stroke-opacity:0.9" />
<rect x="24" y="216" width="24" height="13.5"
style="fill:green;stroke:black;stroke-width:1;fill-opacity:1;stroke-opacity:0.9" />
<rect x="48" y="216" width="24" height="13.5"
style="fill:green;stroke:black;stroke-width:1;fill-opacity:1;stroke-opacity:0.9" />
<rect x="72" y="216" width="24" height="13.5"
style="fill:green;stroke:black;stroke-width:1;fill-opacity:1;stroke-opacity:0.9" />
<rect x="96" y="216" width="24" height="13.5"
style="fill:green;stroke:black;stroke-width:1;fill-opacity:1;stroke-opacity:0.9" />
<rect x="120" y="216" width="24" height="13.5"
style="fill:green;stroke:black;stroke-width:1;fill-opacity:1;stroke-opacity:0.9" />
<rect x="144" y="216" width="24" height="13.5"
style="fill:green;stroke:black;stroke-width:1;fill-opacity:1;stroke-opacity:0.9" />
<rect x="168" y="216" width="24" height="13.5"
style="fill:green;stroke:black;stroke-width:1;fill-opacity:1;stroke-opacity:0.9" />
<rect x="192" y="216" width="24" height="13.5"
style="fill:green;stroke:black;stroke-width:1;fill-opacity:1;stroke-opacity:0.9" />
<rect x="216" y="216" width="24" height="13.5"
style="fill:green;stroke:black;stroke-width:1;fill-opacity:1;stroke-opacity:0.9" />
<rect x="240" y="216" width="24" height="13.5"
style="fill:green;stroke:black;stroke-width:1;fill-opacity:1;stroke-opacity:0.9" />
<rect x="264" y="216" width="24" height="13.5"
style="fill:green;stroke:black;stroke-width:1;fill-opacity:1;stroke-opacity:0.9" />
<rect x="0" y="229.5" width="24" height="13.5"
style="fill:green;stroke:black;stroke-width:1;fill-opacity:1;stroke-opacity:0.9" />
<rect x="24" y="229.5" width="24" height="13.5"
style="fill:green;stroke:black;stroke-width:1;fill-opacity:1;stroke-opacity:0.9" />
<rect x="48" y="229.5" width="24" height="13.5"
style="fill:green;stroke:black;stroke-width:1;fill-opacity:1;stroke-opacity:0.9" />
<rect x="72" y="229.5" width="24" height="13.5"
style="fill:green;stroke:black;stroke-width:1;fill-opacity:1;stroke-opacity:0.9" />
<rect x="96" y="229.5" width="24" height="13.5"
style="fill:green;stroke:black;stroke-width:1;fill-opacity:1;stroke-opacity:0.9" />
<rect x="120" y="229.5" width="24" height="13.5"
style="fill:green;stroke:black;stroke-width:1;fill-opacity:1;stroke-opacity:0.9" />
<rect x="144" y="229.5" width="24" height="13.5"
style="fill:green;stroke:black;stroke-width:1;fill-opacity:1;stroke-opacity:0.9" />
<rect x="168" y="229.5" width="24" height="13.5"
style="fill:green;stroke:black;stroke-width:1;fill-opacity:1;stroke-opacity:0.9" />
<rect x="192" y="229.5" width="24" height="13.5"
style="fill:green;stroke:black;stroke-width:1;fill-opacity:1;stroke-opacity:0.9" />
<rect x="216" y="229.5" width="24" height="13.5"
style="fill:green;stroke:black;stroke-width:1;fill-opacity:1;stroke-opacity:0.9" />
<rect x="240" y="229.5" width="24" height="13.5"
style="fill:green;stroke:black;stroke-width:1;fill-opacity:1;stroke-opacity:0.9" />
<rect x="264" y="229.5" width="24" height="13.5"
style="fill:green;stroke:black;stroke-width:1;fill-opacity:1;stroke-opacity:0.9" />
<rect x="0" y="243" width="24" height="13.5"
style="fill:green;stroke:black;stroke-width:1;fill-opacity:1;stroke-opacity:0.9" />
<rect x="24" y="243" width="24" height="13.5"
style="fill:green;stroke:black;stroke-width:1;fill-opacity:1;stroke-opacity:0.9" />
<rect x="48" y="243" width="24" height="13.5"
style="fill:green;stroke:black;stroke-width:1;fill-opacity:1;stroke-opacity:0.9" />
<rect x="72" y="243" width="24" height="13.5"
style="fill:green;stroke:black;stroke-width:1;fill-opacity:1;stroke-opacity:0.9" />
<rect x="96" y="243" width="24" height="13.5"
style="fill:green;stroke:black;stroke-width:1;fill-opacity:1;stroke-opacity:0.9" />
<rect x="120" y="243" width="24" height="13.5"
style="fill:green;stroke:black;stroke-width:1;fill-opacity:1;stroke-opacity:0.9" />
<rect x="144" y="243" width="24" height="13.5"
style="fill:green;stroke:black;stroke-width:1;fill-opacity:1;stroke-opacity:0.9" />
<rect x="168" y="243" width="24" height="13.5"
style="fill:green;stroke:black;stroke-width:1;fill-opacity:1;stroke-opacity:0.9" />
<rect x="192" y="243" width="24" height="13.5"
style="fill:green;stroke:black;stroke-width:1;fill-opacity:1;stroke-opacity:0.9" />
<rect x="216" y="243" width="24" height="13.5"
style="fill:green;stroke:black;stroke-width:1;fill-opacity:1;stroke-opacity:0.9" />
<rect x="240" y="243" width="24" height="13.5"
style="fill:green;stroke:black;stroke-width:1;fill-opacity:1;stroke-opacity:0.9" />
<rect x="264" y="243" width="24" height="13.5"
style="fill:green;stroke:black;stroke-width:1;fill-opacity:1;stroke-opacity:0.9" />
<rect x="0" y="256.5" width="24" height="13.5"
style="fill:green;stroke:black;stroke-width:1;fill-opacity:1;stroke-opacity:0.9" />
<rect x="24" y="256.5" width="24" height="13.5"
style="fill:green;stroke:black;stroke-width:1;fill-opacity:1;stroke-opacity:0.9" />
<rect x="48" y="256.5" width="24" height="13.5"
style="fill:green;stroke:black;stroke-width:1;fill-opacity:1;stroke-opacity:0.9" />
<rect x="72" y="256.5" width="24" height="13.5"
style="fill:green;stroke:black;stroke-width:1;fill-opacity:1;stroke-opacity:0.9" />
<rect x="96" y="256.5" width="24" height="13.5"
style="fill:green;stroke:black;stroke-width:1;fill-opacity:1;stroke-opacity:0.9" />
<rect x="120" y="256.5" width="24" height="13.5"
style="fill:green;stroke:black;stroke-width:1;fill-opacity:1;stroke-opacity:0.9" />
<rect x="144" y="256.5" width="24" height="13.5"
style="fill:green;stroke:black;stroke-width:1;fill-opacity:1;stroke-opacity:0.9" />
<rect x="168" y="256.5" width="24" height="13.5"
style="fill:green;stroke:black;stroke-width:1;fill-opacity:1;stroke-opacity:0.9" />
<rect x="192" y="256.5" width="24" height="13.5"
style="fill:green;stroke:black;stroke-width:1;fill-opacity:1;stroke-opacity:0.9" />
<rect x="216" y="256.5" width="24" height="13.5"
style="fill:green;stroke:black;stroke-width:1;fill-opacity:1;stroke-opacity:0.9" />
<rect x="240" y="256.5" width="24" height="13.5"
style="fill:green;stroke:black;stroke-width:1;fill-opacity:1;stroke-opacity:0.9" />
<rect x="264" y="256.5" width="24" height="13.5"
style="fill:green;stroke:black;stroke-width:1;fill-opacity:1;stroke-opacity:0.9" />
<rect x="0" y="270" width="24" height="13.5"
style="fill:green;stroke:black;stroke-width:1;fill-opacity:1;stroke-opacity:0.9" />
<rect x="24" y="270" width="24" height="13.5"
style="fill:green;stroke:black;stroke-width:1;fill-opacity:1;stroke-opacity:0.9" />
<rect x="48" y="270" width="24" height="13.5"
style="fill:green;stroke:black;stroke-width:1;fill-opacity:1;stroke-opacity:0.9" />
<rect x="72" y="270" width="24" height="13.5"
style="fill:green;stroke:black;stroke-width:1;fill-opacity:1;stroke-opacity:0.9" />
<rect x="96" y="270" width="24" height="13.5"
style="fill:green;stroke:black;stroke-width:1;fill-opacity:1;stroke-opacity:0.9" />
<rect x="120" y="270" width="24" height="13.5"
style="fill:green;stroke:black;stroke-width:1;fill-opacity:1;stroke-opacity:0.9" />
<rect x="144" y="270" width="24" height="13.5"
style="fill:green;stroke:black;stroke-width:1;fill-opacity:1;stroke-opacity:0.9" />
<rect x="168" y="270" width="24" height="13.5"
style="fill:green;stroke:black;stroke-width:1;fill-opacity:1;stroke-opacity:0.9" />
<rect x="192" y="270" width="24" height="13.5"
style="fill:green;stroke:black;stroke-width:1;fill-opacity:1;stroke-opacity:0.9" />
<rect x="216" y="270" width="24" height="13.5"
style="fill:green;stroke:black;stroke-width:1;fill-opacity:1;stroke-opacity:0.9" />
<rect x="240" y="270" width="24" height="13.5"
style="fill:green;stroke:black;stroke-width:1;fill-opacity:1;stroke-opacity:0.9" />
<rect x="264" y="270" width="24" height="13.5"
style="fill:green;stroke:black;stroke-width:1;fill-opacity:1;stroke-opacity:0.9" />
<rect x="0" y="283.5" width="24" height="13.5"
style="fill:green;stroke:black;stroke-width:1;fill-opacity:1;stroke-opacity:0.9" />
<rect x="24" y="283.5" width="24" height="13.5"
style="fill:green;stroke:black;stroke-width:1;fill-opacity:1;stroke-opacity:0.9" />
<rect x="48" y="283.5" width="24" height="13.5"
style="fill:green;stroke:black;stroke-width:1;fill-opacity:1;stroke-opacity:0.9" />
<rect x="72" y="283.5" width="24" height="13.5"
style="fill:green;stroke:black;stroke-width:1;fill-opacity:1;stroke-opacity:0.9" />
<rect x="96" y="283.5" width="24" height="13.5"
style="fill:green;stroke:black;stroke-width:1;fill-opacity:1;stroke-opacity:0.9" />
<rect x="120" y="283.5" width="24" height="13.5"
style="fill:green;stroke:black;stroke-width:1;fill-opacity:1;stroke-opacity:0.9" />
<rect x="144" y="283.5" width="24" height="13.5"
style="fill:green;stroke:black;stroke-width:1;fill-opacity:1;stroke-opacity:0.9" />
<rect x="168" y="283.5" width="24" height="13.5"
style="fill:green;stroke:black;stroke-width:1;fill-opacity:1;stroke-opacity:0.9" />
<rect x="192" y="283.5" width="24" height="13.5"
style="fill:green;stroke:black;stroke-width:1;fill-opacity:1;stroke-opacity:0.9" />
<rect x="216" y="283.5" width="24" height="13.5"
style="fill:green;stroke:black;stroke-width:1;fill-opacity:1;stroke-opacity:0.9" />
<rect x="240" y="283.5" width="24" height="13.5"
style="fill:green;stroke:black;stroke-width:1;fill-opacity:1;stroke-opacity:0.9" />
<rect x="264" y="283.5" width="24" height="13.5"
style="fill:green;stroke:black;stroke-width:1;fill-opacity:1;stroke-opacity:0.9" />
</svg>