<svg>
<circle cx="200" cy="200" r="200" stroke="black" stroke-width="1" fill="red" />
<rect x="58.5783" y="58.5783" width="24" height="17"
style="fill:green;stroke:black;stroke-width:1;fill-opacity:1;stroke-opacity:0.9" />
<rect x="82.5783" y="58.5783" width="24" height="17"
style="fill:green;stroke:black;stroke-width:1;fill-opacity:1;stroke-opacity:0.9" />
<rect x="106.578" y="58.5783" width="24" height="17"
style="fill:green;stroke:black;stroke-width:1;fill-opacity:1;stroke-opacity:0.9" />
<rect x="130.578" y="58.5783" width="24" height="17"
style="fill:green;stroke:black;stroke-width:1;fill-opacity:1;stroke-opacity:0.9" />
<rect x="154.578" y="58.5783" width="24" height="17"
style="fill:green;stroke:black;stroke-width:1;fill-opacity:1;stroke-opacity:0.9" />
<rect x="178.578" y="58.5783" width="24" height="17"
style="fill:green;stroke:black;stroke-width:1;fill-opacity:1;stroke-opacity:0.9" />
<rect x="202.578" y="58.5783" width="24" height="17"
style="fill:green;stroke:black;stroke-width:1;fill-opacity:1;stroke-opacity:0.9" />
<rect x="226.578" y="58.5783" width="24" height="17"
style="fill:green;stroke:black;stroke-width:1;fill-opacity:1;stroke-opacity:0.9" />
<rect x="250.578" y="58.5783" width="24" height="17"
style="fill:green;stroke:black;stroke-width:1;fill-opacity:1;stroke-opacity:0.9" />
<rect x="274.578" y="58.5783" width="24" height="17"
style="fill:green;stroke:black;stroke-width:1;fill-opacity:1;stroke-opacity:0.9" />
<rect x="298.578" y="58.5783" width="24" height="17"
style="fill:green;stroke:black;stroke-width:1;fill-opacity:1;stroke-opacity:0.9" />
<rect x="58.5783" y="75.5783" width="24" height="17"
style="fill:green;stroke:black;stroke-width:1;fill-opacity:1;stroke-opacity:0.9" />
<rect x="82.5783" y="75.5783" width="24" height="17"
style="fill:green;stroke:black;stroke-width:1;fill-opacity:1;stroke-opacity:0.9" />
<rect x="106.578" y="75.5783" width="24" height="17"
style="fill:green;stroke:black;stroke-width:1;fill-opacity:1;stroke-opacity:0.9" />
<rect x="130.578" y="75.5783" width="24" height="17"
style="fill:green;stroke:black;stroke-width:1;fill-opacity:1;stroke-opacity:0.9" />
<rect x="154.578" y="75.5783" width="24" height="17"
style="fill:green;stroke:black;stroke-width:1;fill-opacity:1;stroke-opacity:0.9" />
<rect x="178.578" y="75.5783" width="24" height="17"
style="fill:green;stroke:black;stroke-width:1;fill-opacity:1;stroke-opacity:0.9" />
<rect x="202.578" y="75.5783" width="24" height="17"
style="fill:green;stroke:black;stroke-width:1;fill-opacity:1;stroke-opacity:0.9" />
<rect x="226.578" y="75.5783" width="24" height="17"
style="fill:green;stroke:black;stroke-width:1;fill-opacity:1;stroke-opacity:0.9" />
<rect x="250.578" y="75.5783" width="24" height="17"
style="fill:green;stroke:black;stroke-width:1;fill-opacity:1;stroke-opacity:0.9" />
<rect x="274.578" y="75.5783" width="24" height="17"
style="fill:green;stroke:black;stroke-width:1;fill-opacity:1;stroke-opacity:0.9" />
<rect x="298.578" y="75.5783" width="24" height="17"
style="fill:green;stroke:black;stroke-width:1;fill-opacity:1;stroke-opacity:0.9" />
<rect x="58.5783" y="92.5783" width="24" height="17"
style="fill:green;stroke:black;stroke-width:1;fill-opacity:1;stroke-opacity:0.9" />
<rect x="82.5783" y="92.5783" width="24" height="17"
style="fill:green;stroke:black;stroke-width:1;fill-opacity:1;stroke-opacity:0.9" />
<rect x="106.578" y="92.5783" width="24" height="17"
style="fill:green;stroke:black;stroke-width:1;fill-opacity:1;stroke-opacity:0.9" />
<rect x="130.578" y="92.5783" width="24" height="17"
style="fill:green;stroke:black;stroke-width:1;fill-opacity:1;stroke-opacity:0.9" />
<rect x="154.578" y="92.5783" width="24" height="17"
style="fill:green;stroke:black;stroke-width:1;fill-opacity:1;stroke-opacity:0.9" />
<rect x="178.578" y="92.5783" width="24" height="17"
style="fill:green;stroke:black;stroke-width:1;fill-opacity:1;stroke-opacity:0.9" />
<rect x="202.578" y="92.5783" width="24" height="17"
style="fill:green;stroke:black;stroke-width:1;fill-opacity:1;stroke-opacity:0.9" />
<rect x="226.578" y="92.5783" width="24" height="17"
style="fill:green;stroke:black;stroke-width:1;fill-opacity:1;stroke-opacity:0.9" />
<rect x="250.578" y="92.5783" width="24" height="17"
style="fill:green;stroke:black;stroke-width:1;fill-opacity:1;stroke-opacity:0.9" />
<rect x="274.578" y="92.5783" width="24" height="17"
style="fill:green;stroke:black;stroke-width:1;fill-opacity:1;stroke-opacity:0.9" />
<rect x="298.578" y="92.5783" width="24" height="17"
style="fill:green;stroke:black;stroke-width:1;fill-opacity:1;stroke-opacity:0.9" />
<rect x="58.5783" y="109.578" width="24" height="17"
style="fill:green;stroke:black;stroke-width:1;fill-opacity:1;stroke-opacity:0.9" />
<rect x="82.5783" y="109.578" width="24" height="17"
style="fill:green;stroke:black;stroke-width:1;fill-opacity:1;stroke-opacity:0.9" />
<rect x="106.578" y="109.578" width="24" height="17"
style="fill:green;stroke:black;stroke-width:1;fill-opacity:1;stroke-opacity:0.9" />
<rect x="130.578" y="109.578" width="24" height="17"
style="fill:green;stroke:black;stroke-width:1;fill-opacity:1;stroke-opacity:0.9" />
<rect x="154.578" y="109.578" width="24" height="17"
style="fill:green;stroke:black;stroke-width:1;fill-opacity:1;stroke-opacity:0.9" />
<rect x="178.578" y="109.578" width="24" height="17"
style="fill:green;stroke:black;stroke-width:1;fill-opacity:1;stroke-opacity:0.9" />
<rect x="202.578" y="109.578" width="24" height="17"
style="fill:green;stroke:black;stroke-width:1;fill-opacity:1;stroke-opacity:0.9" />
<rect x="226.578" y="109.578" width="24" height="17"
style="fill:green;stroke:black;stroke-width:1;fill-opacity:1;stroke-opacity:0.9" />
<rect x="250.578" y="109.578" width="24" height="17"
style="fill:green;stroke:black;stroke-width:1;fill-opacity:1;stroke-opacity:0.9" />
<rect x="274.578" y="109.578" width="24" height="17"
style="fill:green;stroke:black;stroke-width:1;fill-opacity:1;stroke-opacity:0.9" />
<rect x="298.578" y="109.578" width="24" height="17"
style="fill:green;stroke:black;stroke-width:1;fill-opacity:1;stroke-opacity:0.9" />
<rect x="58.5783" y="126.578" width="24" height="17"
style="fill:green;stroke:black;stroke-width:1;fill-opacity:1;stroke-opacity:0.9" />
<rect x="82.5783" y="126.578" width="24" height="17"
style="fill:green;stroke:black;stroke-width:1;fill-opacity:1;stroke-opacity:0.9" />
<rect x="106.578" y="126.578" width="24" height="17"
style="fill:green;stroke:black;stroke-width:1;fill-opacity:1;stroke-opacity:0.9" />
<rect x="130.578" y="126.578" width="24" height="17"
style="fill:green;stroke:black;stroke-width:1;fill-opacity:1;stroke-opacity:0.9" />
<rect x="154.578" y="126.578" width="24" height="17"
style="fill:green;stroke:black;stroke-width:1;fill-opacity:1;stroke-opacity:0.9" />
<rect x="178.578" y="126.578" width="24" height="17"
style="fill:green;stroke:black;stroke-width:1;fill-opacity:1;stroke-opacity:0.9" />
<rect x="202.578" y="126.578" width="24" height="17"
style="fill:green;stroke:black;stroke-width:1;fill-opacity:1;stroke-opacity:0.9" />
<rect x="226.578" y="126.578" width="24" height="17"
style="fill:green;stroke:black;stroke-width:1;fill-opacity:1;stroke-opacity:0.9" />
<rect x="250.578" y="126.578" width="24" height="17"
style="fill:green;stroke:black;stroke-width:1;fill-opacity:1;stroke-opacity:0.9" />
<rect x="274.578" y="126.578" width="24" height="17"
style="fill:green;stroke:black;stroke-width:1;fill-opacity:1;stroke-opacity:0.9" />
<rect x="298.578" y="126.578" width="24" height="17"
style="fill:green;stroke:black;stroke-width:1;fill-opacity:1;stroke-opacity:0.9" />
<rect x="58.5783" y="143.578" width="24" height="17"
style="fill:green;stroke:black;stroke-width:1;fill-opacity:1;stroke-opacity:0.9" />
<rect x="82.5783" y="143.578" width="24" height="17"
style="fill:green;stroke:black;stroke-width:1;fill-opacity:1;stroke-opacity:0.9" />
<rect x="106.578" y="143.578" width="24" height="17"
style="fill:green;stroke:black;stroke-width:1;fill-opacity:1;stroke-opacity:0.9" />
<rect x="130.578" y="143.578" width="24" height="17"
style="fill:green;stroke:black;stroke-width:1;fill-opacity:1;stroke-opacity:0.9" />
<rect x="154.578" y="143.578" width="24" height="17"
style="fill:green;stroke:black;stroke-width:1;fill-opacity:1;stroke-opacity:0.9" />
<rect x="178.578" y="143.578" width="24" height="17"
style="fill:green;stroke:black;stroke-width:1;fill-opacity:1;stroke-opacity:0.9" />
<rect x="202.578" y="143.578" width="24" height="17"
style="fill:green;stroke:black;stroke-width:1;fill-opacity:1;stroke-opacity:0.9" />
<rect x="226.578" y="143.578" width="24" height="17"
style="fill:green;stroke:black;stroke-width:1;fill-opacity:1;stroke-opacity:0.9" />
<rect x="250.578" y="143.578" width="24" height="17"
style="fill:green;stroke:black;stroke-width:1;fill-opacity:1;stroke-opacity:0.9" />
<rect x="274.578" y="143.578" width="24" height="17"
style="fill:green;stroke:black;stroke-width:1;fill-opacity:1;stroke-opacity:0.9" />
<rect x="298.578" y="143.578" width="24" height="17"
style="fill:green;stroke:black;stroke-width:1;fill-opacity:1;stroke-opacity:0.9" />
<rect x="58.5783" y="160.578" width="24" height="17"
style="fill:green;stroke:black;stroke-width:1;fill-opacity:1;stroke-opacity:0.9" />
<rect x="82.5783" y="160.578" width="24" height="17"
style="fill:green;stroke:black;stroke-width:1;fill-opacity:1;stroke-opacity:0.9" />
<rect x="106.578" y="160.578" width="24" height="17"
style="fill:green;stroke:black;stroke-width:1;fill-opacity:1;stroke-opacity:0.9" />
<rect x="130.578" y="160.578" width="24" height="17"
style="fill:green;stroke:black;stroke-width:1;fill-opacity:1;stroke-opacity:0.9" />
<rect x="154.578" y="160.578" width="24" height="17"
style="fill:green;stroke:black;stroke-width:1;fill-opacity:1;stroke-opacity:0.9" />
<rect x="178.578" y="160.578" width="24" height="17"
style="fill:green;stroke:black;stroke-width:1;fill-opacity:1;stroke-opacity:0.9" />
<rect x="202.578" y="160.578" width="24" height="17"
style="fill:green;stroke:black;stroke-width:1;fill-opacity:1;stroke-opacity:0.9" />
<rect x="226.578" y="160.578" width="24" height="17"
style="fill:green;stroke:black;stroke-width:1;fill-opacity:1;stroke-opacity:0.9" />
<rect x="250.578" y="160.578" width="24" height="17"
style="fill:green;stroke:black;stroke-width:1;fill-opacity:1;stroke-opacity:0.9" />
<rect x="274.578" y="160.578" width="24" height="17"
style="fill:green;stroke:black;stroke-width:1;fill-opacity:1;stroke-opacity:0.9" />
<rect x="298.578" y="160.578" width="24" height="17"
style="fill:green;stroke:black;stroke-width:1;fill-opacity:1;stroke-opacity:0.9" />
<rect x="58.5783" y="177.578" width="24" height="17"
style="fill:green;stroke:black;stroke-width:1;fill-opacity:1;stroke-opacity:0.9" />
<rect x="82.5783" y="177.578" width="24" height="17"
style="fill:green;stroke:black;stroke-width:1;fill-opacity:1;stroke-opacity:0.9" />
<rect x="106.578" y="177.578" width="24" height="17"
style="fill:green;stroke:black;stroke-width:1;fill-opacity:1;stroke-opacity:0.9" />
<rect x="130.578" y="177.578" width="24" height="17"
style="fill:green;stroke:black;stroke-width:1;fill-opacity:1;stroke-opacity:0.9" />
<rect x="154.578" y="177.578" width="24" height="17"
style="fill:green;stroke:black;stroke-width:1;fill-opacity:1;stroke-opacity:0.9" />
<rect x="178.578" y="177.578" width="24" height="17"
style="fill:green;stroke:black;stroke-width:1;fill-opacity:1;stroke-opacity:0.9" />
<rect x="202.578" y="177.578" width="24" height="17"
style="fill:green;stroke:black;stroke-width:1;fill-opacity:1;stroke-opacity:0.9" />
<rect x="226.578" y="177.578" width="24" height="17"
style="fill:green;stroke:black;stroke-width:1;fill-opacity:1;stroke-opacity:0.9" />
<rect x="250.578" y="177.578" width="24" height="17"
style="fill:green;stroke:black;stroke-width:1;fill-opacity:1;stroke-opacity:0.9" />
<rect x="274.578" y="177.578" width="24" height="17"
style="fill:green;stroke:black;stroke-width:1;fill-opacity:1;stroke-opacity:0.9" />
<rect x="298.578" y="177.578" width="24" height="17"
style="fill:green;stroke:black;stroke-width:1;fill-opacity:1;stroke-opacity:0.9" />
<rect x="58.5783" y="194.578" width="24" height="17"
style="fill:green;stroke:black;stroke-width:1;fill-opacity:1;stroke-opacity:0.9" />
<rect x="82.5783" y="194.578" width="24" height="17"
style="fill:green;stroke:black;stroke-width:1;fill-opacity:1;stroke-opacity:0.9" />
<rect x="106.578" y="194.578" width="24" height="17"
style="fill:green;stroke:black;stroke-width:1;fill-opacity:1;stroke-opacity:0.9" />
<rect x="130.578" y="194.578" width="24" height="17"
style="fill:green;stroke:black;stroke-width:1;fill-opacity:1;stroke-opacity:0.9" />
<rect x="154.578" y="194.578" width="24" height="17"
style="fill:green;stroke:black;stroke-width:1;fill-opacity:1;stroke-opacity:0.9" />
<rect x="178.578" y="194.578" width="24" height="17"
style="fill:green;stroke:black;stroke-width:1;fill-opacity:1;stroke-opacity:0.9" />
<rect x="202.578" y="194.578" width="24" height="17"
style="fill:green;stroke:black;stroke-width:1;fill-opacity:1;stroke-opacity:0.9" />
<rect x="226.578" y="194.578" width="24" height="17"
style="fill:green;stroke:black;stroke-width:1;fill-opacity:1;stroke-opacity:0.9" />
<rect x="250.578" y="194.578" width="24" height="17"
style="fill:green;stroke:black;stroke-width:1;fill-opacity:1;stroke-opacity:0.9" />
<rect x="274.578" y="194.578" width="24" height="17"
style="fill:green;stroke:black;stroke-width:1;fill-opacity:1;stroke-opacity:0.9" />
<rect x="298.578" y="194.578" width="24" height="17"
style="fill:green;stroke:black;stroke-width:1;fill-opacity:1;stroke-opacity:0.9" />
<rect x="58.5783" y="211.578" width="24" height="17"
style="fill:green;stroke:black;stroke-width:1;fill-opacity:1;stroke-opacity:0.9" />
<rect x="82.5783" y="211.578" width="24" height="17"
style="fill:green;stroke:black;stroke-width:1;fill-opacity:1;stroke-opacity:0.9" />
<rect x="106.578" y="211.578" width="24" height="17"
style="fill:green;stroke:black;stroke-width:1;fill-opacity:1;stroke-opacity:0.9" />
<rect x="130.578" y="211.578" width="24" height="17"
style="fill:green;stroke:black;stroke-width:1;fill-opacity:1;stroke-opacity:0.9" />
<rect x="154.578" y="211.578" width="24" height="17"
style="fill:green;stroke:black;stroke-width:1;fill-opacity:1;stroke-opacity:0.9" />
<rect x="178.578" y="211.578" width="24" height="17"
style="fill:green;stroke:black;stroke-width:1;fill-opacity:1;stroke-opacity:0.9" />
<rect x="202.578" y="211.578" width="24" height="17"
style="fill:green;stroke:black;stroke-width:1;fill-opacity:1;stroke-opacity:0.9" />
<rect x="226.578" y="211.578" width="24" height="17"
style="fill:green;stroke:black;stroke-width:1;fill-opacity:1;stroke-opacity:0.9" />
<rect x="250.578" y="211.578" width="24" height="17"
style="fill:green;stroke:black;stroke-width:1;fill-opacity:1;stroke-opacity:0.9" />
<rect x="274.578" y="211.578" width="24" height="17"
style="fill:green;stroke:black;stroke-width:1;fill-opacity:1;stroke-opacity:0.9" />
<rect x="298.578" y="211.578" width="24" height="17"
style="fill:green;stroke:black;stroke-width:1;fill-opacity:1;stroke-opacity:0.9" />
<rect x="58.5783" y="228.578" width="24" height="17"
style="fill:green;stroke:black;stroke-width:1;fill-opacity:1;stroke-opacity:0.9" />
<rect x="82.5783" y="228.578" width="24" height="17"
style="fill:green;stroke:black;stroke-width:1;fill-opacity:1;stroke-opacity:0.9" />
<rect x="106.578" y="228.578" width="24" height="17"
style="fill:green;stroke:black;stroke-width:1;fill-opacity:1;stroke-opacity:0.9" />
<rect x="130.578" y="228.578" width="24" height="17"
style="fill:green;stroke:black;stroke-width:1;fill-opacity:1;stroke-opacity:0.9" />
<rect x="154.578" y="228.578" width="24" height="17"
style="fill:green;stroke:black;stroke-width:1;fill-opacity:1;stroke-opacity:0.9" />
<rect x="178.578" y="228.578" width="24" height="17"
style="fill:green;stroke:black;stroke-width:1;fill-opacity:1;stroke-opacity:0.9" />
<rect x="202.578" y="228.578" width="24" height="17"
style="fill:green;stroke:black;stroke-width:1;fill-opacity:1;stroke-opacity:0.9" />
<rect x="226.578" y="228.578" width="24" height="17"
style="fill:green;stroke:black;stroke-width:1;fill-opacity:1;stroke-opacity:0.9" />
<rect x="250.578" y="228.578" width="24" height="17"
style="fill:green;stroke:black;stroke-width:1;fill-opacity:1;stroke-opacity:0.9" />
<rect x="274.578" y="228.578" width="24" height="17"
style="fill:green;stroke:black;stroke-width:1;fill-opacity:1;stroke-opacity:0.9" />
<rect x="298.578" y="228.578" width="24" height="17"
style="fill:green;stroke:black;stroke-width:1;fill-opacity:1;stroke-opacity:0.9" />
<rect x="58.5783" y="245.578" width="24" height="17"
style="fill:green;stroke:black;stroke-width:1;fill-opacity:1;stroke-opacity:0.9" />
<rect x="82.5783" y="245.578" width="24" height="17"
style="fill:green;stroke:black;stroke-width:1;fill-opacity:1;stroke-opacity:0.9" />
<rect x="106.578" y="245.578" width="24" height="17"
style="fill:green;stroke:black;stroke-width:1;fill-opacity:1;stroke-opacity:0.9" />
<rect x="130.578" y="245.578" width="24" height="17"
style="fill:green;stroke:black;stroke-width:1;fill-opacity:1;stroke-opacity:0.9" />
<rect x="154.578" y="245.578" width="24" height="17"
style="fill:green;stroke:black;stroke-width:1;fill-opacity:1;stroke-opacity:0.9" />
<rect x="178.578" y="245.578" width="24" height="17"
style="fill:green;stroke:black;stroke-width:1;fill-opacity:1;stroke-opacity:0.9" />
<rect x="202.578" y="245.578" width="24" height="17"
style="fill:green;stroke:black;stroke-width:1;fill-opacity:1;stroke-opacity:0.9" />
<rect x="226.578" y="245.578" width="24" height="17"
style="fill:green;stroke:black;stroke-width:1;fill-opacity:1;stroke-opacity:0.9" />
<rect x="250.578" y="245.578" width="24" height="17"
style="fill:green;stroke:black;stroke-width:1;fill-opacity:1;stroke-opacity:0.9" />
<rect x="274.578" y="245.578" width="24" height="17"
style="fill:green;stroke:black;stroke-width:1;fill-opacity:1;stroke-opacity:0.9" />
<rect x="298.578" y="245.578" width="24" height="17"
style="fill:green;stroke:black;stroke-width:1;fill-opacity:1;stroke-opacity:0.9" />
<rect x="58.5783" y="262.578" width="24" height="17"
style="fill:green;stroke:black;stroke-width:1;fill-opacity:1;stroke-opacity:0.9" />
<rect x="82.5783" y="262.578" width="24" height="17"
style="fill:green;stroke:black;stroke-width:1;fill-opacity:1;stroke-opacity:0.9" />
<rect x="106.578" y="262.578" width="24" height="17"
style="fill:green;stroke:black;stroke-width:1;fill-opacity:1;stroke-opacity:0.9" />
<rect x="130.578" y="262.578" width="24" height="17"
style="fill:green;stroke:black;stroke-width:1;fill-opacity:1;stroke-opacity:0.9" />
<rect x="154.578" y="262.578" width="24" height="17"
style="fill:green;stroke:black;stroke-width:1;fill-opacity:1;stroke-opacity:0.9" />
<rect x="178.578" y="262.578" width="24" height="17"
style="fill:green;stroke:black;stroke-width:1;fill-opacity:1;stroke-opacity:0.9" />
<rect x="202.578" y="262.578" width="24" height="17"
style="fill:green;stroke:black;stroke-width:1;fill-opacity:1;stroke-opacity:0.9" />
<rect x="226.578" y="262.578" width="24" height="17"
style="fill:green;stroke:black;stroke-width:1;fill-opacity:1;stroke-opacity:0.9" />
<rect x="250.578" y="262.578" width="24" height="17"
style="fill:green;stroke:black;stroke-width:1;fill-opacity:1;stroke-opacity:0.9" />
<rect x="274.578" y="262.578" width="24" height="17"
style="fill:green;stroke:black;stroke-width:1;fill-opacity:1;stroke-opacity:0.9" />
<rect x="298.578" y="262.578" width="24" height="17"
style="fill:green;stroke:black;stroke-width:1;fill-opacity:1;stroke-opacity:0.9" />
<rect x="58.5783" y="279.578" width="24" height="17"
style="fill:green;stroke:black;stroke-width:1;fill-opacity:1;stroke-opacity:0.9" />
<rect x="82.5783" y="279.578" width="24" height="17"
style="fill:green;stroke:black;stroke-width:1;fill-opacity:1;stroke-opacity:0.9" />
<rect x="106.578" y="279.578" width="24" height="17"
style="fill:green;stroke:black;stroke-width:1;fill-opacity:1;stroke-opacity:0.9" />
<rect x="130.578" y="279.578" width="24" height="17"
style="fill:green;stroke:black;stroke-width:1;fill-opacity:1;stroke-opacity:0.9" />
<rect x="154.578" y="279.578" width="24" height="17"
style="fill:green;stroke:black;stroke-width:1;fill-opacity:1;stroke-opacity:0.9" />
<rect x="178.578" y="279.578" width="24" height="17"
style="fill:green;stroke:black;stroke-width:1;fill-opacity:1;stroke-opacity:0.9" />
<rect x="202.578" y="279.578" width="24" height="17"
style="fill:green;stroke:black;stroke-width:1;fill-opacity:1;stroke-opacity:0.9" />
<rect x="226.578" y="279.578" width="24" height="17"
style="fill:green;stroke:black;stroke-width:1;fill-opacity:1;stroke-opacity:0.9" />
<rect x="250.578" y="279.578" width="24" height="17"
style="fill:green;stroke:black;stroke-width:1;fill-opacity:1;stroke-opacity:0.9" />
<rect x="274.578" y="279.578" width="24" height="17"
style="fill:green;stroke:black;stroke-width:1;fill-opacity:1;stroke-opacity:0.9" />
<rect x="298.578" y="279.578" width="24" height="17"
style="fill:green;stroke:black;stroke-width:1;fill-opacity:1;stroke-opacity:0.9" />
<rect x="58.5783" y="296.578" width="24" height="17"
style="fill:green;stroke:black;stroke-width:1;fill-opacity:1;stroke-opacity:0.9" />
<rect x="82.5783" y="296.578" width="24" height="17"
style="fill:green;stroke:black;stroke-width:1;fill-opacity:1;stroke-opacity:0.9" />
<rect x="106.578" y="296.578" width="24" height="17"
style="fill:green;stroke:black;stroke-width:1;fill-opacity:1;stroke-opacity:0.9" />
<rect x="130.578" y="296.578" width="24" height="17"
style="fill:green;stroke:black;stroke-width:1;fill-opacity:1;stroke-opacity:0.9" />
<rect x="154.578" y="296.578" width="24" height="17"
style="fill:green;stroke:black;stroke-width:1;fill-opacity:1;stroke-opacity:0.9" />
<rect x="178.578" y="296.578" width="24" height="17"
style="fill:green;stroke:black;stroke-width:1;fill-opacity:1;stroke-opacity:0.9" />
<rect x="202.578" y="296.578" width="24" height="17"
style="fill:green;stroke:black;stroke-width:1;fill-opacity:1;stroke-opacity:0.9" />
<rect x="226.578" y="296.578" width="24" height="17"
style="fill:green;stroke:black;stroke-width:1;fill-opacity:1;stroke-opacity:0.9" />
<rect x="250.578" y="296.578" width="24" height="17"
style="fill:green;stroke:black;stroke-width:1;fill-opacity:1;stroke-opacity:0.9" />
<rect x="274.578" y="296.578" width="24" height="17"
style="fill:green;stroke:black;stroke-width:1;fill-opacity:1;stroke-opacity:0.9" />
<rect x="298.578" y="296.578" width="24" height="17"
style="fill:green;stroke:black;stroke-width:1;fill-opacity:1;stroke-opacity:0.9" />
<rect x="58.5783" y="313.578" width="24" height="17"
style="fill:green;stroke:black;stroke-width:1;fill-opacity:1;stroke-opacity:0.9" />
<rect x="82.5783" y="313.578" width="24" height="17"
style="fill:green;stroke:black;stroke-width:1;fill-opacity:1;stroke-opacity:0.9" />
<rect x="106.578" y="313.578" width="24" height="17"
style="fill:green;stroke:black;stroke-width:1;fill-opacity:1;stroke-opacity:0.9" />
<rect x="130.578" y="313.578" width="24" height="17"
style="fill:green;stroke:black;stroke-width:1;fill-opacity:1;stroke-opacity:0.9" />
<rect x="154.578" y="313.578" width="24" height="17"
style="fill:green;stroke:black;stroke-width:1;fill-opacity:1;stroke-opacity:0.9" />
<rect x="178.578" y="313.578" width="24" height="17"
style="fill:green;stroke:black;stroke-width:1;fill-opacity:1;stroke-opacity:0.9" />
<rect x="202.578" y="313.578" width="24" height="17"
style="fill:green;stroke:black;stroke-width:1;fill-opacity:1;stroke-opacity:0.9" />
<rect x="226.578" y="313.578" width="24" height="17"
style="fill:green;stroke:black;stroke-width:1;fill-opacity:1;stroke-opacity:0.9" />
<rect x="250.578" y="313.578" width="24" height="17"
style="fill:green;stroke:black;stroke-width:1;fill-opacity:1;stroke-opacity:0.9" />
<rect x="274.578" y="313.578" width="24" height="17"
style="fill:green;stroke:black;stroke-width:1;fill-opacity:1;stroke-opacity:0.9" />
<rect x="298.578" y="313.578" width="24" height="17"
style="fill:green;stroke:black;stroke-width:1;fill-opacity:1;stroke-opacity:0.9" />
<rect x="322.578" y="58.5783" width="17" height="24"
style="fill:green;stroke:black;stroke-width:1;fill-opacity:1;stroke-opacity:0.9" />
<rect x="322.578" y="82.5783" width="17" height="24"
style="fill:green;stroke:black;stroke-width:1;fill-opacity:1;stroke-opacity:0.9" />
<rect x="322.578" y="106.578" width="17" height="24"
style="fill:green;stroke:black;stroke-width:1;fill-opacity:1;stroke-opacity:0.9" />
<rect x="322.578" y="130.578" width="17" height="24"
style="fill:green;stroke:black;stroke-width:1;fill-opacity:1;stroke-opacity:0.9" />
<rect x="322.578" y="154.578" width="17" height="24"
style="fill:green;stroke:black;stroke-width:1;fill-opacity:1;stroke-opacity:0.9" />
<rect x="322.578" y="178.578" width="17" height="24"
style="fill:green;stroke:black;stroke-width:1;fill-opacity:1;stroke-opacity:0.9" />
<rect x="322.578" y="202.578" width="17" height="24"
style="fill:green;stroke:black;stroke-width:1;fill-opacity:1;stroke-opacity:0.9" />
<rect x="322.578" y="226.578" width="17" height="24"
style="fill:green;stroke:black;stroke-width:1;fill-opacity:1;stroke-opacity:0.9" />
<rect x="322.578" y="250.578" width="17" height="24"
style="fill:green;stroke:black;stroke-width:1;fill-opacity:1;stroke-opacity:0.9" />
<rect x="322.578" y="274.578" width="17" height="24"
style="fill:green;stroke:black;stroke-width:1;fill-opacity:1;stroke-opacity:0.9" />
<rect x="322.578" y="298.578" width="17" height="24"
style="fill:green;stroke:black;stroke-width:1;fill-opacity:1;stroke-opacity:0.9" />
</svg>